<svg width="173" height="164" viewBox="0 0 173 164" fill="none" xmlns="http://www.w3.org/2000/svg">
<path d="M17.5448 101.846C19.253 95.9899 26.1696 93.4936 31.2242 96.9095L116.591 154.601C120.71 157.384 118.685 163.819 113.715 163.743L5.24843 162.08C2.60757 162.04 0.730207 159.496 1.46974 156.961L17.5448 101.846Z" fill="#FCA646"/>
<path d="M166.725 0.38501C169.769 0.182083 172.283 2.72872 172.042 5.7698L163.124 118.056C162.709 123.276 155.567 124.428 153.532 119.603L110.452 17.4296C107.782 11.0987 112.145 4.02364 119.001 3.56661L166.725 0.38501Z" fill="#FCA646"/>
<path d="M71.7174 13.8098C73.6528 12.1163 76.6604 12.6629 77.8762 14.9291L138.209 127.386C141.125 132.822 134.925 138.591 129.713 135.292L24.5494 68.7279C20.032 65.8686 19.5365 59.4681 23.5599 55.9476L71.7174 13.8098Z" fill="#FCA646"/>
</svg>
