<svg width="213" height="175" viewBox="0 0 213 175" fill="none" xmlns="http://www.w3.org/2000/svg">
<path d="M22.5482 79.2318C23.5043 75.9342 27.4232 74.5593 30.23 76.5366L151.115 161.696C156.173 165.259 153.181 173.219 147.027 172.568L5.93879 157.629C2.84295 157.301 0.796106 154.254 1.66303 151.264L22.5482 79.2318Z" fill="#FCA646"/>
<path d="M124.816 54.1365C126.772 52.7365 129.513 53.3678 130.66 55.4826L174.714 136.721C177.107 141.133 172.233 145.925 167.862 143.459L83.566 95.8973C79.1073 93.3817 78.7689 87.0874 82.9322 84.1082L124.816 54.1365Z" fill="#FCA646"/>
<path d="M209.464 0.201432C211.315 0.0959938 212.817 1.67805 212.617 3.52119L199.015 128.49C198.462 133.572 191.538 134.646 189.471 129.97L137.503 12.4237C135.809 8.59081 138.466 4.24563 142.65 4.00731L209.464 0.201432Z" fill="#FCA646"/>
</svg>
