<svg width="720" height="786" viewBox="0 0 720 787" fill="none" xmlns="http://www.w3.org/2000/svg">
<path d="M181.999 399.501C174.499 387.502 166.499 367.5 175.999 344.501C185.499 321.502 195.999 325.002 208.999 323.001C221.999 321 270.499 375.501 270.499 375.501V363.001L221.999 312.501C221.999 312.501 181.999 251.5 221.999 183.501C234.999 163.002 260.499 129.001 338.999 118.501C417.499 108.001 493.499 176.501 493.499 176.501C493.499 176.501 557.499 242.501 558.999 293.501L555 303C555 303 585.5 313.501 587 344.501C588.5 375.501 570.499 399.501 570.499 399.501V513.001C581 592 655.499 596.001 655.499 596.001C655.499 596.001 674.5 635 610.999 656.501C547.499 678.002 506.999 622.001 506.999 622.001L496.499 663.501C496.499 663.501 492.5 679.5 434.499 675.001C376.499 670.502 371.499 656.501 371.499 656.501L355.499 612.001L338.499 656.501C338.499 656.501 290.5 675.001 245.499 640.001C200.499 605.001 253.999 417.001 253.999 417.001C253.999 417.001 189.5 411.5 181.999 399.501Z" fill="#6EBBB0"/>
<path d="M22.5482 79.2318C23.5043 75.9342 27.4232 74.5593 30.23 76.5366L151.115 161.696C156.173 165.259 153.181 173.219 147.027 172.568L5.93879 157.629C2.84295 157.301 0.796106 154.254 1.66303 151.264L22.5482 79.2318Z" fill="#FCA646"/>
<path d="M124.816 54.1365C126.772 52.7365 129.513 53.3678 130.66 55.4826L174.714 136.721C177.107 141.133 172.233 145.925 167.862 143.459L83.566 95.8973C79.1073 93.3817 78.7689 87.0874 82.9322 84.1082L124.816 54.1365Z" fill="#FCA646"/>
<path d="M209.464 0.201432C211.315 0.0959938 212.817 1.67805 212.617 3.52119L199.015 128.49C198.462 133.572 191.538 134.646 189.471 129.97L137.503 12.4237C135.809 8.59081 138.466 4.24563 142.65 4.00731L209.464 0.201432Z" fill="#FCA646"/>
<path d="M297.499 120.474C296.166 101.09 306.799 69.7149 357.999 65.7724C409.199 61.8299 423.666 101.966 425.499 122.5L382.5 109.5L326.5 110.5L297.499 120.474Z" fill="#FDA948"/>
<path d="M297.5 117C297.5 117 308 104.5 354.5 103.501C401 102.503 425 118.001 425 118.001L423.5 129.5C423.5 129.5 403.5 114.001 357 115.5C310.5 116.999 303.5 119.5 303.5 119.5L297.5 117Z" fill="#FB6D13"/>
<path d="M298.585 123.247C297.413 101.315 307.899 70.6828 361.727 68.5773C415.554 66.4718 426.5 107.866 426.5 130.5" stroke="black" stroke-width="8" stroke-linejoin="round"/>
<path d="M450.929 142.509C462.215 126.705 489.245 108.221 526.804 133.563C564.363 158.905 549.016 198.123 537.35 215.098L516.071 181.139L477.075 150.847L450.929 142.509Z" fill="#FDA948"/>
<path d="M463.002 133.5L502.001 158.5C519.001 166.999 548.999 198 548.999 198L532.092 219.819C532.092 219.819 519 195.5 494 174C469 152.5 455.655 145.08 455.655 145.08L463.002 133.5Z" fill="#FB6D13"/>
<path d="M549.999 174L546.998 197L537.499 187.499C537.499 187.499 540 183 541 177C542 171 543 159 543 159L549.999 174Z" fill="#FB6D13"/>
<path d="M452.181 142.539C464.305 125.934 495 113.519 527.47 137.644C565.433 165.85 548.511 202.015 535.176 218.483" stroke="black" stroke-width="8" stroke-linejoin="round"/>
<path d="M554.498 254C554.498 254 593.998 240.999 610.498 288.499C626.998 335.999 592.5 352 592.5 352C592.5 352 592 336 585 322.5C578 309 565.197 298.499 565.197 298.499L554.498 254Z" fill="#FDA948"/>
<path d="M550 254.5L566.5 252.5C566.5 252.5 575.998 279 577.498 284C578.998 289 586 321 586 321C586 321 579.502 315 574.002 309.5C568.502 304 564 301 564 301L550 254.5Z" fill="#FB6D13"/>
<path d="M590 337C590 337 598 329.5 603 323C608 316.5 611 307 611 307L613.5 325.5L606 339.5L592 353C592 353 591.875 347 591.5 344C591.125 341 590 337 590 337Z" fill="#FB6D13"/>
<path d="M591 358C591 358 626 337 610.5 290C595 243 551 252.5 551 252.5" stroke="black" stroke-width="8"/>
<path d="M584.502 402.5C584.502 402.5 601.502 407.998 607.502 419.498C613.502 430.998 607.502 444.498 607.502 444.498L584.502 467.498V402.5Z" fill="#FDA948"/>
<path d="M573 399.5L584.5 401.5L585.5 466.5C585.5 466.5 591 461 598 454C605 447 610.5 438 610.5 438C610.5 438 611 455.5 607 465C603 474.5 573 488 573 488V399.5Z" fill="#FB6D13"/>
<path d="M579.001 396.5C579.001 396.5 615.004 406.997 613.004 442.498C611.003 477.998 572.5 491.5 572.5 491.5" stroke="black" stroke-width="8"/>
<path d="M573.5 516H583.498L599.498 544L618.498 570L627.998 548.5C627.998 548.5 629.998 558 628.998 566C627.998 574 623.999 586.5 623.999 586.5C623.999 586.5 601.999 577.5 587.999 555C573.999 532.5 573.5 516 573.5 516Z" fill="#FB6D13"/>
<path d="M583.5 515.999C583.5 515.999 609 515 618.5 527C628 539 628 548.5 628 548.5L619 570.5C619 570.5 605 554 599 545C593 536 583.5 515.999 583.5 515.999Z" fill="#FDA948"/>
<path d="M573.498 513C573.498 513 611.336 505.5 625.998 532.001C640.659 558.501 627.5 586 627.5 586" stroke="black" stroke-width="8"/>
<path d="M426 263.5C426 263.5 423 253.82 435.999 238.5C448.998 223.18 465.499 223.501 465.499 223.501C509.998 220.5 511.999 249.001 511.999 249.001C511.999 249.001 515.499 277.5 473.999 285C432.499 292.5 426 263.5 426 263.5Z" fill="#FDA948"/>
<path d="M465.917 240.383C465.917 240.383 464.999 237.999 468 236.315C471.001 234.631 472.806 236.316 472.806 236.316L489.585 264.732C489.585 264.732 490.499 268.5 487.999 270C485.499 271.5 482.696 268.799 482.696 268.799L465.917 240.383Z" fill="black"/>
<path d="M444.499 256.499C444.499 256.499 442.844 252.078 445.891 250.479C448.938 248.881 451.5 252.5 451.5 252.5L461.342 270.211C461.342 270.211 461.588 273.023 459.034 274.429C456.481 275.835 454.316 274.035 454.316 274.035L444.499 256.499Z" fill="black"/>
<g opacity="0.99">
<path d="M273 280C273 280 269.999 252 295.5 254C321 256 322.5 263.002 322.5 263.002C322.5 263.002 334.5 249.502 341.5 249.002C348.5 248.502 358 262 362 261.501C366 261.001 390.5 250.002 390.5 250.002C390.5 250.002 410.5 242.501 413.5 272.5C416.5 302.499 396.5 302.5 396.5 302.5C396.5 302.5 372.501 259.717 339 267.5C305.5 275.283 300.5 305.5 300.5 305.5C300.5 305.5 274.5 309.5 273 280Z" fill="#FCA747"/>
<path d="M344.999 266.001C390.499 259.001 396.499 302 396.499 302C396.499 302 388.999 304 380.999 304.5C372.999 305 363 303 363 303L338.999 291.5C338.999 291.5 321.499 301.001 316.499 302.001C311.499 303.001 300.5 305 300.5 305C300.5 305 299.499 273.001 344.999 266.001Z" fill="#FA6C12"/>
<path d="M363.498 259.501C355.496 259.501 354 246.713 341.499 246.501C328.998 246.29 329.5 261.5 321.497 262.001C313.495 262.503 311.501 252.001 300.501 252.002C289.502 252.002 262.001 258.502 273.501 292.501C285.001 326.5 331.5 293.501 339.5 293.501C347.5 293.502 346 304 379 306C412 308 414.502 286 414.5 271.5C414.498 257 402.496 247.501 392.498 247.501C382.5 247.501 371.5 259.501 363.498 259.501Z" stroke="black" stroke-width="8"/>
</g>
<path d="M411.479 190.5C411.479 190.5 416.502 187.499 418.501 191.499C420.501 195.499 416.667 197.396 416.667 197.396L396.689 212.425C396.689 212.425 391.501 215.5 389.501 212C387.5 208.5 391.501 205.529 391.501 205.529L411.479 190.5Z" fill="black"/>
<path d="M280.298 195.505C280.298 195.505 276.952 190.966 280.711 188.553C284.469 186.139 286.637 189.65 286.637 189.65L302.978 207.344C302.978 207.344 306.769 212.144 303.5 214.5C300.231 216.856 296.639 213.199 296.639 213.199L280.298 195.505Z" fill="black"/>
<path d="M404 217.5C404 217.5 407.5 213 413.5 213C419.5 213 430 219 428 228.5C426 238 419 242.031 413.5 241C408 239.969 403 237.5 400.5 231C398 224.5 404 217.5 404 217.5Z" fill="black"/>
<path d="M263.5 226.5C263.5 220.5 267.5 213 277 213C286.5 213 290.5 219.5 290.5 226.5C290.5 233.5 285 238.5 277 238.5C269 238.5 263.5 232.5 263.5 226.5Z" fill="black"/>
<path d="M428.5 490C428.5 526.727 394.474 556.5 352.5 556.5C310.526 556.5 276.5 526.727 276.5 490C276.5 453.273 310.526 405.5 352.5 405.5C394.474 405.5 428.5 453.273 428.5 490Z" fill="#A0D3C6"/>
<path d="M413.5 223.5H415.5L416.5 224.5V225.5H417.5V229.5H416.5V230.5H415.5V231.5H413.5V230.5H411.5V229.5H410.5V228.5H409.5V225.5H410.5V224.5H411.5V223.5H413.5Z" fill="white"/>
<path d="M275.5 222.5H276.5V223.5H277.5V224.5H278.5V225.5H280.5V227.5H279.5V228.5H275.5V227.5H273.5V224.5H274.5V223.5H275.5V222.5Z" fill="white"/>
<path d="M556.5 325.5C556.5 325.5 547.504 336.5 548.502 354.5C549.5 372.5 556.5 379.5 556.5 379.5" stroke="black" stroke-width="9" stroke-linecap="round"/>
<path d="M457.91 366.218C457.91 366.218 522.5 303 546.5 302C570.5 300.999 583.003 318.503 585.502 333.501C588 348.499 593.5 362 578.5 391.5C563.5 421 491.91 415.218 491.91 415.218" stroke="black" stroke-width="9" stroke-linecap="round"/>
<path d="M429.033 493.398C426.341 517.848 417.81 533.126 405.294 542.467C392.593 551.947 374.889 556 352.499 556C329.866 556 311.701 552.865 298.691 543.585C286.004 534.535 277.181 518.855 274.993 491.2C274.327 468.741 283.05 446.487 297.411 429.843C311.8 413.167 331.495 402.5 352.499 402.5C394.876 402.5 434.31 445.466 429.033 493.398Z" stroke="black" stroke-width="11"/>
<path d="M355.5 513.5L335.691 492.227" stroke="black" stroke-width="6" stroke-linecap="round"/>
<path d="M354.498 495.5L333.497 515.19" stroke="black" stroke-width="6" stroke-linecap="round"/>
<path d="M267.001 417.501C267.001 417.501 183.557 416.001 176.501 392.001C169.446 368 167.999 351.5 179.502 338.499C191.004 325.498 194.504 320.499 209.502 321.499C224.499 322.5 270.5 373.5 270.5 373.5" stroke="black" stroke-width="8" stroke-linecap="round"/>
<path d="M503 653.5C503 653.5 491 677 435.501 675.5C403.469 675.5 377.001 668 376.001 663C372 655 403.469 642 435.501 642C467.534 642 503 653.5 503 653.5Z" fill="#2F8A7A"/>
<path d="M654 602.5C654 602.5 661.996 659.5 587.496 657C538 666 520 633 519 628C514.999 620 555.464 641.5 587.496 641.5C616 641.5 654 602.5 654 602.5Z" fill="#2F8A7A"/>
<path d="M342 650.5C342 650.5 347.166 660.5 291.667 659C259.635 659 251 651 250 646C245.999 638 259.635 632 291.667 632C323.7 632 342 650.5 342 650.5Z" fill="#2F8A7A"/>
<path d="M569.998 403.001L569.998 513.5C569.998 513.5 570.935 526.5 583 548.5C612.5 602.294 657.498 593.001 657.498 593.001C657.498 593.001 662.496 629.002 636.497 646.002C610.498 663.001 559.499 661.501 544.999 655.002C530.499 648.503 512.998 622.002 508.998 622.502C504.998 623.002 504.261 652.62 499.998 659.002C495.735 665.384 487.736 675.391 435.498 675.001C383.259 674.611 376.999 664.002 371.997 656.501C366.995 649.001 365.997 614.402 356.998 613.502C347.999 612.602 348.497 646.502 342.498 654.001C336.498 661.501 326.999 661.002 293.497 659.002C259.996 657.002 245.997 642.501 245.997 642.501C245.997 642.501 226.999 622.502 227.497 555.502C227.996 488.502 253.499 419.002 253.499 419.002" stroke="black" stroke-width="8"/>
<path d="M269.501 373.5V362C269.501 362 223.499 324 214.001 303C201.5 280.5 179.998 122.5 353.999 116.5C422.998 110.5 501.5 180 522.999 206.5C553.998 246.5 560.498 303.5 560.498 303.5" stroke="black" stroke-width="8"/>
<path d="M180.501 258.5C180.502 255.001 179.819 248.5 190.001 236.5C200.182 224.5 219.501 225.001 238 234C256.5 242.999 255 263 255 263C255 263 257.5 282.998 223.5 287.998C189.5 292.998 180.5 261.998 180.501 258.5Z" fill="#FDA948"/>
<path d="M216.731 243.427C216.731 243.427 216.276 241.007 219.524 239.87C222.772 238.734 224.224 240.626 224.224 240.626L235.35 270.392C235.35 270.392 235.544 274.133 232.82 275.172C230.096 276.212 227.856 273.193 227.856 273.193L216.731 243.427Z" fill="black"/>
<path d="M192.623 249.799C192.623 249.799 191.125 244.3 194.53 242.972C197.935 241.644 200.469 246.364 200.469 246.364L209.5 268.498C209.5 268.498 210.026 272.321 207.168 273.513C204.309 274.704 202.085 272.196 202.085 272.196L192.623 249.799Z" fill="black"/>
</svg>
