<svg width="720" height="787" viewBox="0 0 720 787" fill="none" xmlns="http://www.w3.org/2000/svg">
<path d="M182.499 400.001C174.999 388.002 166.999 368 176.499 345.001C185.999 322.002 196.499 325.502 209.499 323.501C222.499 321.5 270.999 376.001 270.999 376.001V363.501L222.499 313.001C222.499 313.001 182.499 252 222.499 184.001C235.499 163.502 260.999 129.501 339.499 119.001C417.999 108.501 493.999 177.001 493.999 177.001C493.999 177.001 557.999 243.001 559.499 294.001L555.5 303.5C555.5 303.5 586 314.001 587.5 345.001C589 376.001 570.999 400.001 570.999 400.001V513.501C581.5 592.5 655.999 596.501 655.999 596.501C655.999 596.501 675 635.5 611.499 657.001C547.999 678.502 507.499 622.501 507.499 622.501L496.999 664.001C496.999 664.001 493 680 434.999 675.501C376.999 671.002 371.999 657.001 371.999 657.001L355.999 612.501L338.999 657.001C338.999 657.001 291 675.501 245.999 640.501C200.999 605.501 254.499 417.501 254.499 417.501C254.499 417.501 190 412 182.499 400.001Z" fill="#6EBBB0"/>
<path d="M23.0482 79.7318C24.0043 76.4342 27.9232 75.0593 30.73 77.0366L151.615 162.196C156.673 165.759 153.681 173.719 147.527 173.068L6.43879 158.129C3.34295 157.801 1.29611 154.754 2.16303 151.764L23.0482 79.7318Z" fill="#FCA646"/>
<path d="M125.316 54.6365C127.272 53.2365 130.013 53.8678 131.16 55.9826L175.214 137.221C177.607 141.633 172.733 146.425 168.362 143.959L84.066 96.3973C79.6073 93.8817 79.2689 87.5874 83.4322 84.6082L125.316 54.6365Z" fill="#FCA646"/>
<path d="M209.964 0.701432C211.815 0.595994 213.317 2.17805 213.117 4.02119L199.515 128.99C198.962 134.072 192.038 135.146 189.971 130.47L138.003 12.9237C136.309 9.09081 138.966 4.74563 143.15 4.50731L209.964 0.701432Z" fill="#FCA646"/>
<path d="M297.999 120.974C296.666 101.59 307.299 70.2149 358.499 66.2724C409.699 62.3299 424.166 102.466 425.999 123L383 110L327 111L297.999 120.974Z" fill="#FDA948"/>
<path d="M298 117.5C298 117.5 308.5 105 355 104.001C401.5 103.003 425.5 118.501 425.5 118.501L424 130C424 130 404 114.501 357.5 116C311 117.499 304 120 304 120L298 117.5Z" fill="#FB6D13"/>
<path d="M299.085 123.747C297.913 101.815 308.399 71.1828 362.227 69.0773C416.054 66.9718 427 108.366 427 131" stroke="black" stroke-width="8" stroke-linejoin="round"/>
<path d="M451.429 143.009C462.715 127.205 489.745 108.721 527.304 134.063C564.863 159.405 549.516 198.623 537.85 215.598L516.571 181.639L477.575 151.347L451.429 143.009Z" fill="#FDA948"/>
<path d="M463.502 134L502.501 159C519.501 167.499 549.499 198.5 549.499 198.5L532.592 220.319C532.592 220.319 519.5 196 494.5 174.5C469.5 153 456.155 145.58 456.155 145.58L463.502 134Z" fill="#FB6D13"/>
<path d="M550.499 174.5L547.498 197.5L537.999 187.999C537.999 187.999 540.5 183.5 541.5 177.5C542.5 171.5 543.5 159.5 543.5 159.5L550.499 174.5Z" fill="#FB6D13"/>
<path d="M452.681 143.039C464.805 126.434 495.5 114.019 527.97 138.144C565.933 166.35 549.011 202.515 535.676 218.983" stroke="black" stroke-width="8" stroke-linejoin="round"/>
<path d="M554.998 254.5C554.998 254.5 594.498 241.499 610.998 288.999C627.498 336.499 593 352.5 593 352.5C593 352.5 592.5 336.5 585.5 323C578.5 309.5 565.697 298.999 565.697 298.999L554.998 254.5Z" fill="#FDA948"/>
<path d="M550.5 255L567 253C567 253 576.498 279.5 577.998 284.5C579.498 289.5 586.5 321.5 586.5 321.5C586.5 321.5 580.002 315.5 574.502 310C569.002 304.5 564.5 301.5 564.5 301.5L550.5 255Z" fill="#FB6D13"/>
<path d="M590.5 337.5C590.5 337.5 598.5 330 603.5 323.5C608.5 317 611.5 307.5 611.5 307.5L614 326L606.5 340L592.5 353.5C592.5 353.5 592.375 347.5 592 344.5C591.625 341.5 590.5 337.5 590.5 337.5Z" fill="#FB6D13"/>
<path d="M591.5 358.5C591.5 358.5 626.5 337.5 611 290.5C595.5 243.5 551.5 253 551.5 253" stroke="black" stroke-width="8"/>
<path d="M585.002 403C585.002 403 602.002 408.498 608.002 419.998C614.002 431.498 608.002 444.998 608.002 444.998L585.002 467.998V403Z" fill="#FDA948"/>
<path d="M573.5 400L585 402L586 467C586 467 591.5 461.5 598.5 454.5C605.5 447.5 611 438.5 611 438.5C611 438.5 611.5 456 607.5 465.5C603.5 475 573.5 488.5 573.5 488.5V400Z" fill="#FB6D13"/>
<path d="M579.501 397C579.501 397 615.504 407.497 613.504 442.998C611.503 478.498 573 492 573 492" stroke="black" stroke-width="8"/>
<path d="M574 516.5H583.998L599.998 544.5L618.998 570.5L628.498 549C628.498 549 630.498 558.5 629.498 566.5C628.498 574.5 624.499 587 624.499 587C624.499 587 602.499 578 588.499 555.5C574.499 533 574 516.5 574 516.5Z" fill="#FB6D13"/>
<path d="M584 516.499C584 516.499 609.5 515.5 619 527.5C628.5 539.5 628.5 549 628.5 549L619.5 571C619.5 571 605.5 554.5 599.5 545.5C593.5 536.5 584 516.499 584 516.499Z" fill="#FDA948"/>
<path d="M573.998 513.5C573.998 513.5 611.836 506 626.498 532.501C641.159 559.001 628 586.5 628 586.5" stroke="black" stroke-width="8"/>
<path d="M426.5 264C426.5 264 423.5 254.32 436.499 239C449.498 223.68 465.999 224.001 465.999 224.001C510.498 221 512.499 249.501 512.499 249.501C512.499 249.501 515.999 278 474.499 285.5C432.999 293 426.5 264 426.5 264Z" fill="#FDA948"/>
<path d="M466.417 240.883C466.417 240.883 465.499 238.499 468.5 236.815C471.501 235.131 473.306 236.816 473.306 236.816L490.085 265.232C490.085 265.232 490.999 269 488.499 270.5C485.999 272 483.196 269.299 483.196 269.299L466.417 240.883Z" fill="black"/>
<path d="M444.999 256.999C444.999 256.999 443.344 252.578 446.391 250.979C449.438 249.381 452 253 452 253L461.842 270.711C461.842 270.711 462.088 273.523 459.534 274.929C456.981 276.335 454.816 274.535 454.816 274.535L444.999 256.999Z" fill="black"/>
<g opacity="0.99">
<path d="M273.5 280.5C273.5 280.5 270.499 252.5 296 254.5C321.5 256.5 323 263.502 323 263.502C323 263.502 335 250.002 342 249.502C349 249.002 358.5 262.5 362.5 262.001C366.5 261.501 391 250.502 391 250.502C391 250.502 411 243.001 414 273C417 302.999 397 303 397 303C397 303 373.001 260.217 339.5 268C306 275.783 301 306 301 306C301 306 275 310 273.5 280.5Z" fill="#FCA747"/>
<path d="M345.499 266.501C390.999 259.501 396.999 302.5 396.999 302.5C396.999 302.5 389.499 304.5 381.499 305C373.499 305.5 363.5 303.5 363.5 303.5L339.499 292C339.499 292 321.999 301.501 316.999 302.501C311.999 303.501 301 305.5 301 305.5C301 305.5 299.999 273.501 345.499 266.501Z" fill="#FA6C12"/>
<path d="M363.998 260.001C355.996 260.001 354.5 247.213 341.999 247.001C329.498 246.79 330 262 321.997 262.501C313.995 263.003 312.001 252.501 301.001 252.502C290.002 252.502 262.501 259.002 274.001 293.001C285.501 327 332 294.001 340 294.001C348 294.002 346.5 304.5 379.5 306.5C412.5 308.5 415.002 286.5 415 272C414.998 257.5 402.996 248.001 392.998 248.001C383 248.001 372 260.001 363.998 260.001Z" stroke="black" stroke-width="8"/>
</g>
<path d="M411.979 191C411.979 191 417.002 187.999 419.001 191.999C421.001 195.999 417.167 197.896 417.167 197.896L397.189 212.925C397.189 212.925 392.001 216 390.001 212.5C388 209 392.001 206.029 392.001 206.029L411.979 191Z" fill="black"/>
<path d="M280.798 196.005C280.798 196.005 277.452 191.466 281.211 189.053C284.969 186.639 287.137 190.15 287.137 190.15L303.478 207.844C303.478 207.844 307.269 212.644 304 215C300.731 217.356 297.139 213.699 297.139 213.699L280.798 196.005Z" fill="black"/>
<path d="M404.5 218C404.5 218 408 213.5 414 213.5C420 213.5 430.5 219.5 428.5 229C426.5 238.5 419.5 242.531 414 241.5C408.5 240.469 403.5 238 401 231.5C398.5 225 404.5 218 404.5 218Z" fill="black"/>
<path d="M264 227C264 221 268 213.5 277.5 213.5C287 213.5 291 220 291 227C291 234 285.5 239 277.5 239C269.5 239 264 233 264 227Z" fill="black"/>
<path d="M429 490.5C429 527.227 394.974 557 353 557C311.026 557 277 527.227 277 490.5C277 453.773 311.026 406 353 406C394.974 406 429 453.773 429 490.5Z" fill="#A0D3C6"/>
<path d="M414 224H416L417 225V226H418V230H417V231H416V232H414V231H412V230H411V229H410V226H411V225H412V224H414Z" fill="white"/>
<path d="M276 223H277V224H278V225H279V226H281V228H280V229H276V228H274V225H275V224H276V223Z" fill="white"/>
<path d="M557 326C557 326 548.004 337 549.002 355C550 373 557 380 557 380" stroke="black" stroke-width="9" stroke-linecap="round"/>
<path d="M458.41 366.718C458.41 366.718 523 303.5 547 302.5C571 301.499 583.503 319.003 586.002 334.001C588.5 348.999 594 362.5 579 392C564 421.5 492.41 415.718 492.41 415.718" stroke="black" stroke-width="9" stroke-linecap="round"/>
<path d="M429.533 493.898C426.841 518.348 418.31 533.626 405.794 542.967C393.093 552.447 375.389 556.5 352.999 556.5C330.366 556.5 312.201 553.365 299.191 544.085C286.504 535.035 277.681 519.355 275.493 491.7C274.827 469.241 283.55 446.987 297.911 430.343C312.3 413.667 331.995 403 352.999 403C395.376 403 434.81 445.966 429.533 493.898Z" stroke="black" stroke-width="11"/>
<path d="M356 514L336.191 492.727" stroke="black" stroke-width="6" stroke-linecap="round"/>
<path d="M354.998 496L333.997 515.69" stroke="black" stroke-width="6" stroke-linecap="round"/>
<path d="M267.501 418.001C267.501 418.001 184.057 416.501 177.001 392.501C169.946 368.5 168.499 352 180.002 338.999C191.504 325.998 195.004 320.999 210.002 321.999C224.999 323 271 374 271 374" stroke="black" stroke-width="8" stroke-linecap="round"/>
<path d="M503.5 654C503.5 654 491.5 677.5 436.001 676C403.969 676 377.501 668.5 376.501 663.5C372.5 655.5 403.969 642.5 436.001 642.5C468.034 642.5 503.5 654 503.5 654Z" fill="#2F8A7A"/>
<path d="M654.5 603C654.5 603 662.496 660 587.996 657.5C538.5 666.5 520.5 633.5 519.5 628.5C515.499 620.5 555.964 642 587.996 642C616.5 642 654.5 603 654.5 603Z" fill="#2F8A7A"/>
<path d="M342.5 651C342.5 651 347.666 661 292.167 659.5C260.135 659.5 251.5 651.5 250.5 646.5C246.499 638.5 260.135 632.5 292.167 632.5C324.2 632.5 342.5 651 342.5 651Z" fill="#2F8A7A"/>
<path d="M570.498 403.501L570.498 514C570.498 514 571.435 527 583.5 549C613 602.794 657.998 593.501 657.998 593.501C657.998 593.501 662.996 629.502 636.997 646.502C610.998 663.501 559.999 662.001 545.499 655.502C530.999 649.003 513.498 622.502 509.498 623.002C505.498 623.502 504.761 653.12 500.498 659.502C496.235 665.884 488.236 675.891 435.998 675.501C383.759 675.111 377.499 664.502 372.497 657.001C367.495 649.501 366.497 614.902 357.498 614.002C348.499 613.102 348.997 647.002 342.998 654.501C336.998 662.001 327.499 661.502 293.997 659.502C260.496 657.502 246.497 643.001 246.497 643.001C246.497 643.001 227.499 623.002 227.997 556.002C228.496 489.002 253.999 419.502 253.999 419.502" stroke="black" stroke-width="8"/>
<path d="M270.001 374V362.5C270.001 362.5 223.999 324.5 214.501 303.5C202 281 180.498 123 354.499 117C423.498 111 502 180.5 523.499 207C554.498 247 560.998 304 560.998 304" stroke="black" stroke-width="8"/>
<path d="M181.001 259C181.002 255.501 180.319 249 190.501 237C200.682 225 220.001 225.501 238.5 234.5C257 243.499 255.5 263.5 255.5 263.5C255.5 263.5 258 283.498 224 288.498C190 293.498 181 262.498 181.001 259Z" fill="#FDA948"/>
<path d="M217.231 243.927C217.231 243.927 216.776 241.507 220.024 240.37C223.272 239.234 224.724 241.126 224.724 241.126L235.85 270.892C235.85 270.892 236.044 274.633 233.32 275.672C230.596 276.712 228.356 273.693 228.356 273.693L217.231 243.927Z" fill="black"/>
<path d="M193.123 250.299C193.123 250.299 191.625 244.8 195.03 243.472C198.435 242.144 200.969 246.864 200.969 246.864L210 268.998C210 268.998 210.526 272.821 207.668 274.013C204.809 275.204 202.585 272.696 202.585 272.696L193.123 250.299Z" fill="black"/>
</svg>
