<svg width="699" height="787" viewBox="0 0 699 787" fill="none" xmlns="http://www.w3.org/2000/svg">
<g opacity="0.99">
<path d="M555.5 254.5C555.5 254.5 595 241.499 611.5 288.999C628 336.499 593.502 352.5 593.502 352.5C593.502 352.5 593.002 336.5 586.002 323C579.002 309.5 566.199 298.999 566.199 298.999L555.5 254.5Z" fill="#FDA948"/>
<path d="M551.002 255L567.502 253C567.502 253 577 279.5 578.5 284.5C580 289.5 592.502 343 592.502 343L579.5 351.5L570 351L568.498 333L551.002 255Z" fill="#FB6D13"/>
<path d="M591 337.5C591 337.5 599 330 604 323.5C609 317 612 307.5 612 307.5L614.5 326L608 342.5L572.999 365C572.999 365 571.874 356.5 571.499 353.5C571.124 350.5 591 337.5 591 337.5Z" fill="#FB6D13"/>
<path d="M573 362.999C573 362.999 631.5 356.5 611.5 290.5C596 243.5 552 253 552 253" stroke="black" stroke-width="8"/>
<path d="M585.502 403C585.502 403 602.502 408.498 608.502 419.998C614.502 431.498 608.502 444.998 608.502 444.998L585.502 467.998V403Z" fill="#FDA948"/>
<path d="M574 400L585.5 402L586.5 467C586.5 467 592 461.5 599 454.5C606 447.5 611.5 438.5 611.5 438.5C611.5 438.5 612 456 608 465.5C604 475 574 488.5 574 488.5V400Z" fill="#FB6D13"/>
<path d="M580.001 397C580.001 397 616.004 407.497 614.004 442.998C612.003 478.498 573.5 492 573.5 492" stroke="black" stroke-width="8"/>
<path d="M198.5 467.5C184 459 176.5 437 179 421C181.5 405 191 399.001 204 397C217 394.999 268 392 268 392L271.499 363.501L220.5 317C220.5 317 182.999 252 222.999 184.001C235.999 163.502 261.499 129.501 339.999 119.001C418.499 108.501 494.499 177.001 494.499 177.001C494.499 177.001 558.499 243.001 559.999 294.001L569 383C569 383 607 388 608.5 419C610 450 571.499 466 571.499 466V513.501C582 592.5 656.499 596.501 656.499 596.501C656.499 596.501 675.5 635.5 611.999 657.001C548.498 678.502 507.999 622.501 507.999 622.501L497.499 664.001C497.499 664.001 493.5 680 435.499 675.501C377.499 671.002 372.499 657.001 372.499 657.001L356.499 612.501L339.499 657.001C339.499 657.001 278.5 671 246.499 640.501C214.498 610.002 242 472.5 242 472.5C242 472.5 213 476 198.5 467.5Z" fill="#6EBBB0"/>
<path d="M298.499 120.974C297.166 101.59 307.799 70.2149 358.999 66.2724C410.199 62.3299 424.666 102.466 426.499 123L383.5 110L327.5 111L298.499 120.974Z" fill="#FDA948"/>
<path d="M298.5 117.5C298.5 117.5 309 105 355.5 104.001C402 103.003 426 118.501 426 118.501L424.5 130C424.5 130 404.5 114.501 358 116C311.5 117.499 304.5 120 304.5 120L298.5 117.5Z" fill="#FB6D13"/>
<path d="M299.585 123.747C298.413 101.815 308.899 71.1828 362.727 69.0773C416.554 66.9718 427.5 108.366 427.5 131" stroke="black" stroke-width="8" stroke-linejoin="round"/>
<path d="M451.929 143.009C463.215 127.205 490.245 108.721 527.804 134.063C565.363 159.405 550.016 198.623 538.35 215.598L517.071 181.639L478.075 151.347L451.929 143.009Z" fill="#FDA948"/>
<path d="M464.002 134L503.001 159C520.001 167.499 549.999 198.5 549.999 198.5L533.092 220.319C533.092 220.319 520 196 495 174.5C470 153 456.655 145.58 456.655 145.58L464.002 134Z" fill="#FB6D13"/>
<path d="M550.999 174.5L547.998 197.5L538.499 187.999C538.499 187.999 541 183.5 542 177.5C543 171.5 544 159.5 544 159.5L550.999 174.5Z" fill="#FB6D13"/>
<path d="M453.181 143.039C465.305 126.434 496 114.019 528.47 138.144C566.433 166.35 549.511 202.515 536.176 218.983" stroke="black" stroke-width="8" stroke-linejoin="round"/>
<path d="M574.5 516.5H584.498L600.498 544.5L619.498 570.5L628.998 549C628.998 549 630.998 558.5 629.998 566.5C628.998 574.5 624.999 587 624.999 587C624.999 587 602.999 578 588.999 555.5C574.999 533 574.5 516.5 574.5 516.5Z" fill="#FB6D13"/>
<path d="M584.5 516.499C584.5 516.499 610 515.5 619.5 527.5C629 539.5 629 549 629 549L620 571C620 571 606 554.5 600 545.5C594 536.5 584.5 516.499 584.5 516.499Z" fill="#FDA948"/>
<path d="M574.498 513.5C574.498 513.5 612.336 506 626.998 532.501C641.659 559.001 628.5 586.5 628.5 586.5" stroke="black" stroke-width="8"/>
<path d="M427 264C427 264 424 254.32 436.999 239C449.998 223.68 466.499 224.001 466.499 224.001C510.998 221 512.999 249.501 512.999 249.501C512.999 249.501 516.499 278 474.999 285.5C433.499 293 427 264 427 264Z" fill="#FDA948"/>
<path d="M466.917 240.883C466.917 240.883 465.999 238.499 469 236.815C472.001 235.131 473.806 236.816 473.806 236.816L490.585 265.232C490.585 265.232 491.499 269 488.999 270.5C486.499 272 483.696 269.299 483.696 269.299L466.917 240.883Z" fill="black"/>
<path d="M445.499 256.999C445.499 256.999 443.844 252.578 446.891 250.979C449.938 249.381 452.5 253 452.5 253L462.342 270.711C462.342 270.711 462.588 273.523 460.034 274.929C457.481 276.335 455.316 274.535 455.316 274.535L445.499 256.999Z" fill="black"/>
<g opacity="0.99">
<path d="M274 280.5C274 280.5 270.999 252.5 296.5 254.5C322 256.5 323.5 263.502 323.5 263.502C323.5 263.502 335.5 250.002 342.5 249.502C349.5 249.002 359 262.5 363 262.001C367 261.501 391.5 250.502 391.5 250.502C391.5 250.502 411.5 243.001 414.5 273C417.5 302.999 397.5 303 397.5 303C397.5 303 373.501 260.217 340 268C306.5 275.783 301.5 306 301.5 306C301.5 306 275.5 310 274 280.5Z" fill="#FCA747"/>
<path d="M345.999 266.501C391.499 259.501 397.499 302.5 397.499 302.5C397.499 302.5 389.999 304.5 381.999 305C373.999 305.5 364 303.5 364 303.5L339.999 292C339.999 292 322.499 301.501 317.499 302.501C312.499 303.501 301.5 305.5 301.5 305.5C301.5 305.5 300.499 273.501 345.999 266.501Z" fill="#FA6C12"/>
<path d="M364.498 260.001C356.496 260.001 355 247.213 342.499 247.001C329.998 246.79 330.5 262 322.497 262.501C314.495 263.003 312.501 252.501 301.501 252.502C290.502 252.502 263.001 259.002 274.501 293.001C286.001 327 332.5 294.001 340.5 294.001C348.5 294.002 347 304.5 380 306.5C413 308.5 415.502 286.5 415.5 272C415.498 257.5 403.496 248.001 393.498 248.001C383.5 248.001 372.5 260.001 364.498 260.001Z" stroke="black" stroke-width="8"/>
</g>
<path d="M412.479 191C412.479 191 417.502 187.999 419.501 191.999C421.501 195.999 417.667 197.896 417.667 197.896L397.689 212.925C397.689 212.925 392.501 216 390.501 212.5C388.5 209 392.501 206.029 392.501 206.029L412.479 191Z" fill="black"/>
<path d="M281.298 196.005C281.298 196.005 277.952 191.466 281.711 189.053C285.469 186.639 287.637 190.15 287.637 190.15L303.978 207.844C303.978 207.844 307.769 212.644 304.5 215C301.231 217.356 297.639 213.699 297.639 213.699L281.298 196.005Z" fill="black"/>
<path d="M405 218C405 218 408.5 213.5 414.5 213.5C420.5 213.5 431 219.5 429 229C427 238.5 420 242.531 414.5 241.5C409 240.469 404 238 401.5 231.5C399 225 405 218 405 218Z" fill="black"/>
<path d="M264.5 227C264.5 221 268.5 213.5 278 213.5C287.5 213.5 291.5 220 291.5 227C291.5 234 286 239 278 239C270 239 264.5 233 264.5 227Z" fill="black"/>
<path d="M429.5 490.5C429.5 527.227 395.474 557 353.5 557C311.526 557 277.5 527.227 277.5 490.5C277.5 453.773 311.526 406 353.5 406C395.474 406 429.5 453.773 429.5 490.5Z" fill="#A0D3C6"/>
<path d="M414.5 224H416.5L417.5 225V226H418.5V230H417.5V231H416.5V232H414.5V231H412.5V230H411.5V229H410.5V226H411.5V225H412.5V224H414.5Z" fill="white"/>
<path d="M276.5 223H277.5V224H278.5V225H279.5V226H281.5V228H280.5V229H276.5V228H274.5V225H275.5V224H276.5V223Z" fill="white"/>
<path d="M588.999 416C588.999 416 577 414.501 561.5 428.001C546 441.5 546.198 452.5 546.198 452.5" stroke="black" stroke-width="9" stroke-linecap="round"/>
<path d="M493.501 366.5C493.501 366.5 572.5 378.499 590.001 387.999C607.502 397.499 607.503 413.497 607.501 428.998C607.499 444.5 580.003 472.497 550.002 476.498C504.002 474.998 478.243 423.999 478.243 423.999" stroke="black" stroke-width="9" stroke-linecap="round"/>
<path d="M430.033 493.898C427.341 518.348 418.81 533.626 406.294 542.967C393.593 552.447 375.889 556.5 353.499 556.5C330.866 556.5 312.701 553.365 299.691 544.085C287.004 535.035 278.181 519.355 275.993 491.7C275.327 469.241 284.05 446.987 298.411 430.343C312.8 413.667 332.495 403 353.499 403C395.876 403 435.31 445.966 430.033 493.898Z" stroke="black" stroke-width="11"/>
<path d="M356.5 514L336.691 492.727" stroke="black" stroke-width="6" stroke-linecap="round"/>
<path d="M355.498 496L334.497 515.69" stroke="black" stroke-width="6" stroke-linecap="round"/>
<path d="M266.5 449.5C266.5 449.5 239.999 487.5 198.5 463.001C181 451 174.233 423.002 179.999 409.001C185.764 395 221.999 392 221.999 392L265.5 389.5" stroke="black" stroke-width="8" stroke-linecap="round"/>
<path d="M504 654C504 654 492 677.5 436.501 676C404.469 676 378.001 668.5 377.001 663.5C373 655.5 404.469 642.5 436.501 642.5C468.534 642.5 504 654 504 654Z" fill="#2F8A7A"/>
<path d="M655 603C655 603 662.996 660 588.496 657.5C539 666.5 521 633.5 520 628.5C515.999 620.5 556.464 642 588.496 642C617 642 655 603 655 603Z" fill="#2F8A7A"/>
<path d="M343 651C343 651 348.166 661 292.667 659.5C260.635 659.5 252 651.5 251 646.5C246.999 638.5 260.635 632.5 292.667 632.5C324.7 632.5 343 651 343 651Z" fill="#2F8A7A"/>
<path d="M570.998 467L570.998 514C570.998 514 571.935 527 584 549C613.5 602.794 658.498 593.501 658.498 593.501C658.498 593.501 663.496 629.502 637.497 646.502C611.498 663.501 560.499 662.001 545.999 655.502C531.499 649.003 513.998 622.502 509.998 623.002C505.998 623.502 505.261 653.12 500.998 659.502C496.735 665.884 488.736 675.891 436.498 675.501C384.259 675.111 377.999 664.502 372.997 657.001C367.995 649.501 366.997 614.902 357.998 614.002C348.999 613.102 349.497 647.002 343.498 654.501C337.498 662.001 327.999 661.502 294.497 659.502C260.996 657.502 246.997 643.001 246.997 643.001C246.997 643.001 229.502 624.5 230 557.5C230.498 490.5 242.5 468 242.5 468" stroke="black" stroke-width="8"/>
<path d="M265 391C265 391 272.499 365.5 272.5 363C271.499 360.5 226.5 339.5 214.999 306C202.498 283.5 180.997 123 354.997 117C423.997 111 502.499 180.5 523.998 207C562 243 572 378.5 572 378.5" stroke="black" stroke-width="8"/>
<path d="M181.501 259C181.502 255.501 180.819 249 191.001 237C201.182 225 220.501 225.501 239 234.5C257.5 243.499 256 263.5 256 263.5C256 263.5 258.5 283.498 224.5 288.498C190.5 293.498 181.5 262.498 181.501 259Z" fill="#FDA948"/>
<path d="M217.731 243.927C217.731 243.927 217.276 241.507 220.524 240.37C223.772 239.234 225.224 241.126 225.224 241.126L236.35 270.892C236.35 270.892 236.544 274.633 233.82 275.672C231.096 276.712 228.856 273.693 228.856 273.693L217.731 243.927Z" fill="black"/>
<path d="M193.623 250.299C193.623 250.299 192.125 244.8 195.53 243.472C198.935 242.144 201.469 246.864 201.469 246.864L210.5 268.998C210.5 268.998 211.026 272.821 208.168 274.013C205.309 275.204 203.085 272.696 203.085 272.696L193.623 250.299Z" fill="black"/>
<path d="M21.8852 84.0494C23.658 78.1399 30.7163 75.7259 35.7367 79.312L152.076 162.412C156.671 165.693 153.929 172.939 148.313 172.358L4.80836 157.498C2.31239 157.239 0.668016 154.773 1.38906 152.37L21.8852 84.0494Z" fill="#FCA646"/>
<path d="M207.644 0.296507C210.717 0.140932 213.199 2.77073 212.868 5.82932L199.56 128.507C198.997 133.699 191.92 134.789 189.82 130.007L139.745 15.9466C137.212 10.1777 141.238 3.65883 147.531 3.34023L207.644 0.296507Z" fill="#FCA646"/>
<path d="M125.304 53.2716C127.254 51.8096 130.046 52.4154 131.215 54.5538L174.949 134.603C177.841 139.896 171.992 145.668 166.737 142.707L85.6751 97.0168C80.6443 94.1813 80.1833 87.1125 84.8032 83.6476L125.304 53.2716Z" fill="#FCA646"/>
</g>
</svg>
