<svg width="169" height="165" viewBox="0 0 169 165" fill="none" xmlns="http://www.w3.org/2000/svg">
<path d="M82.66 21.2128C82.66 21.2128 107.5 3.71226 130.499 35.2132C153.498 66.7141 144.498 87.7141 144.498 87.7141C144.498 87.7141 139.498 108.214 117.998 120.714C96.498 133.213 67 147 67 147L18 108.5L82.66 21.2128Z" fill="#6EBBB0"/>
<path d="M21.163 105.967C21.163 105.967 72.1652 14.4648 90.664 14.4667C109.163 14.4685 121.662 17.9653 132.663 34.4667C143.664 50.9681 152.164 78.9668 140.664 102.466C114.664 132.466 68.1641 142.467 68.1641 142.467" stroke="black" stroke-width="9" stroke-linecap="round"/>
<path d="M101.652 33.9668C101.652 33.9668 98.1004 51.0148 104.856 68.0694C111.612 85.124 119.663 86.3176 119.663 86.3176" stroke="black" stroke-width="9" stroke-linecap="round"/>
</svg>
