<svg width="710" height="778" viewBox="0 0 720 787" fill="none" xmlns="http://www.w3.org/2000/svg">
<path d="M522.5 245.998C522.5 245.998 562 232.997 578.5 280.497C595 327.997 560.502 343.998 560.502 343.998C560.502 343.998 560.002 327.998 553.002 314.498C546.002 300.998 533.199 290.497 533.199 290.497L522.5 245.998Z" fill="#FDA948"/>
<path d="M518.002 246.5L534.502 244.5C534.502 244.5 544 271 545.5 276C547 281 559.502 334.5 559.502 334.5L537.502 340.5L536.502 330.5L535.498 324.5L518.002 246.5Z" fill="#FB6D13"/>
<path d="M534.5 339.5C534.5 339.5 564 322 569 315.5C574 309 579 299 579 299L581.5 317.5L574 331.5L538 353C537.625 350 534.5 339.5 534.5 339.5Z" fill="#FB6D13"/>
<path d="M537.5 354.5C537.5 354.5 599.5 338.5 578.5 281.999C557.499 225.499 517.5 244.5 517.5 244.5" stroke="black" stroke-width="8"/>
<path d="M552.504 394.5C552.504 394.5 569.504 399.998 575.504 411.498C581.504 422.998 575.504 436.498 575.504 436.498L552.504 459.498V394.5Z" fill="#FDA948"/>
<path d="M539.5 391L552.5 393.5L553.5 458.5C553.5 458.5 559 453 566 446C573 439 578.5 430 578.5 430C578.5 430 579 447.5 575 457C571 466.5 541 480 541 480L539.5 391Z" fill="#FB6D13"/>
<path d="M537.502 386.001C537.502 386.001 583.006 398.997 581.005 434.498C579.004 469.999 540.501 483.5 540.501 483.5" stroke="black" stroke-width="8"/>
<path d="M158.529 354C152.528 341.999 159.499 324 166.499 315C173.499 306 184.999 295 184.999 295C184.999 295 149.999 243.5 189.999 175.501C202.999 155.002 228.499 121.001 306.999 110.501C385.499 100.001 461.499 168.501 461.499 168.501C461.499 168.501 525.499 234.501 526.999 285.501L531.5 333.5C531.5 333.5 530 345.5 531.5 376.5C533 407.5 538.499 437 538.499 437V505.001C549 584 623.499 588.001 623.499 588.001C623.499 588.001 642.5 627 578.999 648.501C515.499 670.002 474.999 614.001 474.999 614.001L464.499 655.501C464.499 655.501 460.5 671.5 402.499 667.001C344.499 662.502 339.499 648.501 339.499 648.501L323.499 604.001L306.499 648.501C306.499 648.501 258.5 667.001 213.499 632.001C168.499 597.001 223.029 406 223.029 406C223.029 406 164.529 366.001 158.529 354Z" fill="#6EBBB0"/>
<path d="M265.499 112.474C264.166 93.0902 274.799 61.7149 325.999 57.7724C377.199 53.8299 391.666 93.9661 393.499 114.5L350.5 101.5L294.5 102.5L265.499 112.474Z" fill="#FDA948"/>
<path d="M265.5 109C265.5 109 276 96.4999 322.5 95.5013C369 94.5028 393 110.001 393 110.001L391.5 121.5C391.5 121.5 371.5 106.001 325 107.5C278.5 108.999 271.5 111.5 271.5 111.5L265.5 109Z" fill="#FB6D13"/>
<path d="M266.585 115.247C265.413 93.3151 275.899 62.6828 329.727 60.5773C383.554 58.4718 394.5 99.8665 394.5 122.5" stroke="black" stroke-width="8" stroke-linejoin="round"/>
<path d="M418.929 134.509C430.215 118.705 457.245 100.221 494.804 125.563C532.363 150.905 517.016 190.123 505.35 207.098L484.071 173.139L445.075 142.847L418.929 134.509Z" fill="#FDA948"/>
<path d="M431.002 125.5L470.001 150.5C487.001 158.999 516.999 190 516.999 190L500.092 211.819C500.092 211.819 487 187.5 462 166C437 144.5 423.655 137.08 423.655 137.08L431.002 125.5Z" fill="#FB6D13"/>
<path d="M517.999 166L514.998 189L505.499 179.499C505.499 179.499 508 175 509 169C510 163 511 151 511 151L517.999 166Z" fill="#FB6D13"/>
<path d="M420.181 134.541C432.304 117.935 462.999 105.521 495.47 129.646C533.433 157.852 515.836 195.532 502.5 212" stroke="black" stroke-width="8" stroke-linejoin="round"/>
<path d="M541.5 508H551.498L567.498 536L586.498 562L595.998 540.5C595.998 540.5 597.998 550 596.998 558C595.998 566 591.999 578.5 591.999 578.5C591.999 578.5 569.999 569.5 555.999 547C541.999 524.5 541.5 508 541.5 508Z" fill="#FB6D13"/>
<path d="M551.5 507.999C551.5 507.999 577 507 586.5 519C596 531 596 540.5 596 540.5L587 562.5C587 562.5 573 546 567 537C561 528 551.5 507.999 551.5 507.999Z" fill="#FDA948"/>
<path d="M541.498 505C541.498 505 579.336 497.5 593.998 524.001C608.659 550.501 595.5 578 595.5 578" stroke="black" stroke-width="8"/>
<path d="M394 255.5C394 255.5 391 245.82 403.999 230.5C416.998 215.18 433.499 215.501 433.499 215.501C477.998 212.5 479.999 241.001 479.999 241.001C479.999 241.001 483.499 269.5 441.999 277C400.499 284.5 394 255.5 394 255.5Z" fill="#FDA948"/>
<path d="M433.917 232.383C433.917 232.383 432.999 229.999 436 228.315C439.001 226.631 440.806 228.316 440.806 228.316L457.585 256.732C457.585 256.732 458.499 260.5 455.999 262C453.499 263.5 450.696 260.799 450.696 260.799L433.917 232.383Z" fill="black"/>
<path d="M412.499 248.499C412.499 248.499 410.844 244.078 413.891 242.479C416.938 240.881 419.5 244.5 419.5 244.5L429.342 262.211C429.342 262.211 429.588 265.023 427.034 266.429C424.481 267.835 422.316 266.035 422.316 266.035L412.499 248.499Z" fill="black"/>
<g opacity="0.99">
<path d="M241 272C241 272 237.999 244 263.5 246C289 248 290.5 255.002 290.5 255.002C290.5 255.002 302.5 241.502 309.5 241.002C316.5 240.502 326 254 330 253.501C334 253.001 358.5 242.002 358.5 242.002C358.5 242.002 378.5 234.501 381.5 264.5C384.5 294.499 364.5 294.5 364.5 294.5C364.5 294.5 340.501 251.717 307 259.5C273.5 267.283 268.5 297.5 268.5 297.5C268.5 297.5 242.5 301.5 241 272Z" fill="#FCA747"/>
<path d="M312.999 258.001C358.499 251.001 364.499 294 364.499 294C364.499 294 356.999 296 348.999 296.5C340.999 297 331 295 331 295L306.999 283.5C306.999 283.5 289.499 293.001 284.499 294.001C279.499 295.001 268.5 297 268.5 297C268.5 297 267.499 265.001 312.999 258.001Z" fill="#FA6C12"/>
<path d="M331.498 251.501C323.496 251.501 322 238.713 309.499 238.501C296.998 238.29 297.5 253.5 289.497 254.001C281.495 254.503 279.501 244.001 268.501 244.002C257.502 244.002 230.001 250.502 241.501 284.501C253.001 318.5 299.5 285.501 307.5 285.501C315.5 285.502 314 296 347 298C380 300 382.502 278 382.5 263.5C382.498 249 370.496 239.501 360.498 239.501C350.5 239.501 339.5 251.501 331.498 251.501Z" stroke="black" stroke-width="8"/>
</g>
<path d="M379.479 182.5C379.479 182.5 384.502 179.499 386.501 183.499C388.501 187.499 384.667 189.396 384.667 189.396L364.689 204.425C364.689 204.425 359.501 207.5 357.501 204C355.5 200.5 359.501 197.529 359.501 197.529L379.479 182.5Z" fill="black"/>
<path d="M248.298 187.505C248.298 187.505 244.952 182.966 248.711 180.553C252.469 178.139 254.637 181.65 254.637 181.65L270.978 199.344C270.978 199.344 274.769 204.144 271.5 206.5C268.231 208.856 264.639 205.199 264.639 205.199L248.298 187.505Z" fill="black"/>
<path d="M372 209.5C372 209.5 375.5 205 381.5 205C387.5 205 398 211 396 220.5C394 230 387 234.031 381.5 233C376 231.969 371 229.5 368.5 223C366 216.5 372 209.5 372 209.5Z" fill="black"/>
<path d="M231.5 218.5C231.5 212.5 235.5 205 245 205C254.5 205 258.5 211.5 258.5 218.5C258.5 225.5 253 230.5 245 230.5C237 230.5 231.5 224.5 231.5 218.5Z" fill="black"/>
<path d="M396.5 482C396.5 518.727 362.474 548.5 320.5 548.5C278.526 548.5 244.5 518.727 244.5 482C244.5 445.273 278.526 397.5 320.5 397.5C362.474 397.5 396.5 445.273 396.5 482Z" fill="#A0D3C6"/>
<path d="M381.5 215.5H383.5L384.5 216.5V217.5H385.5V221.5H384.5V222.5H383.5V223.5H381.5V222.5H379.5V221.5H378.5V220.5H377.5V217.5H378.5V216.5H379.5V215.5H381.5Z" fill="white"/>
<path d="M243.5 214.5H244.5V215.5H245.5V216.5H246.5V217.5H248.5V219.5H247.5V220.5H243.5V219.5H241.5V216.5H242.5V215.5H243.5V214.5Z" fill="white"/>
<path d="M461.988 292C461.988 292 458.436 309.048 465.192 326.103C471.948 343.157 479.999 344.351 479.999 344.351" stroke="black" stroke-width="9" stroke-linecap="round"/>
<path d="M381.499 364C381.499 364 432.501 272.498 451 272.5C469.499 272.502 481.998 275.998 492.999 292.5C504 309.001 512.5 337 501 360.499C475 390.499 428.5 400.5 428.5 400.5" stroke="black" stroke-width="9" stroke-linecap="round"/>
<path d="M397.033 485.398C394.341 509.848 385.81 525.126 373.294 534.467C360.593 543.947 342.889 548 320.499 548C297.866 548 279.701 544.865 266.691 535.585C254.004 526.535 245.181 510.855 242.993 483.2C242.327 460.741 251.05 438.487 265.411 421.843C279.8 405.167 299.495 394.5 320.499 394.5C362.876 394.5 402.31 437.466 397.033 485.398Z" stroke="black" stroke-width="11"/>
<path d="M323.5 505.5L303.691 484.227" stroke="black" stroke-width="6" stroke-linecap="round"/>
<path d="M322.498 487.5L301.497 507.19" stroke="black" stroke-width="6" stroke-linecap="round"/>
<path d="M224.5 403.998C224.5 403.998 173.974 375.5 163.501 362.5C153.027 349.5 151.906 331.999 161 316.499C170.094 300.999 192.5 288 210.5 292C228.5 296 248 367.499 248 367.499" stroke="black" stroke-width="8" stroke-linecap="round"/>
<path d="M471 645.5C471 645.5 459 669 403.501 667.5C371.469 667.5 345.001 660 344.001 655C340 647 371.469 634 403.501 634C435.534 634 471 645.5 471 645.5Z" fill="#2F8A7A"/>
<path d="M622 594.5C622 594.5 629.996 651.5 555.496 649C506 658 488 625 487 620C482.999 612 523.464 633.5 555.496 633.5C584 633.5 622 594.5 622 594.5Z" fill="#2F8A7A"/>
<path d="M310 642.5C310 642.5 315.166 652.5 259.667 651C227.635 651 219 643 218 638C213.999 630 227.635 624 259.667 624C291.7 624 310 642.5 310 642.5Z" fill="#2F8A7A"/>
<path d="M534 331L537.998 505.5C537.998 505.5 538.935 518.5 551 540.5C580.5 594.294 625.498 585.001 625.498 585.001C625.498 585.001 630.496 621.002 604.497 638.002C578.498 655.001 527.499 653.501 512.999 647.002C498.499 640.503 480.998 614.002 476.998 614.502C472.998 615.002 472.261 644.62 467.998 651.002C463.735 657.384 455.736 667.391 403.498 667.001C351.259 666.611 344.999 656.002 339.997 648.501C334.995 641.001 333.997 606.402 324.998 605.502C315.999 604.602 316.497 638.502 310.498 646.001C304.498 653.501 294.999 653.002 261.497 651.002C227.996 649.002 213.997 634.501 213.997 634.501C213.997 634.501 194.999 614.502 195.497 547.502C195.996 480.502 223.5 403.5 223.5 403.5" stroke="black" stroke-width="8"/>
<path d="M534 331.5C534 331.5 521.998 238.5 490.999 198.5C469.5 172 390.998 102.5 321.999 108.5C147.999 114.5 169.5 272.5 182.001 295" stroke="black" stroke-width="8"/>
<path d="M148.501 250.5C148.502 247.001 147.819 240.5 158.001 228.5C168.182 216.5 187.501 217.001 206 226C224.5 234.999 223 255 223 255C223 255 225.5 274.998 191.5 279.998C157.5 284.998 148.5 253.998 148.501 250.5Z" fill="#FDA948"/>
<path d="M184.731 235.427C184.731 235.427 184.276 233.007 187.524 231.87C190.772 230.734 192.224 232.626 192.224 232.626L203.35 262.392C203.35 262.392 203.544 266.133 200.82 267.172C198.096 268.212 195.856 265.193 195.856 265.193L184.731 235.427Z" fill="black"/>
<path d="M160.623 241.799C160.623 241.799 159.125 236.3 162.53 234.972C165.935 233.644 168.469 238.364 168.469 238.364L177.5 260.498C177.5 260.498 178.026 264.321 175.168 265.513C172.309 266.704 170.085 264.196 170.085 264.196L160.623 241.799Z" fill="black"/>
<path d="M17.5448 101.846C19.253 95.9899 26.1696 93.4936 31.2242 96.9095L116.591 154.601C120.71 157.384 118.685 163.819 113.715 163.743L5.24843 162.08C2.60757 162.04 0.730207 159.496 1.46974 156.961L17.5448 101.846Z" fill="#FCA646"/>
<path d="M166.725 0.38501C169.769 0.182083 172.283 2.72872 172.042 5.7698L163.124 118.056C162.709 123.276 155.567 124.428 153.532 119.603L110.452 17.4296C107.782 11.0987 112.145 4.02364 119.001 3.56661L166.725 0.38501Z" fill="#FCA646"/>
<path d="M71.7174 13.8098C73.6528 12.1163 76.6604 12.6629 77.8762 14.9291L138.209 127.386C141.125 132.822 134.925 138.591 129.713 135.292L24.5494 68.7279C20.032 65.8686 19.5365 59.4681 23.5599 55.9476L71.7174 13.8098Z" fill="#FCA646"/>
</svg>
