<svg width="482" height="616" viewBox="0 0 482 616" fill="none" xmlns="http://www.w3.org/2000/svg">
<path d="M374.5 189.998C374.5 189.998 414 176.997 430.5 224.497C447 271.997 412.502 287.998 412.502 287.998C412.502 287.998 412.002 271.998 405.002 258.498C398.002 244.998 385.199 234.497 385.199 234.497L374.5 189.998Z" fill="#FDA948"/>
<path d="M370.002 190.5L386.502 188.5C386.502 188.5 396 215 397.5 220C399 225 411.502 278.5 411.502 278.5L389.502 284.5L388.502 274.5L387.498 268.5L370.002 190.5Z" fill="#FB6D13"/>
<path d="M386.5 283.5C386.5 283.5 416 266 421 259.5C426 253 431 243 431 243L433.5 261.5L426 275.5L390 297C389.625 294 386.5 283.5 386.5 283.5Z" fill="#FB6D13"/>
<path d="M389.5 298.5C389.5 298.5 451.5 282.5 430.5 225.999C409.499 169.499 369.5 188.5 369.5 188.5" stroke="black" stroke-width="8"/>
<path d="M404.504 338.5C404.504 338.5 421.504 343.998 427.504 355.498C433.504 366.998 427.504 380.498 427.504 380.498L404.504 403.498V338.5Z" fill="#FDA948"/>
<path d="M391.5 335L404.5 337.5L405.5 402.5C405.5 402.5 411 397 418 390C425 383 430.5 374 430.5 374C430.5 374 431 391.5 427 401C423 410.5 393 424 393 424L391.5 335Z" fill="#FB6D13"/>
<path d="M389.502 330.001C389.502 330.001 435.006 342.997 433.005 378.498C431.004 413.999 392.501 427.5 392.501 427.5" stroke="black" stroke-width="8"/>
<path d="M75.0279 350L90.5008 297C90.5008 297 41 253.5 34.9999 240C28.9998 226.5 15.9996 196 41.9995 119.501C54.9995 99.0017 80.4993 65.0008 158.999 54.5008C237.499 44.0008 313.5 112.501 313.5 112.501C313.5 112.501 377.5 178.501 379 229.501L383.501 277.5C383.501 277.5 382.001 289.5 383.501 320.5C385.001 351.5 390.5 381 390.5 381V449.001C401 528 475.5 532.001 475.5 532.001C475.5 532.001 494.5 571 431 592.501C367.499 614.002 327 558.001 327 558.001L316.5 599.501C316.5 599.501 312.5 615.5 254.5 611.001C196.499 606.502 191.499 592.501 191.499 592.501L175.499 548.001L158.499 592.501C158.499 592.501 110.5 611.001 65.4995 576.001C20.4989 541.001 75.029 350 75.029 350H75.0279Z" fill="#6EBBB0"/>
<path d="M117.499 56.4741C116.166 37.0902 126.799 5.71492 177.999 1.77241C229.199 -2.17009 243.666 37.9661 245.499 58.5L202.5 45.5L146.5 46.5L117.499 56.4741Z" fill="#FDA948"/>
<path d="M117.5 53C117.5 53 128 40.4999 174.5 39.5013C221 38.5028 245 54.0013 245 54.0013L243.5 65.5C243.5 65.5 223.5 50.0013 177 51.5C130.5 52.9987 123.5 55.5 123.5 55.5L117.5 53Z" fill="#FB6D13"/>
<path d="M118.585 59.2473C117.413 37.3151 127.899 6.68284 181.727 4.57734C235.554 2.47184 246.5 43.8665 246.5 66.5" stroke="black" stroke-width="8" stroke-linejoin="round"/>
<path d="M270.929 78.5092C282.215 62.7053 309.245 44.2214 346.804 69.5634C384.363 94.9053 369.016 134.123 357.35 151.098L336.071 117.139L297.075 86.8474L270.929 78.5092Z" fill="#FDA948"/>
<path d="M283.002 69.4999L322.001 94.5003C339.001 102.999 368.999 134 368.999 134L352.092 155.819C352.092 155.819 339 131.5 314 110C289 88.5 275.655 81.08 275.655 81.08L283.002 69.4999Z" fill="#FB6D13"/>
<path d="M369.999 110L366.998 133L357.499 123.499C357.499 123.499 360 119 361 113C362 107 363 95 363 95L369.999 110Z" fill="#FB6D13"/>
<path d="M272.181 78.5405C284.304 61.9355 314.999 49.5212 347.47 73.6461C385.433 101.852 367.836 139.532 354.5 156" stroke="black" stroke-width="8" stroke-linejoin="round"/>
<path d="M393.5 452H403.498L419.498 480L438.498 506L447.998 484.5C447.998 484.5 449.998 494 448.998 502C447.998 510 443.999 522.5 443.999 522.5C443.999 522.5 421.999 513.5 407.999 491C393.999 468.5 393.5 452 393.5 452Z" fill="#FB6D13"/>
<path d="M403.5 451.999C403.5 451.999 429 451 438.5 463C448 475 448 484.5 448 484.5L439 506.5C439 506.5 425 490 419 481C413 472 403.5 451.999 403.5 451.999Z" fill="#FDA948"/>
<path d="M393.498 449C393.498 449 431.336 441.5 445.998 468.001C460.659 494.501 447.5 522 447.5 522" stroke="black" stroke-width="8"/>
<path d="M246 199.5C246 199.5 243 189.82 255.999 174.5C268.998 159.18 285.499 159.501 285.499 159.501C329.998 156.5 331.999 185.001 331.999 185.001C331.999 185.001 335.499 213.5 293.999 221C252.499 228.5 246 199.5 246 199.5Z" fill="#FDA948"/>
<path d="M285.917 176.383C285.917 176.383 284.999 173.999 288 172.315C291.001 170.631 292.806 172.316 292.806 172.316L309.585 200.732C309.585 200.732 310.499 204.5 307.999 206C305.499 207.5 302.696 204.799 302.696 204.799L285.917 176.383Z" fill="black"/>
<path d="M264.499 192.499C264.499 192.499 262.844 188.078 265.891 186.479C268.938 184.881 271.5 188.5 271.5 188.5L281.342 206.211C281.342 206.211 281.588 209.023 279.034 210.429C276.481 211.835 274.316 210.035 274.316 210.035L264.499 192.499Z" fill="black"/>
<g opacity="0.99">
<path d="M92.9995 216C92.9995 216 89.9991 188 115.5 190C141 192 142.5 199.002 142.5 199.002C142.5 199.002 154.5 185.502 161.5 185.002C168.5 184.502 178 198 182 197.501C186 197.001 210.5 186.002 210.5 186.002C210.5 186.002 230.5 178.501 233.5 208.5C236.5 238.499 216.5 238.5 216.5 238.5C216.5 238.5 192.501 195.717 159 203.5C125.5 211.283 120.5 241.5 120.5 241.5C120.5 241.5 94.4995 245.5 92.9995 216Z" fill="#FCA747"/>
<path d="M164.999 202.001C210.499 195.001 216.499 238 216.499 238C216.499 238 208.999 240 200.999 240.5C192.999 241 183 239 183 239L158.999 227.5C158.999 227.5 141.499 237.001 136.499 238.001C131.499 239.001 120.5 241 120.5 241C120.5 241 119.499 209.001 164.999 202.001Z" fill="#FA6C12"/>
<path d="M183.498 195.501C175.496 195.501 174 182.713 161.499 182.501C148.998 182.29 149.5 197.5 141.497 198.001C133.495 198.503 131.501 188.001 120.501 188.002C109.502 188.002 82.0013 194.502 93.501 228.501C105.001 262.5 151.5 229.501 159.5 229.501C167.5 229.502 166 240 199 242C232 244 234.502 222 234.5 207.5C234.498 193 222.496 183.501 212.498 183.501C202.5 183.501 191.5 195.501 183.498 195.501Z" stroke="black" stroke-width="8"/>
</g>
<path d="M231.479 126.5C231.479 126.5 236.502 123.499 238.501 127.499C240.501 131.499 236.667 133.396 236.667 133.396L216.689 148.425C216.689 148.425 211.501 151.5 209.501 148C207.5 144.5 211.501 141.529 211.501 141.529L231.479 126.5Z" fill="black"/>
<path d="M100.298 131.505C100.298 131.505 96.9518 126.966 100.711 124.553C104.469 122.139 106.637 125.65 106.637 125.65L122.978 143.344C122.978 143.344 126.769 148.144 123.5 150.5C120.231 152.856 116.639 149.199 116.639 149.199L100.298 131.505Z" fill="black"/>
<path d="M224 153.5C224 153.5 227.5 149 233.5 149C239.5 149 250 155 248 164.5C246 174 239 178.031 233.5 177C228 175.969 223 173.5 220.5 167C218 160.5 224 153.5 224 153.5Z" fill="black"/>
<path d="M83.5 162.5C83.5 156.5 87.5 149 97 149C106.5 149 110.5 155.5 110.5 162.5C110.5 169.5 105 174.5 97 174.5C89 174.5 83.5 168.5 83.5 162.5Z" fill="black"/>
<path d="M248.5 426C248.5 462.727 214.474 492.5 172.5 492.5C130.526 492.5 96.5 462.727 96.5 426C96.5 389.273 130.526 341.5 172.5 341.5C214.474 341.5 248.5 389.273 248.5 426Z" fill="#A0D3C6"/>
<path d="M233.5 159.5H235.5L236.5 160.5V161.5H237.5V165.5H236.5V166.5H235.5V167.5H233.5V166.5H231.5V165.5H230.5V164.5H229.5V161.5H230.5V160.5H231.5V159.5H233.5Z" fill="white"/>
<path d="M95.5 158.5H96.5V159.5H97.5V160.5H98.5V161.5H100.5V163.5H99.5V164.5H95.5V163.5H93.5V160.5H94.5V159.5H95.5V158.5Z" fill="white"/>
<path d="M249.033 429.398C246.341 453.848 237.81 469.126 225.294 478.467C212.593 487.947 194.889 492 172.499 492C149.866 492 131.701 488.865 118.691 479.585C106.004 470.535 97.1806 454.855 94.9927 427.2C94.3268 404.741 103.05 382.487 117.411 365.843C131.8 349.167 151.495 338.5 172.499 338.5C214.876 338.5 254.31 381.466 249.033 429.398Z" stroke="black" stroke-width="11"/>
<path d="M175.5 449.5L155.691 428.227" stroke="black" stroke-width="6" stroke-linecap="round"/>
<path d="M174.498 431.5L153.497 451.19" stroke="black" stroke-width="6" stroke-linecap="round"/>
<path d="M323 589.5C323 589.5 311 613 255.501 611.5C223.469 611.5 197.001 604 196.001 599C192 591 223.469 578 255.501 578C287.534 578 323 589.5 323 589.5Z" fill="#2F8A7A"/>
<path d="M474 538.5C474 538.5 481.996 595.5 407.496 593C358 602 340 569 339 564C334.999 556 375.464 577.5 407.496 577.5C436 577.5 474 538.5 474 538.5Z" fill="#2F8A7A"/>
<path d="M162 586.5C162 586.5 167.166 596.5 111.667 595C79.6349 595 71 587 70 582C65.9989 574 79.6348 568 111.667 568C143.7 568 162 586.5 162 586.5Z" fill="#2F8A7A"/>
<path fill-rule="evenodd" clip-rule="evenodd" d="M35.7549 233.122C33.6798 227.474 30.6089 214.12 29.9184 197.043C29.2298 180.015 30.921 159.56 38.1359 139.612C45.3345 119.71 58.0321 100.297 79.4452 85.1918C100.879 70.0719 131.304 59.085 174.238 56.4941L174.366 56.4864L174.494 56.4705C205.031 52.6535 240.879 67.8486 272.281 87.9336C303.519 107.913 329.409 132.114 339.864 144.987C354.779 164.256 365.369 196.731 372.237 224.947C375.647 238.962 378.099 251.745 379.697 261.024C380.496 265.662 381.081 269.42 381.466 272.014C381.658 273.311 381.8 274.316 381.894 274.995C381.941 275.334 381.976 275.591 381.999 275.763L382.02 275.925L385.999 449.593L386.001 449.691L386.008 449.789L389.998 449.501C386.008 449.789 386.008 449.791 386.008 449.792L386.008 449.796L386.009 449.804L386.011 449.824L386.015 449.877L386.019 449.921C386.022 449.956 386.026 449.996 386.03 450.041C386.043 450.176 386.063 450.36 386.092 450.593C386.149 451.06 386.243 451.723 386.394 452.573C386.695 454.275 387.221 456.727 388.133 459.867C389.958 466.149 393.321 475.17 399.493 486.425C414.76 514.264 434.247 526.067 450.181 530.762C458.092 533.093 465.037 533.647 470.032 533.614C471.464 533.605 472.737 533.547 473.831 533.469C473.849 533.932 473.864 534.431 473.873 534.962C473.932 538.413 473.753 543.175 472.81 548.42C470.915 558.96 466.035 570.988 454.308 578.655C442.19 586.579 423.787 590.397 406.225 591.321C397.521 591.779 389.19 591.517 382.19 590.753C375.094 589.978 369.684 588.72 366.635 587.353C363.58 585.984 360.135 583.439 356.505 580.149C352.912 576.894 349.346 573.106 346.024 569.442C344.966 568.275 343.92 567.107 342.905 565.972L342.902 565.969C340.798 563.618 338.825 561.413 337.149 559.678C335.902 558.387 334.673 557.199 333.549 556.328C332.989 555.895 332.337 555.446 331.629 555.107C330.987 554.799 329.857 554.365 328.502 554.534C326.992 554.723 325.948 555.557 325.34 556.218C324.735 556.877 324.316 557.62 324.021 558.244C323.429 559.498 322.979 561.047 322.612 562.598C321.866 565.746 321.242 569.877 320.639 573.965L320.49 574.978C319.926 578.817 319.367 582.627 318.717 585.899C318.364 587.674 318.001 589.21 317.62 590.451C317.222 591.75 316.88 592.47 316.672 592.782C315.679 594.268 314.626 595.725 312.886 597.195C311.139 598.671 308.541 600.288 304.388 601.777C295.983 604.792 281.476 607.196 255.528 607.002C229.574 606.808 215.572 604.064 207.574 600.727C203.642 599.087 201.193 597.314 199.477 595.64C197.808 594.012 196.726 592.387 195.515 590.569L195.325 590.283C195.018 589.824 194.591 588.896 194.101 587.339C193.63 585.841 193.176 584.005 192.717 581.896C192.194 579.492 191.72 577.001 191.223 574.397C190.814 572.254 190.391 570.034 189.914 567.72C188.912 562.859 187.727 557.889 186.133 554.023C185.338 552.092 184.347 550.201 183.057 548.697C181.748 547.171 179.881 545.772 177.396 545.523C174.827 545.266 172.724 546.341 171.215 547.843C169.814 549.238 168.826 551.075 168.084 552.866C166.593 556.466 165.563 561.236 164.692 565.864C164.383 567.508 164.092 569.138 163.808 570.735C163.259 573.821 162.731 576.787 162.124 579.516C161.672 581.554 161.204 583.316 160.701 584.745C160.18 586.225 159.711 587.083 159.374 587.504C157.324 590.066 154.705 591.562 148.004 592.077C141.035 592.614 130.629 592.019 113.736 591.011C97.5433 590.044 86.1986 586.068 78.9849 582.432C75.3718 580.61 72.7797 578.866 71.1235 577.611C70.2951 576.984 69.7005 576.479 69.3292 576.147C69.1436 575.981 69.0138 575.859 68.9385 575.786L68.8938 575.743C68.8855 575.733 68.8752 575.721 68.8631 575.708C68.8523 575.695 68.84 575.681 68.8262 575.665C68.7334 575.556 68.5745 575.364 68.3589 575.082C67.9277 574.518 67.2685 573.594 66.4562 572.256C64.8324 569.58 62.5905 565.24 60.3355 558.805C55.8254 545.936 51.251 524.655 51.4974 491.533C51.7431 458.497 58.6584 422.851 65.5651 395.352C69.0123 381.627 72.444 369.982 75.0122 361.774C76.296 357.671 77.3634 354.429 78.1081 352.217C78.3531 351.49 78.5632 350.874 78.7345 350.375L78.7534 350.382C80.5761 345.435 84.2528 332.484 87.4186 321.001C89.0152 315.209 90.5019 309.717 91.5893 305.673C92.133 303.65 92.577 301.989 92.8852 300.834C92.9821 300.471 93.0655 300.158 93.1344 299.899L93.2412 299.497L93.3343 299.147L93.3582 299.057L93.3642 299.034L93.3658 299.028L93.3662 299.027C93.3663 299.027 93.3663 299.026 89.4999 298.001L93.3663 299.026L94.0458 296.463L91.9497 294.839L91.9494 294.839L91.9488 294.839L91.9438 294.835L91.921 294.817L91.8247 294.742C91.7383 294.675 91.608 294.572 91.4364 294.437C91.0931 294.167 90.5848 293.764 89.9322 293.24C88.6268 292.193 86.7454 290.662 84.4549 288.741C79.8708 284.897 73.6637 279.502 67.1632 273.296C60.6549 267.082 53.9002 260.1 48.1961 253.08C42.4513 246.011 37.9634 239.133 35.7549 233.122ZM71.7555 346.165C73.5777 340.765 76.7921 329.445 79.7063 318.875C81.2971 313.104 82.7791 307.629 83.8636 303.595C84.2994 301.975 84.6709 300.587 84.9593 299.507L84.9248 299.479C83.58 298.4 81.6538 296.833 79.3143 294.871C74.6384 290.95 68.2961 285.438 61.6387 279.082C54.9891 272.733 47.9773 265.497 41.9875 258.126C36.0384 250.805 30.905 243.119 28.2456 235.881C25.8203 229.279 22.6408 215.07 21.9249 197.366C21.207 179.613 22.9531 158.068 30.6129 136.891C38.2891 115.668 51.9036 94.8304 74.8337 78.6547C97.7213 62.5089 129.631 51.1895 173.63 48.5163C207.063 44.3916 244.909 60.9301 276.592 81.1942C308.451 101.572 335.041 126.345 346.104 139.981L346.132 140.016L346.16 140.051C362.229 160.786 373.13 194.789 380.01 223.056C383.474 237.291 385.96 250.258 387.581 259.666C388.392 264.372 388.986 268.192 389.379 270.84C389.576 272.165 389.722 273.196 389.819 273.9C389.867 274.251 389.904 274.521 389.928 274.704L389.956 274.911L389.999 274.91L393.994 449.278C394 449.347 394.012 449.458 394.031 449.613C394.072 449.943 394.146 450.468 394.271 451.18C394.523 452.603 394.985 454.776 395.816 457.636C397.477 463.354 400.615 471.833 406.507 482.578C420.74 508.533 438.502 518.981 452.442 523.088C459.468 525.158 465.615 525.643 469.98 525.614C472.16 525.6 473.887 525.458 475.047 525.324C475.626 525.256 476.062 525.192 476.341 525.146C476.48 525.123 476.58 525.106 476.639 525.095L476.678 525.087L476.689 525.085L476.693 525.085L476.695 525.084L476.696 525.084L476.7 525.083L480.872 524.221L481.459 528.453L477.498 529.003C481.459 528.453 481.46 528.454 481.46 528.456L481.461 528.46L481.462 528.471L481.466 528.503C481.47 528.529 481.474 528.563 481.48 528.606C481.488 528.671 481.498 528.756 481.51 528.861L481.522 528.962C481.556 529.265 481.601 529.698 481.647 530.246C481.74 531.343 481.839 532.905 481.872 534.825C481.937 538.656 481.741 543.956 480.684 549.836C478.578 561.546 472.958 576.019 458.686 585.351C444.805 594.427 424.708 598.359 406.646 599.31C397.538 599.789 388.775 599.52 381.322 598.706C373.965 597.903 367.563 596.536 363.363 594.654C359.167 592.773 354.987 589.569 351.133 586.078C347.241 582.551 343.463 578.527 340.098 574.816C338.943 573.542 337.849 572.32 336.816 571.166L336.799 571.147C334.766 568.874 332.966 566.863 331.394 565.236C331.053 564.882 330.734 564.56 330.438 564.268C330.424 564.325 330.41 564.383 330.396 564.442C329.746 567.188 329.169 570.954 328.554 575.131L328.4 576.179C327.844 579.967 327.255 583.977 326.564 587.457C326.185 589.365 325.76 591.193 325.269 592.796C324.795 594.34 324.182 595.942 323.324 597.225C322.185 598.931 320.64 601.117 318.049 603.306C315.465 605.489 311.998 607.547 307.089 609.308C297.37 612.794 281.758 615.198 255.468 615.002C229.183 614.806 213.936 612.05 204.493 608.11C199.706 606.113 196.387 603.802 193.89 601.366C191.598 599.129 190.093 596.865 188.918 595.097L188.855 595.001C188.792 594.906 188.73 594.813 188.669 594.722C187.725 593.307 187.027 591.512 186.469 589.738C185.893 587.905 185.379 585.8 184.9 583.596C184.383 581.216 183.855 578.458 183.324 575.687L183.323 575.684C182.909 573.516 182.492 571.342 182.079 569.335C181.081 564.497 180.017 560.179 178.737 557.071C178.095 555.514 177.492 554.496 176.986 553.907C176.889 553.794 176.806 553.709 176.738 553.644C176.422 554.011 175.977 554.716 175.475 555.928C174.341 558.665 173.433 562.671 172.554 567.343C172.279 568.807 172.005 570.342 171.728 571.894L171.727 571.901L171.727 571.903C171.158 575.095 170.576 578.364 169.934 581.252C169.449 583.434 168.901 585.543 168.247 587.4C167.612 589.206 166.784 591.048 165.621 592.502C161.671 597.439 156.541 599.444 148.618 600.054C140.962 600.643 129.867 599.988 113.259 598.997C95.95 597.963 83.5447 593.689 75.3837 589.575C71.3095 587.521 68.3081 585.515 66.2927 583.988C65.2852 583.225 64.5245 582.582 63.9994 582.113C63.7368 581.878 63.5331 581.687 63.387 581.546C63.3139 581.476 63.2552 581.418 63.2107 581.373C63.1884 581.351 63.1697 581.332 63.1545 581.317L63.1344 581.296L63.1263 581.288L63.1227 581.284C63.1211 581.283 63.1195 581.281 65.9974 578.503C63.0973 581.258 63.0949 581.255 63.0925 581.253L63.0874 581.247L63.0757 581.235L63.0474 581.205C63.0263 581.182 63.0008 581.154 62.971 581.121C62.9114 581.055 62.8347 580.968 62.742 580.859C62.5568 580.642 62.308 580.339 62.0052 579.943C61.3993 579.151 60.5782 577.99 59.6172 576.406C57.6944 573.238 55.2179 568.391 52.7856 561.451C47.9212 547.571 43.2456 525.353 43.4976 491.474C43.7502 457.51 50.8361 421.155 57.8061 393.403C61.2973 379.503 64.7728 367.709 67.3772 359.385C68.6796 355.223 69.7649 351.926 70.5263 349.664C70.9071 348.534 71.2069 347.662 71.4124 347.07C71.4761 346.887 71.5307 346.73 71.5759 346.602L71.6484 346.395L71.7103 346.22L71.7266 346.174L71.7311 346.161L71.7324 346.158C71.7325 346.158 71.7326 346.157 71.7555 346.165ZM65.9974 578.503L63.1195 581.281L63.1084 581.269L63.0973 581.258L65.9974 578.503ZM68.9198 575.772C68.9226 575.775 68.9209 575.773 68.9148 575.766L68.9198 575.772ZM176.487 553.457C176.487 553.456 176.495 553.458 176.509 553.466C176.494 553.461 176.487 553.457 176.487 553.457Z" fill="black"/>
<path d="M0.501437 194.5C0.502463 191.001 -0.180906 184.5 10.0006 172.5C20.1821 160.5 39.5008 161.001 58.0004 170C76.5 178.999 75.0004 199 75.0004 199C75.0004 199 77.5004 218.998 43.5004 223.998C9.50041 228.998 0.500412 197.998 0.501437 194.5Z" fill="#FDA948"/>
<path d="M36.7307 179.427C36.7307 179.427 36.2758 177.007 39.5241 175.87C42.7724 174.734 44.2244 176.626 44.2244 176.626L55.3501 206.392C55.3501 206.392 55.544 210.133 52.82 211.172C50.0961 212.212 47.8565 209.193 47.8565 209.193L36.7307 179.427Z" fill="black"/>
<path d="M12.6226 185.799C12.6226 185.799 11.1246 180.3 14.53 178.972C17.9354 177.644 20.4685 182.364 20.4685 182.364L29.5 204.498C29.5 204.498 30.0261 208.321 27.1676 209.513C24.3092 210.704 22.0851 208.196 22.0851 208.196L12.6226 185.799Z" fill="black"/>
</svg>
