<svg width="699" height="787" viewBox="0 0 720 787" fill="none" xmlns="http://www.w3.org/2000/svg">
<g opacity="0.99">
<path d="M555.5 255C555.5 255 595 241.999 611.5 289.499C628 336.999 593.502 353 593.502 353C593.502 353 593.002 337 586.002 323.5C579.002 310 566.199 299.499 566.199 299.499L555.5 255Z" fill="#FDA948"/>
<path d="M551.002 255.5L567.502 253.5C567.502 253.5 577 280 578.5 285C580 290 592.502 343.5 592.502 343.5L579.5 352L570 351.5L568.498 333.5L551.002 255.5Z" fill="#FB6D13"/>
<path d="M591 338C591 338 599 330.5 604 324C609 317.5 612 308 612 308L614.5 326.5L608 343L572.999 365.5C572.999 365.5 571.874 357 571.499 354C571.124 351 591 338 591 338Z" fill="#FB6D13"/>
<path d="M573 363.499C573 363.499 631.5 357 611.5 291C596 244 552 253.5 552 253.5" stroke="black" stroke-width="8"/>
<path d="M585.502 403.5C585.502 403.5 602.502 408.998 608.502 420.498C614.502 431.998 608.502 445.498 608.502 445.498L585.502 468.498V403.5Z" fill="#FDA948"/>
<path d="M574 400.5L585.5 402.5L586.5 467.5C586.5 467.5 592 462 599 455C606 448 611.5 439 611.5 439C611.5 439 612 456.5 608 466C604 475.5 574 489 574 489V400.5Z" fill="#FB6D13"/>
<path d="M580.001 397.5C580.001 397.5 616.004 407.997 614.004 443.498C612.003 478.998 573.5 492.5 573.5 492.5" stroke="black" stroke-width="8"/>
<path d="M198.5 468C184 459.5 176.5 437.5 179 421.5C181.5 405.5 191 399.501 204 397.5C217 395.499 268 392.5 268 392.5L271.499 364.001L220.5 317.5C220.5 317.5 182.999 252.5 222.999 184.501C235.999 164.002 261.499 130.001 339.999 119.501C418.499 109.001 494.499 177.501 494.499 177.501C494.499 177.501 558.499 243.501 559.999 294.501L569 383.5C569 383.5 607 388.5 608.5 419.5C610 450.5 571.499 466.5 571.499 466.5V514.001C582 593 656.499 597.001 656.499 597.001C656.499 597.001 675.5 636 611.999 657.501C548.498 679.002 507.999 623.001 507.999 623.001L497.499 664.501C497.499 664.501 493.5 680.5 435.499 676.001C377.499 671.502 372.499 657.501 372.499 657.501L356.499 613.001L339.499 657.501C339.499 657.501 278.5 671.5 246.499 641.001C214.498 610.502 242 473 242 473C242 473 213 476.5 198.5 468Z" fill="#6EBBB0"/>
<path d="M298.499 121.474C297.166 102.09 307.799 70.7149 358.999 66.7724C410.199 62.8299 424.666 102.966 426.499 123.5L383.5 110.5L327.5 111.5L298.499 121.474Z" fill="#FDA948"/>
<path d="M298.5 118C298.5 118 309 105.5 355.5 104.501C402 103.503 426 119.001 426 119.001L424.5 130.5C424.5 130.5 404.5 115.001 358 116.5C311.5 117.999 304.5 120.5 304.5 120.5L298.5 118Z" fill="#FB6D13"/>
<path d="M299.585 124.247C298.413 102.315 308.899 71.6828 362.727 69.5773C416.554 67.4718 427.5 108.866 427.5 131.5" stroke="black" stroke-width="8" stroke-linejoin="round"/>
<path d="M451.929 143.509C463.215 127.705 490.245 109.221 527.804 134.563C565.363 159.905 550.016 199.123 538.35 216.098L517.071 182.139L478.075 151.847L451.929 143.509Z" fill="#FDA948"/>
<path d="M464.002 134.5L503.001 159.5C520.001 167.999 549.999 199 549.999 199L533.092 220.819C533.092 220.819 520 196.5 495 175C470 153.5 456.655 146.08 456.655 146.08L464.002 134.5Z" fill="#FB6D13"/>
<path d="M550.999 175L547.998 198L538.499 188.499C538.499 188.499 541 184 542 178C543 172 544 160 544 160L550.999 175Z" fill="#FB6D13"/>
<path d="M453.181 143.539C465.305 126.934 496 114.519 528.47 138.644C566.433 166.85 549.511 203.015 536.176 219.483" stroke="black" stroke-width="8" stroke-linejoin="round"/>
<path d="M574.5 517H584.498L600.498 545L619.498 571L628.998 549.5C628.998 549.5 630.998 559 629.998 567C628.998 575 624.999 587.5 624.999 587.5C624.999 587.5 602.999 578.5 588.999 556C574.999 533.5 574.5 517 574.5 517Z" fill="#FB6D13"/>
<path d="M584.5 516.999C584.5 516.999 610 516 619.5 528C629 540 629 549.5 629 549.5L620 571.5C620 571.5 606 555 600 546C594 537 584.5 516.999 584.5 516.999Z" fill="#FDA948"/>
<path d="M574.498 514C574.498 514 612.336 506.5 626.998 533.001C641.659 559.501 628.5 587 628.5 587" stroke="black" stroke-width="8"/>
<path d="M427 264.5C427 264.5 424 254.82 436.999 239.5C449.998 224.18 466.499 224.501 466.499 224.501C510.998 221.5 512.999 250.001 512.999 250.001C512.999 250.001 516.499 278.5 474.999 286C433.499 293.5 427 264.5 427 264.5Z" fill="#FDA948"/>
<path d="M466.917 241.383C466.917 241.383 465.999 238.999 469 237.315C472.001 235.631 473.806 237.316 473.806 237.316L490.585 265.732C490.585 265.732 491.499 269.5 488.999 271C486.499 272.5 483.696 269.799 483.696 269.799L466.917 241.383Z" fill="black"/>
<path d="M445.499 257.499C445.499 257.499 443.844 253.078 446.891 251.479C449.938 249.881 452.5 253.5 452.5 253.5L462.342 271.211C462.342 271.211 462.588 274.023 460.034 275.429C457.481 276.835 455.316 275.035 455.316 275.035L445.499 257.499Z" fill="black"/>
<g opacity="0.99">
<path d="M274 281C274 281 270.999 253 296.5 255C322 257 323.5 264.002 323.5 264.002C323.5 264.002 335.5 250.502 342.5 250.002C349.5 249.502 359 263 363 262.501C367 262.001 391.5 251.002 391.5 251.002C391.5 251.002 411.5 243.501 414.5 273.5C417.5 303.499 397.5 303.5 397.5 303.5C397.5 303.5 373.501 260.717 340 268.5C306.5 276.283 301.5 306.5 301.5 306.5C301.5 306.5 275.5 310.5 274 281Z" fill="#FCA747"/>
<path d="M345.999 267.001C391.499 260.001 397.499 303 397.499 303C397.499 303 389.999 305 381.999 305.5C373.999 306 364 304 364 304L339.999 292.5C339.999 292.5 322.499 302.001 317.499 303.001C312.499 304.001 301.5 306 301.5 306C301.5 306 300.499 274.001 345.999 267.001Z" fill="#FA6C12"/>
<path d="M364.498 260.501C356.496 260.501 355 247.713 342.499 247.501C329.998 247.29 330.5 262.5 322.497 263.001C314.495 263.503 312.501 253.001 301.501 253.002C290.502 253.002 263.001 259.502 274.501 293.501C286.001 327.5 332.5 294.501 340.5 294.501C348.5 294.502 347 305 380 307C413 309 415.502 287 415.5 272.5C415.498 258 403.496 248.501 393.498 248.501C383.5 248.501 372.5 260.501 364.498 260.501Z" stroke="black" stroke-width="8"/>
</g>
<path d="M412.479 191.5C412.479 191.5 417.502 188.499 419.501 192.499C421.501 196.499 417.667 198.396 417.667 198.396L397.689 213.425C397.689 213.425 392.501 216.5 390.501 213C388.5 209.5 392.501 206.529 392.501 206.529L412.479 191.5Z" fill="black"/>
<path d="M281.298 196.505C281.298 196.505 277.952 191.966 281.711 189.553C285.469 187.139 287.637 190.65 287.637 190.65L303.978 208.344C303.978 208.344 307.769 213.144 304.5 215.5C301.231 217.856 297.639 214.199 297.639 214.199L281.298 196.505Z" fill="black"/>
<path d="M405 218.5C405 218.5 408.5 214 414.5 214C420.5 214 431 220 429 229.5C427 239 420 243.031 414.5 242C409 240.969 404 238.5 401.5 232C399 225.5 405 218.5 405 218.5Z" fill="black"/>
<path d="M264.5 227.5C264.5 221.5 268.5 214 278 214C287.5 214 291.5 220.5 291.5 227.5C291.5 234.5 286 239.5 278 239.5C270 239.5 264.5 233.5 264.5 227.5Z" fill="black"/>
<path d="M429.5 491C429.5 527.727 395.474 557.5 353.5 557.5C311.526 557.5 277.5 527.727 277.5 491C277.5 454.273 311.526 406.5 353.5 406.5C395.474 406.5 429.5 454.273 429.5 491Z" fill="#A0D3C6"/>
<path d="M414.5 224.5H416.5L417.5 225.5V226.5H418.5V230.5H417.5V231.5H416.5V232.5H414.5V231.5H412.5V230.5H411.5V229.5H410.5V226.5H411.5V225.5H412.5V224.5H414.5Z" fill="white"/>
<path d="M276.5 223.5H277.5V224.5H278.5V225.5H279.5V226.5H281.5V228.5H280.5V229.5H276.5V228.5H274.5V225.5H275.5V224.5H276.5V223.5Z" fill="white"/>
<path d="M588.999 416.5C588.999 416.5 577 415.001 561.5 428.501C546 442 546.198 453 546.198 453" stroke="black" stroke-width="9" stroke-linecap="round"/>
<path d="M493.501 367C493.501 367 572.5 378.999 590.001 388.499C607.502 397.999 607.503 413.997 607.501 429.498C607.499 445 580.003 472.997 550.002 476.998C504.002 475.498 478.243 424.499 478.243 424.499" stroke="black" stroke-width="9" stroke-linecap="round"/>
<path d="M430.033 494.398C427.341 518.848 418.81 534.126 406.294 543.467C393.593 552.947 375.889 557 353.499 557C330.866 557 312.701 553.865 299.691 544.585C287.004 535.535 278.181 519.855 275.993 492.2C275.327 469.741 284.05 447.487 298.411 430.843C312.8 414.167 332.495 403.5 353.499 403.5C395.876 403.5 435.31 446.466 430.033 494.398Z" stroke="black" stroke-width="11"/>
<path d="M356.5 514.5L336.691 493.227" stroke="black" stroke-width="6" stroke-linecap="round"/>
<path d="M355.498 496.5L334.497 516.19" stroke="black" stroke-width="6" stroke-linecap="round"/>
<path d="M266.5 450C266.5 450 239.999 488 198.5 463.501C181 451.5 174.233 423.502 179.999 409.501C185.764 395.5 221.999 392.5 221.999 392.5L265.5 390" stroke="black" stroke-width="8" stroke-linecap="round"/>
<path d="M504 654.5C504 654.5 492 678 436.501 676.5C404.469 676.5 378.001 669 377.001 664C373 656 404.469 643 436.501 643C468.534 643 504 654.5 504 654.5Z" fill="#2F8A7A"/>
<path d="M655 603.5C655 603.5 662.996 660.5 588.496 658C539 667 521 634 520 629C515.999 621 556.464 642.5 588.496 642.5C617 642.5 655 603.5 655 603.5Z" fill="#2F8A7A"/>
<path d="M343 651.5C343 651.5 348.166 661.5 292.667 660C260.635 660 252 652 251 647C246.999 639 260.635 633 292.667 633C324.7 633 343 651.5 343 651.5Z" fill="#2F8A7A"/>
<path d="M570.998 467.5L570.998 514.5C570.998 514.5 571.935 527.5 584 549.5C613.5 603.294 658.498 594.001 658.498 594.001C658.498 594.001 663.496 630.002 637.497 647.002C611.498 664.001 560.499 662.501 545.999 656.002C531.499 649.503 513.998 623.002 509.998 623.502C505.998 624.002 505.261 653.62 500.998 660.002C496.735 666.384 488.736 676.391 436.498 676.001C384.259 675.611 377.999 665.002 372.997 657.501C367.995 650.001 366.997 615.402 357.998 614.502C348.999 613.602 349.497 647.502 343.498 655.001C337.498 662.501 327.999 662.002 294.497 660.002C260.996 658.002 246.997 643.501 246.997 643.501C246.997 643.501 229.502 625 230 558C230.498 491 242.5 468.5 242.5 468.5" stroke="black" stroke-width="8"/>
<path d="M265 391.5C265 391.5 272.499 366 272.5 363.5C271.499 361 226.5 340 214.999 306.5C202.498 284 180.997 123.5 354.997 117.5C423.997 111.5 502.499 181 523.998 207.5C562 243.5 572 379 572 379" stroke="black" stroke-width="8"/>
<path d="M181.501 259.5C181.502 256.001 180.819 249.5 191.001 237.5C201.182 225.5 220.501 226.001 239 235C257.5 243.999 256 264 256 264C256 264 258.5 283.998 224.5 288.998C190.5 293.998 181.5 262.998 181.501 259.5Z" fill="#FDA948"/>
<path d="M217.731 244.427C217.731 244.427 217.276 242.007 220.524 240.87C223.772 239.734 225.224 241.626 225.224 241.626L236.35 271.392C236.35 271.392 236.544 275.133 233.82 276.172C231.096 277.212 228.856 274.193 228.856 274.193L217.731 244.427Z" fill="black"/>
<path d="M193.623 250.799C193.623 250.799 192.125 245.3 195.53 243.972C198.935 242.644 201.469 247.364 201.469 247.364L210.5 269.498C210.5 269.498 211.026 273.321 208.168 274.513C205.309 275.704 203.085 273.196 203.085 273.196L193.623 250.799Z" fill="black"/>
<path d="M21.8852 84.5494C23.658 78.6399 30.7163 76.2259 35.7367 79.812L152.076 162.912C156.671 166.193 153.929 173.439 148.313 172.858L4.80836 157.998C2.31239 157.739 0.668016 155.273 1.38906 152.87L21.8852 84.5494Z" fill="#FCA646"/>
<path d="M207.644 0.796507C210.717 0.640932 213.199 3.27073 212.868 6.32932L199.56 129.007C198.997 134.199 191.92 135.289 189.82 130.507L139.745 16.4466C137.212 10.6777 141.238 4.15883 147.531 3.84023L207.644 0.796507Z" fill="#FCA646"/>
<path d="M125.304 53.7716C127.254 52.3096 130.046 52.9154 131.215 55.0538L174.949 135.103C177.841 140.396 171.992 146.168 166.737 143.207L85.6751 97.5168C80.6443 94.6813 80.1833 87.6125 84.8032 84.1476L125.304 53.7716Z" fill="#FCA646"/>
</g>
</svg>
