<svg width="154" height="151" viewBox="0 0 154 151" fill="none" xmlns="http://www.w3.org/2000/svg">
<path d="M28.3435 82.8003C25.2216 78.7713 16.7738 50.2755 44.1078 27.9545C57.6847 16.8673 71.8142 16.593 71.8142 16.593C71.8142 16.593 82.6121 17.1526 91.5907 40.3446C100.569 63.5366 120.968 94.2471 120.968 94.2471L97.6469 134.906C97.6469 134.906 35.6999 96.4527 28.3435 82.8003Z" fill="#6EBBB0"/>
<path d="M94.9693 132.113C94.9693 132.113 22.5972 96.5273 23.4246 73.4274C24.252 50.3276 36.4177 27.1279 53.441 21.369C70.4643 15.6101 73.6482 12.4147 84.3276 22.992C95.0069 33.5693 117.636 92.2088 117.636 92.2088" stroke="black" stroke-width="8" stroke-linecap="round"/>
</svg>
