<svg width="1173" height="361" viewBox="0 0 1173 361" fill="none" xmlns="http://www.w3.org/2000/svg">
<mask id="path-1-inside-1_379_74" fill="white">
<path fill-rule="evenodd" clip-rule="evenodd" d="M3.0005 289C20.8504 333.5 79.5197 315.269 79.5197 315.269C79.5197 315.269 111.879 340.437 163.414 341.636C214.95 342.834 276.073 315.269 276.073 315.269C276.073 315.269 319.219 364.407 417.496 360.812C507.389 357.523 574.172 308.108 584.912 299.701C597.256 309.251 663.375 357.138 751.819 360.374C850.096 363.969 893.242 314.831 893.242 314.831C893.242 314.831 954.365 342.396 1005.9 341.198C1057.44 339.999 1089.8 324.5 1089.8 324.5C1089.8 324.5 1172.5 334.5 1172.5 279.5C1172.5 224.5 1105.5 217 1105.5 217C1105.5 217 1096.99 161.423 1070.62 138.652C1044.25 115.88 986.725 150.637 986.725 150.637C986.725 150.637 948.373 71.5359 883.654 63.1465C818.935 54.7572 751.819 113.483 751.819 113.483C751.819 113.483 716.838 -7.58718 589.435 0.376307C461.984 -7.60172 417.496 113.921 417.496 113.921C417.496 113.921 350.38 55.1951 285.661 63.5845C220.942 71.9738 182.59 151.075 182.59 151.075C182.59 151.075 125.063 116.318 98.6956 139.09C72.3287 161.861 62.4995 212.5 62.4995 212.5C62.4995 212.5 -14.8494 244.5 3.0005 289Z"/>
</mask>
<path fill-rule="evenodd" clip-rule="evenodd" d="M3.0005 289C20.8504 333.5 79.5197 315.269 79.5197 315.269C79.5197 315.269 111.879 340.437 163.414 341.636C214.95 342.834 276.073 315.269 276.073 315.269C276.073 315.269 319.219 364.407 417.496 360.812C507.389 357.523 574.172 308.108 584.912 299.701C597.256 309.251 663.375 357.138 751.819 360.374C850.096 363.969 893.242 314.831 893.242 314.831C893.242 314.831 954.365 342.396 1005.9 341.198C1057.44 339.999 1089.8 324.5 1089.8 324.5C1089.8 324.5 1172.5 334.5 1172.5 279.5C1172.5 224.5 1105.5 217 1105.5 217C1105.5 217 1096.99 161.423 1070.62 138.652C1044.25 115.88 986.725 150.637 986.725 150.637C986.725 150.637 948.373 71.5359 883.654 63.1465C818.935 54.7572 751.819 113.483 751.819 113.483C751.819 113.483 716.838 -7.58718 589.435 0.376307C461.984 -7.60172 417.496 113.921 417.496 113.921C417.496 113.921 350.38 55.1951 285.661 63.5845C220.942 71.9738 182.59 151.075 182.59 151.075C182.59 151.075 125.063 116.318 98.6956 139.09C72.3287 161.861 62.4995 212.5 62.4995 212.5C62.4995 212.5 -14.8494 244.5 3.0005 289Z" fill="white"/>
<path d="M79.5197 315.269L83.8173 309.743L80.9325 307.499L77.4424 308.584L79.5197 315.269ZM276.073 315.269L281.333 310.65L277.916 306.759L273.195 308.888L276.073 315.269ZM417.496 360.812L417.752 367.807L417.752 367.807L417.496 360.812ZM584.912 299.701L589.195 294.165L584.886 290.832L580.597 294.189L584.912 299.701ZM751.819 360.374L752.075 353.378L751.819 360.374ZM893.242 314.831L896.12 308.45L891.399 306.321L887.982 310.212L893.242 314.831ZM1005.9 341.198L1005.74 334.2L1005.74 334.2L1005.9 341.198ZM1089.8 324.5L1090.64 317.551L1088.61 317.306L1086.77 318.187L1089.8 324.5ZM1105.5 217L1098.58 218.06L1099.39 223.36L1104.72 223.957L1105.5 217ZM1070.62 138.652L1066.04 143.95L1066.04 143.95L1070.62 138.652ZM986.725 150.637L980.426 153.691L983.775 160.597L990.345 156.628L986.725 150.637ZM751.819 113.483L745.095 115.426L748.149 125.997L756.429 118.751L751.819 113.483ZM589.435 0.376307L588.997 7.36263L589.435 7.38999L589.872 7.36267L589.435 0.376307ZM417.496 113.921L412.886 119.189L420.562 125.906L424.069 116.328L417.496 113.921ZM182.59 151.075L178.971 157.066L185.54 161.035L188.889 154.129L182.59 151.075ZM98.6956 139.09L103.271 144.388L103.271 144.388L98.6956 139.09ZM62.4995 212.5L65.1755 218.968L68.654 217.529L69.3713 213.834L62.4995 212.5ZM79.5197 315.269C77.4424 308.584 77.4448 308.583 77.4469 308.583C77.4473 308.582 77.4491 308.582 77.45 308.582C77.4516 308.581 77.4523 308.581 77.4522 308.581C77.452 308.581 77.4483 308.582 77.4411 308.584C77.4269 308.589 77.3989 308.597 77.3575 308.609C77.2749 308.634 77.139 308.674 76.9528 308.726C76.5804 308.832 76.0078 308.988 75.259 309.176C73.7597 309.552 71.5647 310.054 68.8641 310.527C63.4316 311.48 56.1117 312.294 48.3692 311.834C32.8855 310.914 17.0084 305.119 9.49732 286.394L-3.49632 291.606C6.8425 317.381 29.225 324.721 47.5384 325.809C56.6945 326.354 65.1575 325.391 71.2833 324.317C74.3619 323.777 76.8899 323.201 78.6687 322.754C79.5591 322.531 80.2644 322.339 80.7601 322.199C81.008 322.129 81.2037 322.072 81.3441 322.03C81.4144 322.009 81.4708 321.992 81.5131 321.979C81.5342 321.973 81.5518 321.967 81.5658 321.963C81.5728 321.961 81.5789 321.959 81.5841 321.957C81.5867 321.957 81.5899 321.956 81.5912 321.955C81.5942 321.954 81.5969 321.953 79.5197 315.269ZM163.577 334.638C138.92 334.064 118.858 327.756 104.978 321.603C98.0418 318.528 92.6699 315.501 89.0676 313.269C87.2673 312.154 85.9122 311.239 85.0278 310.62C84.5857 310.31 84.2616 310.074 84.0586 309.924C83.9572 309.849 83.8861 309.795 83.8457 309.765C83.8255 309.749 83.813 309.74 83.8083 309.736C83.8059 309.734 83.8054 309.734 83.8069 309.735C83.8077 309.736 83.8089 309.737 83.8106 309.738C83.8115 309.739 83.8132 309.74 83.8136 309.74C83.8154 309.742 83.8173 309.743 79.5197 315.269C75.2221 320.794 75.2243 320.796 75.2265 320.798C75.2275 320.798 75.2298 320.8 75.2317 320.802C75.2354 320.804 75.2396 320.808 75.2443 320.811C75.2537 320.819 75.265 320.827 75.2784 320.838C75.3052 320.858 75.3399 320.885 75.3825 320.917C75.4677 320.982 75.5846 321.07 75.7327 321.179C76.029 321.398 76.4504 321.704 76.9938 322.085C78.0804 322.847 79.6559 323.908 81.6946 325.171C85.7701 327.695 91.7091 331.035 99.3045 334.402C114.488 341.133 136.374 348.009 163.252 348.634L163.577 334.638ZM276.073 315.269C273.195 308.888 273.196 308.887 273.197 308.887C273.197 308.887 273.197 308.887 273.197 308.887C273.196 308.887 273.195 308.888 273.193 308.889C273.188 308.891 273.18 308.895 273.168 308.9C273.144 308.911 273.105 308.928 273.052 308.951C272.947 308.998 272.784 309.071 272.566 309.166C272.129 309.357 271.473 309.642 270.613 310.006C268.894 310.735 266.363 311.783 263.159 313.041C256.748 315.558 247.661 318.906 236.995 322.216C215.531 328.877 188.219 335.211 163.577 334.638L163.252 348.634C190.145 349.259 219.162 342.409 241.144 335.587C252.201 332.156 261.616 328.687 268.275 326.073C271.607 324.765 274.254 323.669 276.079 322.895C276.991 322.508 277.698 322.202 278.183 321.99C278.425 321.884 278.611 321.801 278.74 321.744C278.804 321.715 278.854 321.693 278.89 321.677C278.907 321.669 278.921 321.663 278.931 321.659C278.936 321.656 278.941 321.654 278.944 321.653C278.946 321.652 278.947 321.651 278.948 321.651C278.95 321.65 278.951 321.65 276.073 315.269ZM417.24 353.816C369.364 355.568 335.191 344.479 313.126 333.16C302.072 327.49 294.015 321.739 288.774 317.465C286.153 315.328 284.237 313.561 283.004 312.36C282.388 311.759 281.942 311.3 281.664 311.006C281.525 310.86 281.429 310.755 281.374 310.694C281.346 310.664 281.329 310.645 281.322 310.638C281.319 310.634 281.318 310.633 281.32 310.635C281.321 310.636 281.322 310.638 281.325 310.64C281.326 310.642 281.328 310.644 281.328 310.645C281.331 310.647 281.333 310.65 276.073 315.269C270.813 319.887 270.816 319.89 270.819 319.894C270.82 319.895 270.823 319.899 270.826 319.902C270.83 319.907 270.836 319.913 270.842 319.92C270.854 319.934 270.87 319.951 270.887 319.971C270.923 320.011 270.969 320.062 271.026 320.125C271.14 320.25 271.298 320.42 271.499 320.633C271.901 321.058 272.479 321.651 273.234 322.387C274.744 323.858 276.967 325.902 279.926 328.315C285.846 333.142 294.718 339.452 306.736 345.617C330.812 357.968 367.35 369.651 417.752 367.807L417.24 353.816ZM580.597 294.189C570.223 302.31 504.894 350.609 417.24 353.816L417.752 367.807C509.883 364.436 578.12 313.907 589.226 305.213L580.597 294.189ZM580.629 305.238C593.351 315.08 660.911 364.052 751.564 367.369L752.075 353.378C665.839 350.223 601.162 303.422 589.195 294.165L580.629 305.238ZM751.564 367.369C801.965 369.213 838.503 357.53 862.58 345.179C874.597 339.014 883.469 332.704 889.389 327.877C892.348 325.464 894.571 323.42 896.081 321.949C896.836 321.213 897.414 320.62 897.816 320.195C898.017 319.983 898.175 319.812 898.289 319.687C898.346 319.624 898.392 319.573 898.428 319.533C898.446 319.513 898.461 319.496 898.473 319.482C898.479 319.475 898.485 319.469 898.49 319.464C898.492 319.461 898.495 319.457 898.496 319.456C898.499 319.453 898.502 319.449 893.242 314.831C887.982 310.212 887.984 310.209 887.987 310.207C887.987 310.206 887.989 310.204 887.991 310.202C887.993 310.2 887.994 310.198 887.995 310.197C887.997 310.195 887.996 310.196 887.993 310.2C887.986 310.207 887.969 310.226 887.942 310.256C887.887 310.317 887.79 310.422 887.651 310.568C887.373 310.862 886.928 311.321 886.311 311.922C885.078 313.123 883.162 314.89 880.541 317.027C875.3 321.302 867.243 327.052 856.189 332.722C834.124 344.042 799.951 355.13 752.075 353.378L751.564 367.369ZM893.242 314.831C890.364 321.212 890.366 321.212 890.367 321.213C890.368 321.213 890.37 321.214 890.371 321.215C890.374 321.216 890.379 321.218 890.384 321.221C890.394 321.225 890.408 321.231 890.425 321.239C890.461 321.255 890.511 321.277 890.575 321.306C890.704 321.363 890.89 321.446 891.133 321.552C891.617 321.764 892.324 322.071 893.236 322.457C895.061 323.231 897.708 324.327 901.04 325.635C907.699 328.249 917.114 331.718 928.171 335.149C950.153 341.971 979.17 348.821 1006.06 348.196L1005.74 334.2C981.096 334.773 953.784 328.439 932.32 321.778C921.655 318.468 912.567 315.12 906.156 312.603C902.952 311.346 900.421 310.297 898.702 309.568C897.842 309.204 897.186 308.919 896.75 308.728C896.531 308.633 896.369 308.561 896.263 308.514C896.21 308.49 896.171 308.473 896.148 308.462C896.136 308.457 896.127 308.453 896.123 308.451C896.12 308.45 896.119 308.449 896.118 308.449C896.118 308.449 896.119 308.449 896.118 308.449C896.119 308.449 896.12 308.45 893.242 314.831ZM1006.06 348.196C1032.5 347.581 1054.05 343.299 1069.04 339.145C1076.54 337.068 1082.41 335.021 1086.44 333.477C1088.45 332.704 1090.01 332.057 1091.08 331.593C1091.62 331.362 1092.03 331.176 1092.32 331.043C1092.47 330.977 1092.58 330.924 1092.67 330.886C1092.71 330.866 1092.74 330.851 1092.77 330.838C1092.78 330.832 1092.79 330.827 1092.8 330.823C1092.8 330.821 1092.81 330.819 1092.81 330.817C1092.81 330.817 1092.81 330.816 1092.82 330.815C1092.82 330.814 1092.82 330.813 1089.8 324.5C1086.77 318.187 1086.77 318.186 1086.77 318.185C1086.78 318.185 1086.78 318.184 1086.78 318.184C1086.78 318.183 1086.78 318.183 1086.78 318.183C1086.78 318.182 1086.78 318.183 1086.78 318.184C1086.77 318.187 1086.76 318.193 1086.74 318.203C1086.69 318.223 1086.62 318.258 1086.52 318.305C1086.31 318.4 1085.98 318.549 1085.53 318.743C1084.63 319.132 1083.25 319.705 1081.43 320.404C1077.78 321.803 1072.34 323.706 1065.31 325.653C1051.24 329.549 1030.84 333.616 1005.74 334.2L1006.06 348.196ZM1089.8 324.5C1088.96 331.449 1088.96 331.45 1088.96 331.45C1088.96 331.45 1088.97 331.451 1088.97 331.451C1088.97 331.452 1088.98 331.452 1088.99 331.453C1089 331.455 1089.03 331.458 1089.05 331.461C1089.1 331.467 1089.18 331.475 1089.27 331.485C1089.45 331.505 1089.71 331.532 1090.04 331.565C1090.7 331.63 1091.64 331.716 1092.84 331.803C1095.22 331.979 1098.6 332.162 1102.65 332.203C1110.7 332.284 1121.59 331.803 1132.6 329.473C1143.53 327.16 1155.18 322.9 1164.19 314.998C1173.46 306.872 1179.5 295.266 1179.5 279.5H1165.5C1165.5 291.234 1161.2 299.003 1154.96 304.471C1148.47 310.163 1139.44 313.715 1129.7 315.777C1120.03 317.822 1110.25 318.279 1102.79 318.203C1099.08 318.166 1096 317.998 1093.86 317.841C1092.79 317.763 1091.96 317.687 1091.41 317.633C1091.14 317.606 1090.93 317.584 1090.8 317.569C1090.73 317.562 1090.69 317.557 1090.66 317.553C1090.65 317.552 1090.64 317.551 1090.63 317.55C1090.63 317.55 1090.63 317.55 1090.63 317.55C1090.63 317.55 1090.63 317.55 1090.63 317.55C1090.63 317.55 1090.64 317.551 1089.8 324.5ZM1179.5 279.5C1179.5 248.437 1160.31 230.859 1142.24 221.421C1133.23 216.714 1124.29 213.889 1117.66 212.238C1114.33 211.409 1111.53 210.867 1109.56 210.529C1108.56 210.36 1107.77 210.242 1107.22 210.165C1106.94 210.126 1106.72 210.097 1106.56 210.077C1106.48 210.068 1106.42 210.06 1106.37 210.054C1106.35 210.051 1106.33 210.049 1106.31 210.047C1106.3 210.046 1106.3 210.046 1106.29 210.045C1106.29 210.045 1106.29 210.044 1106.28 210.044C1106.28 210.044 1106.28 210.043 1105.5 217C1104.72 223.957 1104.72 223.956 1104.72 223.956C1104.72 223.956 1104.71 223.956 1104.71 223.956C1104.71 223.955 1104.71 223.955 1104.71 223.955C1104.71 223.955 1104.72 223.956 1104.72 223.957C1104.74 223.959 1104.77 223.963 1104.82 223.969C1104.92 223.981 1105.07 224.001 1105.29 224.031C1105.71 224.09 1106.36 224.187 1107.2 224.33C1108.89 224.617 1111.33 225.091 1114.28 225.824C1120.2 227.298 1128.02 229.786 1135.76 233.829C1151.19 241.891 1165.5 255.563 1165.5 279.5H1179.5ZM1105.5 217C1112.42 215.94 1112.42 215.939 1112.42 215.937C1112.42 215.936 1112.42 215.934 1112.42 215.932C1112.42 215.929 1112.42 215.924 1112.42 215.919C1112.41 215.909 1112.41 215.895 1112.41 215.878C1112.4 215.844 1112.4 215.796 1112.39 215.735C1112.37 215.614 1112.34 215.441 1112.3 215.219C1112.23 214.775 1112.12 214.133 1111.97 213.316C1111.67 211.682 1111.22 209.343 1110.6 206.473C1109.35 200.743 1107.41 192.851 1104.61 184.207C1099.12 167.262 1089.92 146.071 1075.19 133.354L1066.04 143.95C1077.69 154.004 1085.93 171.987 1091.29 188.523C1093.91 196.62 1095.74 204.046 1096.92 209.447C1097.5 212.144 1097.92 214.325 1098.19 215.819C1098.33 216.566 1098.43 217.141 1098.49 217.521C1098.52 217.712 1098.55 217.854 1098.56 217.944C1098.57 217.99 1098.57 218.022 1098.58 218.042C1098.58 218.051 1098.58 218.058 1098.58 218.061C1098.58 218.062 1098.58 218.063 1098.58 218.063C1098.58 218.063 1098.58 218.062 1098.58 218.062C1098.58 218.061 1098.58 218.06 1105.5 217ZM1075.19 133.354C1066.89 126.185 1056.48 123.855 1046.34 123.918C1036.23 123.98 1025.79 126.417 1016.59 129.459C1007.33 132.518 998.994 136.301 992.995 139.301C989.986 140.805 987.542 142.124 985.839 143.074C984.987 143.549 984.319 143.933 983.856 144.202C983.625 144.337 983.444 144.443 983.318 144.518C983.255 144.555 983.206 144.585 983.17 144.606C983.152 144.617 983.138 144.625 983.127 144.632C983.122 144.635 983.117 144.638 983.113 144.64C983.112 144.641 983.109 144.643 983.109 144.643C983.107 144.644 983.105 144.645 986.725 150.637C990.345 156.628 990.343 156.629 990.342 156.63C990.342 156.63 990.342 156.63 990.341 156.63C990.341 156.63 990.342 156.63 990.343 156.629C990.347 156.627 990.353 156.623 990.363 156.617C990.383 156.605 990.416 156.585 990.463 156.558C990.556 156.502 990.702 156.416 990.899 156.302C991.292 156.073 991.885 155.732 992.657 155.302C994.203 154.44 996.46 153.221 999.256 151.823C1004.87 149.017 1012.56 145.535 1020.98 142.751C1029.45 139.951 1038.34 137.968 1046.43 137.918C1054.5 137.868 1061.16 139.733 1066.04 143.95L1075.19 133.354ZM986.725 150.637C993.023 147.583 993.022 147.581 993.021 147.578C993.021 147.577 993.019 147.574 993.018 147.572C993.016 147.567 993.013 147.56 993.009 147.553C993.002 147.538 992.992 147.519 992.98 147.495C992.957 147.446 992.923 147.379 992.881 147.293C992.796 147.122 992.673 146.878 992.513 146.565C992.194 145.939 991.726 145.038 991.112 143.899C989.884 141.623 988.071 138.391 985.696 134.499C980.952 126.727 973.927 116.264 964.795 105.507C946.698 84.1891 919.483 60.7324 884.554 56.2046L882.754 70.0885C912.544 73.9501 936.864 94.2384 954.123 114.568C962.669 124.636 969.277 134.472 973.746 141.793C975.977 145.448 977.666 148.462 978.789 150.544C979.35 151.584 979.769 152.391 980.043 152.928C980.18 153.197 980.281 153.397 980.345 153.526C980.377 153.59 980.4 153.637 980.413 153.664C980.42 153.678 980.424 153.687 980.427 153.692C980.428 153.694 980.428 153.695 980.428 153.695C980.428 153.695 980.428 153.694 980.428 153.694C980.427 153.692 980.426 153.691 986.725 150.637ZM884.554 56.2046C849.986 51.7236 815.416 65.1538 790.102 79.0308C777.333 86.0308 766.657 93.2901 759.169 98.8006C755.42 101.559 752.46 103.887 750.423 105.538C749.404 106.363 748.616 107.019 748.075 107.476C747.805 107.704 747.596 107.882 747.451 108.007C747.378 108.069 747.322 108.118 747.282 108.153C747.262 108.17 747.246 108.184 747.234 108.195C747.228 108.2 747.223 108.204 747.219 108.208C747.217 108.209 747.215 108.211 747.214 108.212C747.212 108.214 747.21 108.215 751.819 113.483C756.429 118.751 756.428 118.752 756.427 118.753C756.427 118.753 756.426 118.754 756.426 118.754C756.427 118.754 756.428 118.753 756.43 118.751C756.434 118.747 756.443 118.74 756.455 118.729C756.48 118.707 756.521 118.672 756.577 118.623C756.69 118.526 756.866 118.376 757.103 118.176C757.577 117.776 758.294 117.179 759.237 116.415C761.123 114.887 763.911 112.693 767.466 110.076C774.585 104.838 784.733 97.94 796.832 91.3071C821.256 77.9184 852.603 66.1801 882.754 70.0885L884.554 56.2046ZM751.819 113.483C758.544 111.54 758.543 111.537 758.542 111.532C758.542 111.53 758.54 111.526 758.539 111.522C758.537 111.514 758.534 111.504 758.53 111.492C758.523 111.469 758.514 111.438 758.503 111.4C758.481 111.324 758.449 111.219 758.408 111.087C758.327 110.821 758.209 110.444 758.053 109.964C757.741 109.002 757.275 107.624 756.641 105.892C755.374 102.428 753.432 97.5375 750.699 91.7158C745.242 80.0906 736.581 64.6495 723.756 49.4324C697.977 18.8461 655.367 -10.7585 588.998 -6.61006L589.872 7.36267C650.906 3.54765 689.487 30.4966 713.051 58.4547C724.896 72.5097 732.944 86.8386 738.026 97.6653C740.564 103.07 742.35 107.575 743.494 110.702C744.065 112.264 744.475 113.479 744.738 114.288C744.869 114.692 744.963 114.994 745.022 115.186C745.051 115.282 745.072 115.351 745.084 115.391C745.09 115.412 745.094 115.425 745.096 115.431C745.097 115.433 745.097 115.435 745.097 115.434C745.097 115.434 745.096 115.432 745.096 115.432C745.095 115.429 745.095 115.426 751.819 113.483ZM417.496 113.921C424.069 116.328 424.068 116.33 424.067 116.332C424.067 116.333 424.067 116.334 424.067 116.334C424.066 116.335 424.067 116.333 424.068 116.33C424.071 116.324 424.076 116.31 424.084 116.289C424.099 116.247 424.126 116.177 424.163 116.079C424.238 115.883 424.357 115.577 424.521 115.169C424.85 114.352 425.358 113.126 426.056 111.551C427.452 108.4 429.603 103.86 432.58 98.4167C438.543 87.5137 447.771 73.0719 460.821 58.8984C486.838 30.6408 527.895 3.53778 588.997 7.36263L589.872 -6.61002C523.524 -10.7632 478.612 18.9063 450.522 49.4157C436.518 64.6257 426.659 80.0661 420.297 91.6993C417.112 97.5238 414.791 102.416 413.256 105.88C412.489 107.612 411.917 108.989 411.531 109.948C411.339 110.428 411.192 110.803 411.091 111.067C411.041 111.199 411.001 111.303 410.973 111.378C410.959 111.415 410.948 111.445 410.939 111.468C410.935 111.48 410.932 111.489 410.929 111.497C410.927 111.501 410.926 111.505 410.925 111.507C410.924 111.511 410.922 111.515 417.496 113.921ZM286.561 70.5264C316.712 66.618 348.06 78.3563 372.483 91.7451C384.583 98.3779 394.73 105.276 401.849 110.514C405.404 113.13 408.192 115.324 410.079 116.853C411.022 117.617 411.738 118.214 412.212 118.614C412.449 118.814 412.625 118.964 412.738 119.061C412.795 119.11 412.835 119.145 412.86 119.167C412.873 119.178 412.881 119.185 412.885 119.189C412.887 119.19 412.889 119.192 412.889 119.192C412.889 119.192 412.888 119.191 412.888 119.191C412.887 119.19 412.886 119.189 417.496 113.921C422.105 108.653 422.104 108.652 422.102 108.65C422.101 108.649 422.098 108.647 422.096 108.646C422.093 108.642 422.088 108.638 422.082 108.633C422.07 108.622 422.054 108.608 422.033 108.591C421.993 108.556 421.937 108.507 421.864 108.445C421.719 108.32 421.511 108.142 421.24 107.914C420.699 107.457 419.911 106.801 418.892 105.976C416.856 104.325 413.895 101.997 410.147 99.2385C402.658 93.728 391.982 86.4687 379.213 79.4687C353.899 65.5917 319.329 52.1616 284.761 56.6426L286.561 70.5264ZM182.59 151.075C188.889 154.129 188.888 154.13 188.888 154.132C188.888 154.132 188.887 154.133 188.887 154.133C188.887 154.133 188.888 154.132 188.889 154.13C188.891 154.125 188.895 154.116 188.902 154.102C188.916 154.075 188.938 154.028 188.97 153.964C189.034 153.835 189.135 153.635 189.272 153.366C189.546 152.829 189.965 152.022 190.526 150.982C191.649 148.9 193.338 145.886 195.569 142.231C200.038 134.91 206.646 125.073 215.193 115.006C232.451 94.6764 256.771 74.388 286.561 70.5264L284.761 56.6426C249.832 61.1703 222.617 84.6271 204.52 105.945C195.389 116.702 188.363 127.165 183.619 134.937C181.244 138.829 179.431 142.061 178.203 144.337C177.589 145.476 177.121 146.377 176.802 147.002C176.642 147.315 176.519 147.56 176.434 147.731C176.392 147.817 176.359 147.884 176.335 147.933C176.323 147.957 176.313 147.976 176.306 147.991C176.303 147.998 176.3 148.005 176.297 148.01C176.296 148.012 176.295 148.015 176.294 148.016C176.293 148.019 176.292 148.021 182.59 151.075ZM103.271 144.388C108.153 140.171 114.814 138.306 122.885 138.356C130.973 138.406 139.86 140.389 148.334 143.189C156.756 145.973 164.448 149.455 170.059 152.261C172.855 153.659 175.112 154.878 176.658 155.739C177.43 156.17 178.024 156.511 178.416 156.74C178.613 156.854 178.759 156.94 178.852 156.996C178.899 157.023 178.932 157.043 178.952 157.055C178.962 157.061 178.969 157.065 178.972 157.067C178.973 157.068 178.974 157.068 178.974 157.068C178.974 157.068 178.973 157.067 178.973 157.067C178.972 157.067 178.971 157.066 182.59 151.075C186.21 145.083 186.209 145.082 186.207 145.081C186.206 145.081 186.204 145.079 186.202 145.078C186.198 145.076 186.193 145.073 186.188 145.07C186.177 145.063 186.163 145.055 186.145 145.044C186.109 145.023 186.06 144.993 185.997 144.956C185.871 144.881 185.691 144.775 185.459 144.64C184.997 144.371 184.328 143.987 183.476 143.512C181.773 142.562 179.329 141.243 176.32 139.739C170.321 136.739 161.983 132.956 152.727 129.897C143.523 126.855 133.085 124.418 122.971 124.356C112.84 124.293 102.421 126.623 94.1203 133.792L103.271 144.388ZM62.4995 212.5C69.3713 213.834 69.371 213.835 69.3708 213.836C69.3708 213.836 69.3707 213.837 69.3706 213.837C69.3706 213.837 69.3706 213.837 69.3709 213.836C69.3713 213.833 69.3724 213.828 69.3741 213.82C69.3774 213.803 69.3831 213.774 69.3912 213.734C69.4075 213.653 69.4334 213.525 69.4692 213.353C69.5408 213.01 69.6519 212.489 69.804 211.81C70.1082 210.453 70.576 208.466 71.2199 206.002C72.5097 201.066 74.4956 194.254 77.2728 186.769C82.923 171.541 91.4705 154.579 103.271 144.388L94.1203 133.792C79.5538 146.372 70.0033 166.115 64.1471 181.899C61.1712 189.92 59.0518 197.192 57.6747 202.462C56.9851 205.101 56.479 207.248 56.1428 208.749C55.9746 209.499 55.8487 210.089 55.7635 210.498C55.7209 210.703 55.6884 210.862 55.6658 210.974C55.6546 211.03 55.6458 211.075 55.6394 211.107C55.6363 211.123 55.6337 211.136 55.6318 211.146C55.6308 211.151 55.63 211.155 55.6293 211.158C55.629 211.16 55.6286 211.162 55.6284 211.163C55.6281 211.165 55.6278 211.166 62.4995 212.5ZM9.49732 286.394C5.91078 277.453 7.01865 269.233 10.9972 261.464C15.0956 253.462 22.2343 246.026 30.4052 239.548C38.5117 233.12 47.2245 227.956 53.9706 224.38C57.329 222.6 60.1657 221.233 62.1489 220.315C63.1397 219.857 63.9154 219.513 64.4342 219.286C64.6935 219.173 64.8885 219.09 65.0138 219.036C65.0765 219.01 65.1217 218.991 65.1489 218.979C65.1625 218.974 65.1716 218.97 65.176 218.968C65.1783 218.967 65.1793 218.967 65.1793 218.967C65.1792 218.967 65.1783 218.967 65.1783 218.967C65.177 218.968 65.1755 218.968 62.4995 212.5C59.8235 206.032 59.8214 206.033 59.819 206.034C59.8178 206.034 59.8151 206.035 59.8127 206.036C59.8079 206.038 59.802 206.041 59.7949 206.044C59.7806 206.05 59.7617 206.057 59.7382 206.067C59.6911 206.087 59.6257 206.115 59.5425 206.15C59.3763 206.22 59.1391 206.322 58.8363 206.454C58.2307 206.718 57.362 207.105 56.2727 207.608C54.0956 208.615 51.0288 210.095 47.4147 212.01C40.2157 215.826 30.7069 221.442 21.7074 228.577C12.7723 235.662 3.92057 244.569 -1.46365 255.083C-6.96771 265.83 -8.83475 278.297 -3.49632 291.606L9.49732 286.394Z" fill="#76B8B0" mask="url(#path-1-inside-1_379_74)"/>
</svg>
