<svg width="995" height="343" viewBox="0 0 995 343" fill="none" xmlns="http://www.w3.org/2000/svg">
<path d="M952 160.883C970 172.883 1003.5 196.883 974.5 235.383C996.667 271.883 1014.71 343.411 888.706 318.211C864.206 325.045 802.4 319.511 798 292.711C747 336.983 638.6 333.983 615 279.983C578.5 308.983 505.306 364.811 451.706 305.211C436.706 326.378 382.806 353.511 287.206 292.711C264.539 321.045 199.106 365.611 118.706 317.211C118.706 322.211 -32.2945 327.711 12.2055 271.711C17.372 253.378 33.5051 220.911 56.7051 237.711C62.372 220.545 82.7059 189.811 118.706 204.211C118.706 208.711 147.5 120.483 242.205 141.211C244.205 144.211 232.795 108.254 273 102.983C272.333 92.3159 284.1 61.5826 308.5 61.9826C354.5 25.8159 453.105 -21.4887 516.705 85.7113C543.5 78.9826 586.705 85.7113 586.705 141.211C591.705 145.711 620.5 72.4826 677 120.383C682.5 124.383 664 76.2113 709.205 76.2113C752 1.38251 850.405 -39.3887 921.205 76.2113C956.5 93.3825 974.5 116.883 952 160.883Z" fill="white" stroke="#76B8B0" stroke-width="8" stroke-linejoin="round"/>
</svg>
