<svg width="1160" height="361" viewBox="0 0 1160 361" fill="none" xmlns="http://www.w3.org/2000/svg">
<mask id="path-1-inside-1_379_73" fill="white">
<path fill-rule="evenodd" clip-rule="evenodd" d="M1157.9 221.348C1169.89 280.074 1084.8 294.048 1084.8 294.048C1084.8 294.048 1052.44 339.999 1000.9 341.198C949.366 342.396 888.242 314.831 888.242 314.831C888.242 314.831 845.097 363.969 746.82 360.374C658.375 357.138 592.257 309.251 579.912 299.701C569.172 308.108 502.389 357.523 412.496 360.812C314.219 364.407 271.074 315.269 271.074 315.269C271.074 315.269 209.95 342.834 158.415 341.636C106.88 340.437 57.685 313.224 57.685 313.224C57.685 313.224 -10.5731 280.512 1.41185 221.786C13.3968 163.06 74.5202 207.404 74.5202 207.404C74.5202 207.404 67.3291 161.861 93.6961 139.09C120.063 116.318 177.591 151.075 177.591 151.075C177.591 151.075 215.943 71.9738 280.662 63.5845C345.38 55.1951 412.496 113.921 412.496 113.921C412.496 113.921 456.985 -7.60172 584.435 0.376307C711.838 -7.58718 746.82 113.483 746.82 113.483C746.82 113.483 813.936 54.7572 878.654 63.1465C943.373 71.5359 981.725 150.637 981.725 150.637C981.725 150.637 1039.25 115.88 1065.62 138.652C1091.99 161.423 1084.8 206.966 1084.8 206.966C1084.8 206.966 1145.92 162.622 1157.9 221.348Z"/>
</mask>
<path fill-rule="evenodd" clip-rule="evenodd" d="M1157.9 221.348C1169.89 280.074 1084.8 294.048 1084.8 294.048C1084.8 294.048 1052.44 339.999 1000.9 341.198C949.366 342.396 888.242 314.831 888.242 314.831C888.242 314.831 845.097 363.969 746.82 360.374C658.375 357.138 592.257 309.251 579.912 299.701C569.172 308.108 502.389 357.523 412.496 360.812C314.219 364.407 271.074 315.269 271.074 315.269C271.074 315.269 209.95 342.834 158.415 341.636C106.88 340.437 57.685 313.224 57.685 313.224C57.685 313.224 -10.5731 280.512 1.41185 221.786C13.3968 163.06 74.5202 207.404 74.5202 207.404C74.5202 207.404 67.3291 161.861 93.6961 139.09C120.063 116.318 177.591 151.075 177.591 151.075C177.591 151.075 215.943 71.9738 280.662 63.5845C345.38 55.1951 412.496 113.921 412.496 113.921C412.496 113.921 456.985 -7.60172 584.435 0.376307C711.838 -7.58718 746.82 113.483 746.82 113.483C746.82 113.483 813.936 54.7572 878.654 63.1465C943.373 71.5359 981.725 150.637 981.725 150.637C981.725 150.637 1039.25 115.88 1065.62 138.652C1091.99 161.423 1084.8 206.966 1084.8 206.966C1084.8 206.966 1145.92 162.622 1157.9 221.348Z" fill="white"/>
<path d="M1084.8 294.048L1083.66 287.141L1080.76 287.617L1079.07 290.018L1084.8 294.048ZM1157.9 221.348L1151.05 222.748L1151.05 222.748L1157.9 221.348ZM1000.9 341.198L1000.74 334.2L1000.74 334.2L1000.9 341.198ZM888.242 314.831L891.12 308.45L886.399 306.321L882.982 310.212L888.242 314.831ZM746.82 360.374L747.076 353.378L747.076 353.378L746.82 360.374ZM579.912 299.701L584.195 294.165L579.887 290.832L575.597 294.189L579.912 299.701ZM412.496 360.812L412.752 367.807L412.752 367.807L412.496 360.812ZM271.074 315.269L276.334 310.65L272.917 306.759L268.196 308.888L271.074 315.269ZM158.415 341.636L158.252 348.634L158.252 348.634L158.415 341.636ZM57.685 313.224L61.0734 307.099L60.8945 307L60.7103 306.912L57.685 313.224ZM1.41185 221.786L-5.44678 220.386L-5.44678 220.386L1.41185 221.786ZM74.5202 207.404L70.4096 213.07L84.0659 222.978L81.4345 206.312L74.5202 207.404ZM93.6961 139.09L98.2714 144.387L98.2714 144.387L93.6961 139.09ZM177.591 151.075L173.971 157.066L180.541 161.035L183.89 154.129L177.591 151.075ZM280.662 63.5845L281.561 70.5264L280.662 63.5845ZM412.496 113.921L407.887 119.189L415.563 125.906L419.069 116.328L412.496 113.921ZM584.435 0.376307L583.998 7.36263L584.435 7.38999L584.872 7.36267L584.435 0.376307ZM746.82 113.483L740.095 115.426L743.149 125.997L751.429 118.751L746.82 113.483ZM981.725 150.637L975.427 153.691L978.775 160.597L985.345 156.628L981.725 150.637ZM1065.62 138.652L1061.04 143.95L1061.04 143.95L1065.62 138.652ZM1084.8 206.966L1077.88 205.874L1075.25 222.54L1088.91 212.632L1084.8 206.966ZM1084.8 294.048C1085.93 300.956 1085.93 300.955 1085.94 300.955C1085.94 300.955 1085.94 300.954 1085.94 300.954C1085.95 300.953 1085.96 300.951 1085.96 300.95C1085.98 300.947 1086 300.944 1086.03 300.939C1086.08 300.93 1086.16 300.917 1086.25 300.901C1086.44 300.868 1086.7 300.82 1087.04 300.756C1087.72 300.629 1088.69 300.438 1089.9 300.176C1092.34 299.652 1095.76 298.84 1099.83 297.677C1107.92 295.363 1118.71 291.609 1129.21 285.859C1139.66 280.135 1150.24 272.201 1157.39 261.329C1164.67 250.247 1168.14 236.481 1164.76 219.948L1151.05 222.748C1153.66 235.578 1150.99 245.581 1145.69 253.636C1140.25 261.901 1131.81 268.472 1122.48 273.581C1113.2 278.666 1103.47 282.076 1095.98 284.217C1092.25 285.282 1089.13 286.021 1086.95 286.49C1085.87 286.725 1085.02 286.892 1084.45 286.998C1084.17 287.051 1083.96 287.088 1083.83 287.112C1083.76 287.124 1083.71 287.132 1083.69 287.137C1083.67 287.139 1083.66 287.141 1083.66 287.141C1083.66 287.142 1083.66 287.142 1083.66 287.142C1083.66 287.142 1083.66 287.141 1083.66 287.141C1083.66 287.141 1083.66 287.141 1084.8 294.048ZM1001.06 348.196C1028.92 347.548 1051.33 334.822 1066.55 322.637C1074.19 316.52 1080.13 310.448 1084.17 305.893C1086.19 303.611 1087.75 301.7 1088.82 300.34C1089.35 299.66 1089.76 299.116 1090.04 298.732C1090.19 298.54 1090.3 298.388 1090.38 298.278C1090.42 298.223 1090.45 298.179 1090.47 298.145C1090.48 298.129 1090.49 298.115 1090.5 298.104C1090.51 298.098 1090.51 298.093 1090.51 298.089C1090.51 298.087 1090.52 298.084 1090.52 298.083C1090.52 298.081 1090.52 298.079 1084.8 294.048C1079.07 290.018 1079.07 290.016 1079.08 290.014C1079.08 290.014 1079.08 290.012 1079.08 290.012C1079.08 290.01 1079.08 290.01 1079.08 290.01C1079.08 290.01 1079.08 290.012 1079.07 290.018C1079.06 290.029 1079.05 290.05 1079.03 290.082C1078.98 290.147 1078.9 290.252 1078.8 290.397C1078.58 290.687 1078.25 291.132 1077.79 291.71C1076.89 292.867 1075.51 294.556 1073.7 296.601C1070.06 300.699 1064.69 306.19 1057.8 311.71C1043.95 322.8 1024.42 333.649 1000.74 334.2L1001.06 348.196ZM888.242 314.831C885.365 321.212 885.366 321.212 885.367 321.213C885.368 321.213 885.37 321.214 885.372 321.215C885.375 321.216 885.379 321.218 885.384 321.221C885.394 321.225 885.408 321.231 885.426 321.239C885.461 321.255 885.511 321.277 885.575 321.306C885.704 321.363 885.891 321.446 886.133 321.552C886.617 321.764 887.324 322.071 888.237 322.457C890.061 323.231 892.709 324.327 896.04 325.635C902.7 328.249 912.114 331.718 923.171 335.149C945.153 341.971 974.17 348.821 1001.06 348.196L1000.74 334.2C976.097 334.773 948.784 328.439 927.321 321.778C916.655 318.468 907.568 315.12 901.156 312.603C897.952 311.346 895.422 310.297 893.702 309.568C892.843 309.204 892.186 308.919 891.75 308.728C891.532 308.633 891.369 308.561 891.263 308.514C891.21 308.49 891.172 308.473 891.148 308.462C891.136 308.457 891.128 308.453 891.123 308.451C891.121 308.45 891.119 308.449 891.119 308.449C891.119 308.449 891.119 308.449 891.119 308.449C891.119 308.449 891.12 308.45 888.242 314.831ZM746.564 367.369C796.965 369.213 833.504 357.53 857.58 345.179C869.597 339.014 878.47 332.704 884.389 327.877C887.349 325.464 889.572 323.42 891.082 321.949C891.837 321.213 892.414 320.62 892.816 320.195C893.018 319.983 893.175 319.812 893.289 319.687C893.346 319.624 893.393 319.573 893.428 319.533C893.446 319.513 893.461 319.496 893.473 319.482C893.48 319.475 893.485 319.469 893.49 319.464C893.492 319.461 893.496 319.457 893.497 319.456C893.5 319.453 893.502 319.449 888.242 314.831C882.982 310.212 882.985 310.209 882.987 310.207C882.988 310.206 882.99 310.204 882.991 310.202C882.993 310.2 882.995 310.198 882.996 310.197C882.997 310.195 882.997 310.196 882.993 310.2C882.987 310.207 882.97 310.226 882.942 310.256C882.887 310.317 882.79 310.422 882.651 310.568C882.374 310.862 881.928 311.321 881.311 311.922C880.078 313.123 878.162 314.89 875.542 317.027C870.3 321.302 862.244 327.052 851.19 332.722C829.124 344.042 794.951 355.13 747.076 353.378L746.564 367.369ZM575.629 305.238C588.351 315.079 655.911 364.052 746.564 367.369L747.076 353.378C660.84 350.223 596.162 303.422 584.195 294.165L575.629 305.238ZM575.597 294.189C565.223 302.31 499.894 350.609 412.24 353.816L412.752 367.807C504.883 364.436 573.12 313.907 584.227 305.213L575.597 294.189ZM412.24 353.816C364.365 355.568 330.192 344.479 308.126 333.16C297.072 327.49 289.016 321.739 283.774 317.465C281.154 315.328 279.238 313.561 278.005 312.36C277.388 311.759 276.942 311.299 276.665 311.006C276.526 310.86 276.429 310.755 276.374 310.694C276.346 310.664 276.329 310.645 276.323 310.638C276.319 310.634 276.319 310.633 276.32 310.635C276.321 310.636 276.323 310.638 276.325 310.64C276.326 310.642 276.328 310.644 276.329 310.645C276.331 310.647 276.334 310.65 271.074 315.269C265.813 319.887 265.816 319.89 265.819 319.894C265.82 319.895 265.824 319.899 265.826 319.901C265.831 319.907 265.836 319.913 265.843 319.92C265.855 319.934 265.87 319.951 265.888 319.971C265.923 320.011 265.97 320.062 266.027 320.125C266.141 320.25 266.298 320.42 266.5 320.633C266.902 321.058 267.479 321.651 268.234 322.387C269.744 323.858 271.967 325.902 274.927 328.315C280.846 333.142 289.719 339.452 301.736 345.617C325.812 357.968 362.351 369.651 412.752 367.807L412.24 353.816ZM271.074 315.269C268.196 308.888 268.197 308.887 268.197 308.887C268.197 308.887 268.197 308.887 268.197 308.887C268.197 308.887 268.195 308.888 268.193 308.889C268.188 308.891 268.18 308.895 268.168 308.9C268.144 308.911 268.106 308.928 268.053 308.951C267.947 308.998 267.784 309.071 267.566 309.166C267.13 309.357 266.473 309.642 265.614 310.006C263.894 310.735 261.364 311.783 258.16 313.041C251.748 315.558 242.661 318.906 231.995 322.216C210.532 328.877 183.219 335.211 158.578 334.637L158.252 348.634C185.146 349.259 214.163 342.409 236.145 335.587C247.202 332.156 256.616 328.687 263.276 326.073C266.607 324.765 269.255 323.669 271.079 322.895C271.992 322.508 272.699 322.202 273.183 321.99C273.425 321.884 273.612 321.801 273.741 321.744C273.805 321.715 273.855 321.693 273.89 321.677C273.908 321.669 273.922 321.663 273.932 321.659C273.937 321.656 273.941 321.654 273.944 321.653C273.946 321.652 273.948 321.651 273.949 321.651C273.95 321.65 273.951 321.65 271.074 315.269ZM158.578 334.637C133.892 334.063 109.527 327.232 91.1591 320.418C82.014 317.025 74.4447 313.669 69.1772 311.17C66.5452 309.922 64.4927 308.889 63.1107 308.176C62.4199 307.819 61.8971 307.542 61.5536 307.359C61.3819 307.267 61.2551 307.198 61.1745 307.154C61.1343 307.132 61.1056 307.117 61.0887 307.107C61.0802 307.103 61.0747 307.1 61.0721 307.098C61.0708 307.097 61.0703 307.097 61.0705 307.097C61.0706 307.097 61.0713 307.098 61.0714 307.098C61.0723 307.098 61.0734 307.099 57.685 313.224C54.2967 319.349 54.2982 319.35 54.2998 319.351C54.3006 319.352 54.3025 319.353 54.3041 319.354C54.3073 319.355 54.3112 319.357 54.3159 319.36C54.3253 319.365 54.3377 319.372 54.3531 319.381C54.3839 319.397 54.4266 319.421 54.4809 319.45C54.5897 319.51 54.7454 319.594 54.9466 319.702C55.3489 319.917 55.9333 320.226 56.6883 320.616C58.198 321.395 60.3914 322.498 63.1766 323.819C68.7436 326.46 76.6938 329.983 86.2893 333.543C105.402 340.634 131.403 348.009 158.252 348.634L158.578 334.637ZM57.685 313.224C60.7103 306.912 60.7124 306.913 60.7142 306.914C60.7145 306.914 60.7161 306.914 60.7166 306.915C60.7177 306.915 60.7178 306.915 60.7169 306.915C60.715 306.914 60.7091 306.911 60.6992 306.906C60.6794 306.897 60.6436 306.879 60.5925 306.854C60.4903 306.803 60.3267 306.722 60.1062 306.609C59.665 306.384 58.9968 306.035 58.1374 305.564C56.4173 304.622 53.9389 303.197 50.9862 301.303C45.0611 297.503 37.3296 291.881 29.9963 284.57C15.2635 269.882 2.94345 249.288 8.27048 223.186L-5.44678 220.386C-12.1047 253.01 3.71188 278.135 20.1119 294.485C28.345 302.693 36.929 308.919 43.4277 313.087C46.687 315.178 49.4477 316.767 51.4136 317.844C52.3972 318.382 53.1838 318.794 53.7366 319.076C54.0131 319.217 54.2313 319.326 54.3867 319.403C54.4643 319.442 54.5263 319.472 54.572 319.494C54.5949 319.505 54.6137 319.514 54.6283 319.522C54.6357 319.525 54.642 319.528 54.6472 319.531C54.6498 319.532 54.653 319.533 54.6543 319.534C54.6572 319.535 54.6598 319.537 57.685 313.224ZM8.27048 223.186C10.999 209.816 16.1958 203.7 21.2789 200.889C26.5858 197.954 33.3745 197.717 40.9354 199.404C48.4266 201.077 55.7918 204.451 61.4209 207.533C64.2024 209.056 66.4874 210.467 68.0646 211.488C68.8518 211.998 69.4589 212.409 69.8594 212.685C70.0595 212.823 70.2076 212.927 70.3005 212.992C70.347 213.025 70.3795 213.048 70.3979 213.062C70.407 213.068 70.4126 213.072 70.4146 213.074C70.4156 213.074 70.4156 213.074 70.4148 213.074C70.4144 213.073 70.4131 213.073 70.4129 213.072C70.4113 213.071 70.4096 213.07 74.5202 207.404C78.6308 201.738 78.6285 201.736 78.626 201.735C78.6249 201.734 78.6222 201.732 78.6199 201.73C78.6154 201.727 78.6099 201.723 78.6035 201.718C78.5906 201.709 78.574 201.697 78.5538 201.683C78.5132 201.654 78.458 201.614 78.3884 201.565C78.2492 201.466 78.0527 201.329 77.8022 201.156C77.3014 200.811 76.5837 200.326 75.6761 199.738C73.8638 198.564 71.2799 196.97 68.1439 195.253C61.9378 191.855 53.2731 187.814 43.9854 185.741C34.7673 183.683 24.0279 183.371 14.5035 188.638C4.75518 194.029 -2.1828 204.393 -5.44678 220.386L8.27048 223.186ZM74.5202 207.404C81.4345 206.312 81.4348 206.314 81.4351 206.316C81.4352 206.316 81.4354 206.318 81.4355 206.319C81.4358 206.32 81.4359 206.321 81.4359 206.321C81.436 206.322 81.4356 206.319 81.4348 206.314C81.4333 206.304 81.4301 206.283 81.4255 206.252C81.4163 206.19 81.4013 206.085 81.3817 205.941C81.3424 205.654 81.2849 205.208 81.2188 204.62C81.0864 203.444 80.9203 201.705 80.7973 199.536C80.5506 195.184 80.482 189.169 81.1821 182.519C82.6068 168.984 87.0743 154.058 98.2714 144.387L89.1208 133.792C73.951 146.893 68.8305 166.124 67.259 181.053C66.4609 188.635 66.5421 195.43 66.8198 200.328C66.959 202.784 67.1487 204.782 67.3066 206.185C67.3856 206.887 67.4568 207.442 67.51 207.833C67.5366 208.028 67.5587 208.182 67.5751 208.293C67.5833 208.349 67.5901 208.394 67.5953 208.428C67.5978 208.444 67.6 208.459 67.6018 208.47C67.6027 208.476 67.6034 208.481 67.6041 208.485C67.6045 208.487 67.6049 208.49 67.6051 208.491C67.6054 208.493 67.6058 208.496 74.5202 207.404ZM98.2714 144.387C103.154 140.171 109.814 138.306 117.885 138.356C125.973 138.406 134.861 140.389 143.334 143.189C151.756 145.973 159.448 149.455 165.06 152.261C167.856 153.659 170.113 154.878 171.658 155.739C172.431 156.17 173.024 156.511 173.417 156.74C173.613 156.854 173.76 156.94 173.853 156.996C173.899 157.023 173.933 157.043 173.953 157.055C173.963 157.061 173.969 157.065 173.972 157.067C173.974 157.068 173.974 157.068 173.974 157.068C173.974 157.068 173.973 157.067 173.973 157.067C173.972 157.067 173.971 157.066 177.591 151.075C181.211 145.083 181.209 145.082 181.207 145.081C181.206 145.081 181.204 145.079 181.202 145.078C181.199 145.076 181.194 145.073 181.189 145.07C181.178 145.063 181.163 145.055 181.145 145.044C181.11 145.023 181.06 144.993 180.997 144.956C180.871 144.881 180.691 144.775 180.46 144.64C179.997 144.371 179.329 143.987 178.477 143.512C176.773 142.562 174.33 141.243 171.321 139.739C165.322 136.739 156.984 132.956 147.728 129.897C138.524 126.855 128.085 124.418 117.971 124.356C107.84 124.293 97.4218 126.623 89.1208 133.792L98.2714 144.387ZM177.591 151.075C183.89 154.129 183.889 154.13 183.888 154.132C183.888 154.132 183.888 154.133 183.888 154.133C183.887 154.133 183.888 154.132 183.889 154.13C183.891 154.125 183.896 154.116 183.903 154.102C183.916 154.074 183.939 154.028 183.971 153.964C184.035 153.835 184.135 153.635 184.272 153.366C184.546 152.829 184.965 152.022 185.527 150.982C186.649 148.9 188.338 145.886 190.569 142.231C195.039 134.91 201.646 125.073 210.193 115.006C227.451 94.6764 251.771 74.388 281.561 70.5264L279.762 56.6425C244.833 61.1703 217.618 84.627 199.52 105.945C190.389 116.702 183.364 127.165 178.62 134.937C176.244 138.829 174.431 142.061 173.204 144.337C172.59 145.476 172.122 146.377 171.802 147.002C171.643 147.315 171.52 147.56 171.435 147.731C171.392 147.817 171.359 147.884 171.335 147.933C171.323 147.957 171.314 147.976 171.307 147.991C171.303 147.998 171.3 148.005 171.298 148.01C171.296 148.012 171.295 148.015 171.294 148.016C171.293 148.019 171.292 148.021 177.591 151.075ZM281.561 70.5264C311.712 66.618 343.06 78.3563 367.483 91.7451C379.583 98.3779 389.731 105.276 396.849 110.514C400.404 113.13 403.192 115.324 405.079 116.853C406.022 117.617 406.739 118.214 407.213 118.614C407.449 118.814 407.625 118.964 407.738 119.061C407.795 119.11 407.836 119.145 407.861 119.167C407.873 119.178 407.881 119.185 407.886 119.189C407.888 119.19 407.889 119.191 407.889 119.192C407.889 119.192 407.889 119.191 407.889 119.191C407.888 119.19 407.887 119.189 412.496 113.921C417.106 108.653 417.104 108.652 417.102 108.65C417.101 108.649 417.099 108.647 417.097 108.646C417.093 108.642 417.088 108.638 417.082 108.633C417.07 108.622 417.054 108.608 417.034 108.591C416.994 108.556 416.937 108.507 416.865 108.445C416.72 108.32 416.511 108.142 416.241 107.914C415.7 107.457 414.911 106.801 413.893 105.976C411.856 104.325 408.895 101.997 405.147 99.2385C397.659 93.728 386.983 86.4687 374.213 79.4687C348.899 65.5917 314.33 52.1616 279.762 56.6425L281.561 70.5264ZM412.496 113.921C419.069 116.328 419.068 116.33 419.068 116.332C419.068 116.333 419.067 116.334 419.067 116.334C419.067 116.335 419.067 116.333 419.069 116.33C419.071 116.324 419.076 116.31 419.084 116.289C419.1 116.247 419.126 116.177 419.164 116.079C419.239 115.883 419.358 115.577 419.522 115.169C419.85 114.352 420.359 113.126 421.057 111.551C422.453 108.4 424.603 103.86 427.58 98.4167C433.543 87.5137 442.772 73.0719 455.821 58.8984C481.838 30.6408 522.895 3.53778 583.998 7.36263L584.873 -6.61002C518.525 -10.7632 473.612 18.9063 445.522 49.4157C431.518 64.6257 421.659 80.0661 415.297 91.6993C412.112 97.5238 409.791 102.416 408.257 105.88C407.489 107.612 406.917 108.989 406.532 109.948C406.339 110.428 406.193 110.803 406.092 111.067C406.041 111.199 406.002 111.303 405.974 111.378C405.96 111.415 405.948 111.445 405.94 111.468C405.936 111.48 405.932 111.489 405.929 111.497C405.928 111.501 405.926 111.505 405.925 111.507C405.924 111.511 405.923 111.515 412.496 113.921ZM746.82 113.483C753.545 111.54 753.544 111.537 753.543 111.532C753.542 111.53 753.541 111.526 753.539 111.522C753.537 111.514 753.534 111.504 753.531 111.492C753.524 111.469 753.515 111.438 753.504 111.4C753.481 111.324 753.449 111.219 753.409 111.087C753.328 110.821 753.21 110.444 753.054 109.964C752.741 109.002 752.276 107.624 751.642 105.892C750.375 102.428 748.433 97.5375 745.7 91.7158C740.242 80.0906 731.581 64.6495 718.756 49.4324C692.978 18.8461 650.367 -10.7585 583.999 -6.61006L584.872 7.36267C645.906 3.54765 684.488 30.4966 708.051 58.4547C719.897 72.5097 727.944 86.8386 733.027 97.6653C735.564 103.07 737.35 107.575 738.494 110.702C739.066 112.264 739.476 113.479 739.738 114.288C739.869 114.692 739.964 114.994 740.022 115.186C740.052 115.282 740.073 115.351 740.085 115.391C740.091 115.412 740.094 115.425 740.096 115.431C740.097 115.433 740.097 115.435 740.097 115.434C740.097 115.434 740.096 115.432 740.096 115.432C740.096 115.429 740.095 115.426 746.82 113.483ZM879.554 56.2046C844.986 51.7236 810.417 65.1538 785.103 79.0308C772.333 86.0308 761.657 93.2901 754.169 98.8006C750.421 101.559 747.46 103.887 745.423 105.538C744.405 106.363 743.616 107.019 743.075 107.476C742.805 107.704 742.596 107.882 742.451 108.007C742.379 108.069 742.322 108.118 742.282 108.153C742.262 108.17 742.246 108.184 742.234 108.195C742.228 108.2 742.223 108.204 742.219 108.208C742.217 108.209 742.215 108.211 742.214 108.212C742.212 108.214 742.21 108.215 746.82 113.483C751.429 118.751 751.428 118.752 751.427 118.753C751.427 118.753 751.427 118.754 751.427 118.754C751.427 118.754 751.428 118.753 751.43 118.751C751.435 118.747 751.443 118.74 751.455 118.729C751.48 118.707 751.521 118.672 751.577 118.623C751.691 118.526 751.867 118.376 752.103 118.176C752.577 117.776 753.294 117.179 754.237 116.415C756.123 114.887 758.912 112.693 762.467 110.076C769.585 104.838 779.733 97.94 791.833 91.3071C816.256 77.9184 847.604 66.1801 877.755 70.0885L879.554 56.2046ZM981.725 150.637C988.024 147.583 988.023 147.581 988.022 147.578C988.021 147.577 988.02 147.574 988.018 147.572C988.016 147.567 988.013 147.56 988.009 147.553C988.002 147.538 987.993 147.519 987.981 147.495C987.957 147.446 987.924 147.379 987.881 147.293C987.796 147.122 987.673 146.878 987.514 146.565C987.194 145.939 986.726 145.038 986.112 143.899C984.885 141.623 983.072 138.391 980.696 134.499C975.952 126.727 968.927 116.264 959.796 105.507C941.698 84.1891 914.483 60.7324 879.554 56.2046L877.755 70.0885C907.545 73.9501 931.865 94.2384 949.123 114.568C957.67 124.636 964.277 134.472 968.747 141.793C970.978 145.448 972.667 148.462 973.789 150.544C974.351 151.584 974.77 152.391 975.044 152.928C975.181 153.197 975.281 153.397 975.345 153.526C975.377 153.59 975.4 153.637 975.414 153.664C975.42 153.678 975.425 153.687 975.427 153.692C975.428 153.694 975.429 153.695 975.428 153.695C975.428 153.695 975.428 153.694 975.428 153.694C975.427 153.692 975.427 153.691 981.725 150.637ZM1070.2 133.354C1061.89 126.185 1051.48 123.855 1041.34 123.918C1031.23 123.98 1020.79 126.417 1011.59 129.459C1002.33 132.518 993.994 136.301 987.995 139.301C984.986 140.805 982.543 142.124 980.839 143.074C979.987 143.549 979.319 143.933 978.856 144.202C978.625 144.337 978.445 144.443 978.319 144.518C978.256 144.555 978.206 144.585 978.171 144.606C978.153 144.617 978.138 144.625 978.128 144.632C978.122 144.635 978.118 144.638 978.114 144.64C978.112 144.641 978.11 144.643 978.109 144.643C978.107 144.644 978.105 144.645 981.725 150.637C985.345 156.628 985.344 156.629 985.343 156.63C985.343 156.63 985.342 156.63 985.342 156.63C985.342 156.63 985.342 156.63 985.344 156.629C985.347 156.627 985.353 156.623 985.363 156.617C985.383 156.605 985.417 156.585 985.463 156.558C985.557 156.502 985.703 156.416 985.899 156.302C986.292 156.073 986.885 155.732 987.658 155.302C989.203 154.44 991.46 153.221 994.256 151.823C999.868 149.017 1007.56 145.535 1015.98 142.751C1024.46 139.951 1033.34 137.968 1041.43 137.918C1049.5 137.868 1056.16 139.733 1061.04 143.95L1070.2 133.354ZM1084.8 206.966C1091.71 208.058 1091.71 208.055 1091.71 208.053C1091.71 208.052 1091.71 208.049 1091.71 208.047C1091.71 208.043 1091.71 208.038 1091.71 208.032C1091.72 208.021 1091.72 208.007 1091.72 207.99C1091.73 207.956 1091.73 207.911 1091.74 207.855C1091.76 207.744 1091.78 207.59 1091.81 207.395C1091.86 207.004 1091.93 206.449 1092.01 205.747C1092.17 204.344 1092.36 202.346 1092.5 199.89C1092.77 194.992 1092.86 188.197 1092.06 180.615C1090.49 165.686 1085.36 146.455 1070.2 133.354L1061.04 143.95C1072.24 153.62 1076.71 168.546 1078.13 182.081C1078.83 188.731 1078.77 194.746 1078.52 199.098C1078.4 201.267 1078.23 203.006 1078.1 204.182C1078.03 204.77 1077.97 205.216 1077.93 205.504C1077.91 205.647 1077.9 205.752 1077.89 205.814C1077.89 205.845 1077.88 205.866 1077.88 205.876C1077.88 205.881 1077.88 205.884 1077.88 205.883C1077.88 205.883 1077.88 205.882 1077.88 205.881C1077.88 205.88 1077.88 205.879 1077.88 205.878C1077.88 205.876 1077.88 205.874 1084.8 206.966ZM1164.76 219.948C1161.5 203.955 1154.56 193.591 1144.81 188.2C1135.29 182.933 1124.55 183.245 1115.33 185.303C1106.04 187.376 1097.38 191.417 1091.17 194.815C1088.04 196.532 1085.45 198.126 1083.64 199.3C1082.73 199.888 1082.01 200.373 1081.51 200.718C1081.26 200.891 1081.07 201.028 1080.93 201.127C1080.86 201.176 1080.8 201.216 1080.76 201.245C1080.74 201.259 1080.73 201.271 1080.71 201.28C1080.71 201.285 1080.7 201.289 1080.7 201.292C1080.69 201.294 1080.69 201.296 1080.69 201.297C1080.69 201.299 1080.69 201.3 1084.8 206.966C1088.91 212.632 1088.9 212.633 1088.9 212.634C1088.9 212.635 1088.9 212.636 1088.9 212.636C1088.9 212.636 1088.9 212.636 1088.9 212.636C1088.9 212.634 1088.91 212.63 1088.92 212.624C1088.94 212.611 1088.97 212.587 1089.02 212.554C1089.11 212.489 1089.26 212.385 1089.46 212.247C1089.86 211.971 1090.46 211.56 1091.25 211.05C1092.83 210.029 1095.11 208.618 1097.9 207.095C1103.52 204.013 1110.89 200.639 1118.38 198.967C1125.94 197.279 1132.73 197.516 1138.04 200.451C1143.12 203.262 1148.32 209.378 1151.05 222.748L1164.76 219.948Z" fill="#76B8B0" mask="url(#path-1-inside-1_379_73)"/>
</svg>
