<svg width="1035" height="369" viewBox="0 0 1035 369" fill="none" xmlns="http://www.w3.org/2000/svg">
<path d="M991.097 173.213C1009.84 186.156 1044.72 212.042 1014.52 253.568C1037.61 292.937 1056.39 370.088 925.192 342.907C899.681 350.278 835.327 344.309 830.746 315.403C777.642 363.154 664.772 359.918 640.198 301.674C602.193 332.953 525.98 393.17 470.169 328.885C454.551 351.716 398.428 380.982 298.885 315.403C275.284 345.963 207.152 394.033 123.436 341.829C123.436 347.222 -33.7913 353.154 12.5439 292.752C17.9235 272.978 34.7219 237.96 58.8787 256.08C64.7794 237.564 85.9518 204.415 123.436 219.947C123.436 224.801 153.418 129.638 252.029 151.996C254.111 155.231 242.231 116.448 284.094 110.762C283.4 99.2572 295.652 66.1084 321.058 66.5398C368.955 27.5306 471.627 -23.492 537.85 92.1335C565.75 84.876 610.737 92.1335 610.737 151.996C615.943 156.849 645.925 77.8651 704.755 129.53C710.482 133.844 691.219 81.8868 738.289 81.8868C782.848 1.17679 885.312 -42.7989 959.032 81.8868C995.782 100.408 1014.52 125.755 991.097 173.213Z" fill="white" stroke="#76B8B0" stroke-width="8" stroke-linejoin="round"/>
</svg>
