<svg width="1035" height="369" viewBox="0 0 1035 369" fill="none" xmlns="http://www.w3.org/2000/svg">
<path d="M991.097 173.213C1009.84 186.156 1044.72 212.042 1014.52 253.568C1037.61 292.937 1056.39 370.088 925.192 342.907C899.681 350.278 835.327 344.309 830.746 315.403C777.642 363.154 664.772 359.918 640.198 301.674C602.193 332.953 525.98 393.17 470.169 328.885C454.551 351.716 398.428 380.982 298.885 315.403C275.284 345.963 207.152 394.033 123.436 341.829C123.436 347.222 -33.7913 353.154 12.5439 292.752C17.9235 272.978 34.7219 237.96 58.8787 256.08C64.7794 237.564 85.9518 204.415 123.436 219.947C123.436 224.801 153.418 129.638 252.029 151.996C254.111 155.231 242.231 116.448 284.094 110.762C283.4 99.2572 295.652 66.1084 321.058 66.5398C368.955 27.5306 471.627 -23.492 537.85 92.1335C565.75 84.876 610.737 92.1335 610.737 151.996C615.943 156.849 645.925 77.8651 704.755 129.53C710.482 133.844 691.219 81.8868 738.289 81.8868C782.848 1.17679 885.312 -42.7989 959.032 81.8868C995.782 100.408 1014.52 125.755 991.097 173.213Z" fill="white" stroke="#76B8B0" stroke-width="8" stroke-linejoin="round"/>
<path d="M783.501 63.0001C783.501 63.0001 815.5 34.9998 852 34.0002C888.5 33.0007 919 62.9995 919 62.9995" stroke="#76B8B0" stroke-width="4"/>
<path d="M372.061 59.5034C372.061 59.5034 416.5 42.4997 450.5 49.0001C484.5 55.5005 493.061 74.5034 493.061 74.5034" stroke="#76B8B0" stroke-width="4"/>
<path d="M504.876 329.516C504.876 329.516 523.5 336.484 540.5 333.5C557.5 330.516 590.876 307.516 590.876 307.516" stroke="#76B8B0" stroke-width="4"/>
<path d="M329.5 310.5C329.5 310.5 385.5 333.895 407.5 331C429.5 328.105 443.5 321.5 443.5 321.5" stroke="#76B8B0" stroke-width="4"/>
<path d="M685.067 299.506C685.067 299.506 708.5 314.982 733.5 317C758.5 319.018 796.5 308 796.5 308" stroke="#76B8B0" stroke-width="4"/>
<path d="M161.5 340.499C161.5 340.499 203 345.995 224 340.499C245 335.004 259.934 324.503 259.934 324.503" stroke="#76B8B0" stroke-width="3"/>
<path d="M161.5 340.499C161.5 340.499 203 345.995 224 340.499C245 335.004 259.934 324.503 259.934 324.503" stroke="#76B8B0" stroke-width="3"/>
<path d="M156 206.369C156 206.369 166 189.059 186.5 175.559C207 162.059 224 165.5 224 165.5" stroke="#76B8B0" stroke-width="3"/>
<path d="M156 206.369C156 206.369 166 189.059 186.5 175.559C207 162.059 224 165.5 224 165.5" stroke="#76B8B0" stroke-width="3"/>
<path d="M943.669 329.625C943.669 329.625 986 329.625 998.5 317C1011 304.375 1003.67 276.625 1003.67 276.625" stroke="#76B8B0" stroke-width="4"/>
</svg>
