<?xml version="1.0" standalone="no"?>
<!DOCTYPE svg PUBLIC "-//W3C//DTD SVG 20010904//EN"
 "http://www.w3.org/TR/2001/REC-SVG-20010904/DTD/svg10.dtd">
<svg version="1.0" xmlns="http://www.w3.org/2000/svg"
 width="512.000000pt" height="512.000000pt" viewBox="0 0 512.000000 512.000000"
 preserveAspectRatio="xMidYMid meet">
<metadata>
Created by potrace 1.14, written by Peter Selinger 2001-2017
</metadata>
<g transform="translate(0.000000,512.000000) scale(0.100000,-0.100000)"
fill="#000000" stroke="none">
<path d="M2075 5016 c-95 -37 -215 -95 -233 -113 -7 -7 -19 -13 -26 -13 -7 0
-23 -9 -36 -20 -13 -11 -26 -20 -30 -20 -8 0 -108 -73 -131 -95 -9 -8 -20 -15
-25 -15 -5 0 -16 -8 -25 -17 -8 -10 -43 -43 -78 -73 -35 -30 -78 -70 -95 -89
-17 -19 -45 -49 -61 -66 -53 -57 -95 -109 -114 -141 -11 -18 -63 -61 -118 -97
-592 -396 -985 -1027 -1078 -1730 -17 -132 -19 -235 -6 -256 7 -10 35 -16 93
-18 146 -7 248 -43 309 -110 121 -134 191 -353 192 -598 0 -179 -25 -294 -95
-427 l-30 -57 20 -33 c12 -18 32 -44 46 -57 l24 -23 12 23 c12 21 14 19 35
-37 33 -89 124 -211 138 -187 2 4 14 46 26 93 37 140 91 302 121 355 15 28 33
72 39 98 15 62 86 204 158 316 365 565 1115 988 1963 1106 241 34 727 31 1005
-6 321 -43 686 -155 951 -292 83 -44 84 -44 90 -22 3 12 4 36 2 51 -3 26 -15
35 -115 84 -117 58 -360 149 -478 179 -38 9 -70 22 -72 28 -7 19 77 103 127
128 73 37 159 55 264 55 90 0 100 -2 154 -32 31 -17 72 -43 90 -56 l32 -24 0
54 0 55 -57 37 c-32 21 -78 41 -102 46 -33 6 -54 18 -78 45 -18 21 -33 40 -33
44 0 4 -11 14 -25 21 -14 7 -25 18 -25 23 0 5 -13 24 -30 41 -68 71 -94 106
-152 211 -33 61 -69 121 -78 135 -9 14 -38 89 -64 168 -26 78 -53 148 -60 155
-6 6 -18 26 -25 44 -16 38 -53 51 -87 28 -13 -8 -24 -22 -24 -31 0 -9 -53 35
-120 97 -75 71 -118 119 -115 127 3 8 35 62 71 120 87 137 144 250 144 283 0
33 -28 59 -63 59 -15 0 -86 -22 -158 -50 -72 -27 -138 -50 -147 -50 -15 0 -17
18 -17 166 l0 167 -26 19 c-42 32 -40 33 -331 -276 l-76 -81 -34 13 c-94 38
-334 113 -419 131 -256 55 -598 70 -839 37 -63 -9 -120 -16 -127 -16 -8 0 -10
16 -7 53 3 28 5 59 5 67 1 23 32 93 51 114 10 11 18 23 18 27 0 4 10 11 23 15
12 4 24 9 27 13 3 3 23 15 45 26 47 23 56 54 26 84 -27 27 -39 26 -136 -13z
m-318 -418 c0 -29 5 -71 11 -92 6 -22 9 -43 6 -47 -2 -4 0 -10 5 -14 6 -3 8
-12 4 -20 -3 -8 -1 -15 5 -15 5 0 10 -11 10 -24 0 -14 8 -36 19 -49 10 -14 25
-43 33 -66 7 -22 17 -41 22 -41 5 0 14 -13 19 -30 6 -16 14 -28 17 -26 4 2 16
-7 27 -21 34 -42 111 -113 123 -113 4 0 18 -10 32 -22 14 -13 42 -31 63 -40
20 -10 37 -22 37 -28 0 -5 4 -9 9 -8 10 4 145 -64 149 -74 2 -5 10 -8 18 -8
19 0 94 -31 94 -39 0 -12 -229 -29 -334 -25 -56 3 -135 9 -176 15 -41 5 -144
13 -228 16 -135 5 -154 8 -163 25 -9 17 -11 17 -26 3 -31 -31 -40 -1 -28 95 4
30 8 69 10 85 6 57 17 120 26 151 5 17 11 46 14 65 18 151 30 208 50 244 27
46 126 155 141 155 6 0 11 -23 11 -52z m1948 -298 c-4 -6 -18 -15 -31 -20 -17
-7 -24 -17 -24 -35 0 -23 3 -25 23 -19 12 4 38 15 57 25 19 11 41 19 48 19 30
0 74 -33 88 -66 12 -29 12 -39 0 -68 -17 -40 -67 -70 -102 -62 -38 10 -31 42
12 56 41 14 50 30 34 59 -13 26 -30 26 -80 1 -56 -29 -105 -27 -126 5 -43 65
37 186 90 135 10 -10 15 -23 11 -30z m-175 -95 c7 -8 14 -41 15 -73 1 -31 3
-60 4 -63 0 -3 42 -9 93 -13 99 -8 121 -17 116 -50 -3 -20 -9 -21 -106 -19
l-102 1 55 -61 c63 -70 71 -110 25 -115 -21 -2 -32 6 -57 40 -17 24 -76 88
-132 143 -56 54 -101 107 -101 117 0 9 9 22 21 28 21 12 22 12 84 -43 20 -18
20 -18 23 40 4 77 31 106 62 68z m-2116 -47 c-6 -26 -6 -27 -23 -87 -7 -23
-10 -45 -8 -48 3 -2 1 -19 -4 -36 -6 -18 -11 -63 -13 -100 -2 -37 -6 -70 -8
-73 -3 -2 -28 -7 -57 -11 -58 -7 -62 1 -37 59 8 18 33 78 57 133 23 55 46 102
51 103 4 2 6 8 2 13 -3 5 0 9 6 9 6 0 9 4 6 8 -5 8 20 52 29 52 2 0 2 -10 -1
-22z m1937 -124 c16 -20 1 -48 -29 -52 -28 -4 -52 -39 -52 -75 0 -87 109 -217
182 -217 39 0 53 25 51 91 -2 50 0 59 18 64 69 22 80 -126 14 -192 -28 -28
-40 -33 -82 -33 -157 0 -312 250 -230 371 37 55 100 76 128 43z m-225 -190
c58 -28 131 -118 186 -230 53 -109 57 -147 19 -157 -29 -7 -45 10 -76 81 -15
34 -30 62 -34 62 -3 0 -21 -15 -39 -34 -32 -32 -32 -33 -18 -67 7 -19 20 -60
27 -92 12 -55 11 -59 -9 -79 -20 -20 -22 -20 -46 -4 -16 10 -26 26 -26 40 0
28 -63 213 -91 268 -49 96 -54 183 -12 216 23 17 78 15 119 -4z m-242 -112
c58 -93 146 -274 172 -355 l29 -89 -24 -19 c-36 -29 -58 -8 -87 81 -13 41 -28
81 -33 89 -10 15 -21 10 -79 -36 l-23 -19 31 -107 c33 -113 32 -142 -2 -153
-30 -9 -55 22 -71 91 -17 72 -74 250 -115 361 -33 88 -30 114 14 114 31 0 51
-32 84 -134 14 -42 30 -76 37 -76 6 0 25 14 43 31 l31 31 -52 95 c-48 91 -50
95 -33 114 26 29 51 23 78 -19z m-354 -92 c121 -33 223 -312 178 -487 -16 -63
-88 -138 -143 -149 -55 -10 -119 25 -161 88 -64 96 -97 303 -65 416 14 50 58
103 103 125 39 20 43 20 88 7z m-793 -20 c43 -26 65 -62 61 -101 -6 -60 -68
-66 -100 -9 -21 37 -47 38 -87 4 -87 -73 -74 -297 25 -412 37 -44 73 -54 114
-32 40 21 80 127 60 160 -6 9 -21 11 -55 6 -59 -9 -95 11 -95 53 0 39 14 47
90 56 117 13 121 12 143 -18 25 -33 34 -132 18 -193 -29 -109 -133 -193 -223
-181 -81 11 -162 94 -209 215 -18 47 -23 78 -23 172 -1 100 2 122 22 166 53
116 171 168 259 114z m504 -30 c12 -24 89 -359 97 -425 20 -153 -47 -234 -126
-152 -34 35 -105 181 -142 292 -28 81 -41 103 -35 54 3 -19 12 -97 20 -174 9
-77 18 -154 21 -171 9 -51 -45 -86 -76 -49 -14 17 -45 239 -56 400 -5 80 -3
108 9 137 20 47 57 67 90 49 33 -17 49 -49 106 -200 27 -72 61 -155 75 -184
l26 -52 -5 52 c-3 28 -23 123 -45 212 -43 172 -47 200 -28 219 17 17 59 11 69
-8z m1450 -97 c-5 -17 -15 -29 -28 -31 -33 -5 -36 25 -6 63 25 31 28 33 35 16
4 -11 3 -32 -1 -48z m-2478 3 c41 -17 109 -91 140 -153 29 -57 58 -146 87
-266 21 -84 21 -89 4 -108 -23 -26 -59 -24 -81 4 -10 13 -25 58 -32 101 l-14
76 -34 -6 c-68 -13 -128 -41 -131 -62 -2 -11 6 -55 17 -98 21 -83 17 -107 -19
-119 -33 -11 -59 12 -74 68 -49 171 -77 402 -57 474 16 58 69 103 122 103 22
0 54 -6 72 -14z m2447 -86 c0 -13 -1 -13 -10 0 -5 8 -10 22 -10 30 0 13 1 13
10 0 5 -8 10 -22 10 -30z m636 -8 c7 -4 19 -24 27 -44 15 -36 24 -50 58 -86 8
-9 21 -32 28 -49 8 -18 18 -33 23 -33 5 0 12 -8 15 -17 4 -10 12 -23 17 -30 6
-6 27 -30 46 -54 19 -23 47 -55 63 -71 35 -38 34 -44 -5 -57 -68 -22 -185
-135 -210 -201 -3 -7 -126 13 -133 22 -1 2 -10 27 -19 55 -21 62 -99 185 -147
229 -92 84 -201 134 -331 149 -32 4 -58 12 -59 19 -1 20 -9 96 -11 103 -4 14
13 53 22 53 5 0 7 -7 3 -16 -4 -11 -1 -15 13 -12 13 2 18 -2 16 -14 -2 -15 1
-16 22 -9 19 8 33 4 71 -20 67 -42 121 -58 180 -52 28 2 60 4 72 4 12 0 26 5
30 13 4 7 24 18 44 25 36 12 58 26 113 73 34 30 36 31 52 20z m-3412 -45 c53
-30 77 -65 83 -121 7 -60 -31 -140 -93 -195 l-45 -39 42 -34 c95 -75 108 -101
72 -140 -29 -33 -64 -22 -139 42 -38 32 -72 59 -76 60 -5 0 -8 -54 -8 -120 0
-115 -1 -120 -24 -135 -30 -20 -71 -6 -82 27 -10 32 -11 40 -18 248 -4 102 -9
210 -12 242 -9 97 23 144 118 173 67 21 137 18 182 -8z m2610 -54 c3 -16 8
-37 12 -49 5 -19 0 -22 -48 -28 -29 -4 -71 -10 -93 -13 l-40 -6 62 51 c34 28
64 56 68 62 12 19 33 10 39 -17z m214 -178 c136 -19 216 -57 297 -139 54 -55
125 -169 113 -181 -2 -3 -49 0 -104 5 -281 29 -573 32 -827 9 -65 -6 -120 -10
-121 -8 -8 9 27 117 50 156 45 77 168 141 309 162 91 13 170 12 283 -4z m-707
-186 c-19 -44 -19 -44 -26 -16 -4 15 -11 27 -16 27 -5 0 -9 4 -9 8 0 11 64 42
68 32 1 -4 -6 -27 -17 -51z m-98 -26 c3 -10 6 -44 6 -75 1 -54 0 -58 -21 -58
-19 0 -29 12 -50 61 l-27 60 32 14 c43 19 55 18 60 -2z m-165 -75 c11 -18 23
-45 27 -59 6 -24 4 -27 -32 -33 -105 -20 -338 -92 -484 -151 -124 -51 -351
-163 -427 -211 -29 -19 -55 -34 -58 -34 -3 0 -26 -14 -50 -31 -25 -17 -47 -29
-49 -27 -8 9 -25 115 -25 160 0 86 43 219 92 280 13 17 61 22 308 33 234 11
445 38 570 75 36 10 74 21 85 23 11 3 21 5 22 6 1 0 10 -14 21 -31z m-1228
-123 c0 -13 -43 -85 -52 -85 -5 0 -6 -4 -3 -10 3 -5 2 -10 -3 -10 -4 0 -14
-16 -22 -35 -8 -19 -18 -35 -22 -35 -5 0 -6 -4 -3 -10 3 -5 2 -10 -4 -10 -5 0
-13 -9 -16 -20 -3 -11 -13 -20 -21 -20 -8 0 -15 -11 -15 -25 -2 -31 -2 -31
-18 -80 -7 -22 -18 -45 -25 -50 -10 -10 -13 -17 -21 -56 -2 -9 -21 -70 -43
-135 -36 -107 -54 -180 -57 -240 0 -11 -32 -63 -71 -115 -75 -100 -116 -165
-172 -269 -19 -36 -36 -67 -38 -69 -2 -2 -17 8 -34 23 -17 14 -37 26 -43 26
-6 0 3 15 20 33 17 17 41 52 53 76 18 37 21 53 15 100 -12 97 -56 159 -128
176 l-28 8 25 26 c28 30 56 100 55 140 0 14 -6 46 -12 71 -11 43 -10 48 25
120 21 41 42 80 46 85 4 6 17 25 27 43 11 17 23 32 28 32 4 0 5 5 2 10 -3 6
-2 10 2 10 10 0 83 106 83 120 0 6 9 19 20 30 11 11 20 27 20 35 0 8 7 15 16
15 11 0 14 -6 9 -20 -5 -16 -2 -20 15 -20 24 0 37 -24 23 -43 -6 -6 -13 -22
-15 -34 -4 -16 -2 -20 8 -16 8 3 14 9 14 14 0 5 9 18 21 30 13 13 23 38 25 67
5 53 21 68 84 77 25 3 70 15 100 25 50 17 130 26 130 15z m-1087 -252 c5 -120
4 -133 -11 -133 -35 0 -65 46 -37 56 12 5 12 9 -2 30 -8 13 -11 24 -7 24 5 0
11 26 12 58 4 61 7 89 18 167 l8 50 7 -60 c4 -33 9 -120 12 -192z m427 20 c14
-9 27 -18 29 -19 2 -2 -4 -15 -13 -29 -16 -25 -26 -37 -68 -87 -10 -12 -18
-24 -18 -27 0 -3 -11 -19 -24 -34 -14 -16 -27 -34 -28 -39 -3 -8 -15 -7 -38 0
-19 7 -53 13 -75 14 l-40 3 0 65 0 65 100 52 c108 56 137 62 175 36z m-143
-355 c36 -36 42 -104 13 -140 -26 -34 -48 -36 -56 -4 -7 28 -44 103 -67 137
-26 36 -21 42 34 37 37 -4 58 -12 76 -30z m62 -352 c53 -28 65 -93 29 -157
-39 -69 -48 -54 -64 104 -4 37 -4 67 0 67 4 0 19 -6 35 -14z m31 -381 c67 -35
67 -111 -1 -178 -20 -19 -97 -52 -105 -44 -3 3 3 36 14 74 11 37 23 86 27 108
11 62 16 65 65 40z m-55 -375 c-15 -46 -35 -67 -35 -37 0 6 -3 28 -6 48 -6 34
-4 37 22 46 37 13 39 5 19 -57z"/>
<path d="M1711 4228 c-18 -22 -21 -32 -11 -38 8 -5 9 -10 1 -14 -14 -9 11 -61
34 -69 22 -9 19 28 -4 50 -25 24 -12 55 13 34 19 -16 22 0 5 31 -8 15 -8 19 0
14 6 -4 11 0 11 8 0 25 -23 18 -49 -16z"/>
<path d="M1840 4140 c0 -24 15 -27 24 -4 9 22 8 24 -9 24 -8 0 -15 -9 -15 -20z"/>
<path d="M1619 4058 c-4 -36 -5 -95 -2 -109 5 -22 40 -31 47 -13 3 8 12 14 20
14 18 0 15 78 -4 90 -6 4 -11 11 -11 16 1 5 -10 10 -24 12 -15 2 -26 -2 -26
-10z"/>
<path d="M1844 4038 c-4 -13 -8 -41 -8 -63 -1 -22 -4 -45 -8 -50 -4 -6 -3 -17
3 -25 5 -8 9 -11 9 -7 0 5 7 1 16 -8 21 -21 39 -14 39 16 0 13 13 36 28 52 28
29 31 55 6 48 -8 -2 -23 -6 -34 -9 -18 -5 -18 -4 -6 11 10 13 10 17 1 17 -9 0
-10 3 -1 13 13 16 5 27 -20 27 -10 0 -21 -10 -25 -22z m36 -130 c0 -5 -4 -8
-10 -8 -5 0 -10 10 -10 23 0 18 2 19 10 7 5 -8 10 -18 10 -22z"/>
<path d="M1536 4014 c-8 -22 -6 -23 22 -13 13 5 20 13 17 19 -10 15 -32 12
-39 -6z"/>
<path d="M1730 3959 c0 -5 5 -7 10 -4 6 3 10 8 10 11 0 2 -4 4 -10 4 -5 0 -10
-5 -10 -11z"/>
<path d="M1572 3938 c5 -15 35 -34 43 -27 3 4 3 14 -1 23 -7 18 -48 23 -42 4z"/>
<path d="M1785 3870 c-3 -5 -1 -10 4 -10 6 0 11 5 11 10 0 6 -2 10 -4 10 -3 0
-8 -4 -11 -10z"/>
<path d="M3065 3758 c13 -48 48 -128 54 -128 11 0 51 45 51 56 0 13 -58 68
-88 84 -22 11 -23 10 -17 -12z"/>
<path d="M2454 3515 c-45 -68 -23 -290 36 -371 28 -39 55 -46 84 -23 52 41 59
162 16 284 -43 125 -97 169 -136 110z"/>
<path d="M1125 3400 c-7 -12 -8 -180 -1 -187 10 -11 146 41 146 55 0 26 -53
104 -84 123 -35 21 -52 24 -61 9z"/>
<path d="M727 3248 l-28 -10 7 -76 c4 -43 8 -78 9 -80 8 -9 66 31 98 67 38 42
47 77 25 99 -14 14 -72 14 -111 0z"/>
<path d="M1200 2540 c0 -5 5 -10 11 -10 5 0 7 5 4 10 -3 6 -8 10 -11 10 -2 0
-4 -4 -4 -10z"/>
<path d="M1260 4937 c-14 -6 -31 -17 -38 -24 -20 -20 -76 -16 -96 6 -14 16
-22 17 -51 9 -18 -6 -39 -21 -46 -34 -7 -13 -18 -24 -25 -24 -7 0 -19 -7 -28
-15 -14 -14 -17 -14 -35 2 -12 10 -16 20 -10 23 11 7 2 40 -11 40 -4 0 -10 -9
-13 -20 -3 -11 -17 -22 -33 -25 -40 -9 -55 -18 -77 -47 -13 -18 -17 -33 -12
-45 13 -29 14 -43 4 -43 -5 0 -8 -3 -7 -7 1 -5 -3 -18 -10 -31 -14 -24 -37
-20 -28 4 3 8 -1 14 -8 14 -17 0 -39 -77 -23 -83 6 -2 6 -9 0 -22 -46 -87 -52
-124 -32 -185 10 -30 15 -66 12 -81 -3 -15 2 -40 12 -60 l17 -33 18 46 c22 59
51 101 111 160 26 26 44 49 41 52 -3 3 0 6 5 6 6 0 80 70 165 155 247 249 289
304 198 262z m-280 -166 c-4 -16 -17 -38 -27 -48 -19 -19 -19 -19 -30 3 -8 18
-7 28 10 48 11 14 29 26 38 26 15 0 16 -5 9 -29z"/>
<path d="M4312 2188 c-7 -7 -12 -24 -12 -38 0 -23 17 -38 115 -103 63 -43 123
-77 133 -77 29 0 57 36 46 60 -11 23 -229 170 -253 170 -10 0 -22 -5 -29 -12z"/>
<path d="M4010 2090 c-11 -11 -20 -24 -20 -28 0 -14 24 -39 51 -53 14 -8 102
-67 196 -131 94 -65 180 -118 190 -118 25 0 43 19 43 47 0 25 -17 39 -252 201
-82 56 -157 102 -168 102 -11 0 -29 -9 -40 -20z"/>
<path d="M3435 2056 c-102 -44 -124 -191 -40 -265 79 -69 185 -56 248 33 33
47 30 133 -8 182 -46 60 -130 81 -200 50z"/>
<path d="M3902 1858 c-31 -31 -14 -55 109 -147 129 -97 161 -109 180 -67 7 14
8 30 3 39 -5 9 -59 54 -121 101 -110 85 -145 100 -171 74z"/>
<path d="M2975 1795 c-48 -17 -120 -92 -165 -170 -40 -70 -52 -76 -109 -59
-61 18 -151 18 -189 -2 -57 -28 -112 -115 -112 -177 0 -42 45 -130 88 -175 56
-57 113 -85 207 -102 60 -10 80 -10 139 4 205 48 380 237 394 424 4 60 1 77
-21 123 -56 118 -141 167 -232 134z m55 -334 c65 -27 70 -42 34 -93 -44 -61
-139 -131 -208 -152 -103 -33 -265 -1 -250 48 15 49 24 66 55 100 87 99 254
143 369 97z"/>
<path d="M1840 1491 c-52 -27 -80 -74 -80 -133 0 -135 134 -207 247 -133 63
41 83 145 42 212 -41 66 -139 92 -209 54z"/>
<path d="M1297 1062 c-10 -10 -17 -24 -17 -30 0 -6 37 -78 81 -159 45 -81 95
-173 111 -203 41 -74 47 -80 74 -80 27 0 55 35 46 59 -10 28 -215 395 -230
414 -19 22 -45 22 -65 -1z"/>
<path d="M1592 1058 c-23 -23 -12 -48 64 -158 60 -86 82 -110 100 -110 25 0
54 24 54 44 0 14 -137 217 -154 228 -17 12 -51 9 -64 -4z"/>
<path d="M1078 899 c-10 -5 -18 -17 -18 -25 0 -21 119 -267 133 -276 23 -14
47 -8 63 17 15 23 14 29 -42 147 -70 149 -87 166 -136 137z"/>
</g>
</svg>
