<svg width="1460" height="443" viewBox="0 0 1460 443" fill="none" xmlns="http://www.w3.org/2000/svg">
<g opacity="0.4">
<path d="M0 93.7588C0 82.7131 8.95431 73.7588 20 73.7588H164.336C175.382 73.7588 184.336 82.7131 184.336 93.7588V410.837H0V93.7588Z" fill="#D9D9D9"/>
<path d="M184.336 242.015C184.336 230.969 193.29 222.015 204.336 222.015H314.976C326.022 222.015 334.976 230.969 334.976 242.015V410.837H184.336V242.015Z" fill="#D9D9D9"/>
<path d="M334.976 20C334.976 8.95431 343.93 0 354.976 0H465.616C476.661 0 485.616 8.95431 485.616 20V410.837H334.976V20Z" fill="#D9D9D9"/>
<path d="M485.616 164.567C485.616 153.522 494.571 144.567 505.616 144.567H618.238C629.284 144.567 638.238 153.522 638.238 164.567V410.837H485.616V164.567Z" fill="#D9D9D9"/>
<path d="M638.238 260.837C638.238 249.791 647.193 240.837 658.238 240.837H733.238C744.284 240.837 753.238 249.791 753.238 260.837V410.837H638.238V260.837Z" fill="#D9D9D9"/>
<path d="M753.238 135.801C753.238 124.756 762.193 115.801 773.238 115.801H855.138C866.183 115.801 875.138 124.756 875.138 135.801V410.837H753.238V135.801Z" fill="#D9D9D9"/>
<path d="M875.138 212.837C875.138 201.791 884.092 192.837 895.138 192.837H997.138C1008.18 192.837 1017.14 201.791 1017.14 212.837V410.837H875.138V212.837Z" fill="#D9D9D9"/>
<path d="M1017.14 138.014C1017.14 126.969 1026.09 118.014 1037.14 118.014H1129.94C1140.98 118.014 1149.94 126.968 1149.94 138.014V410.837H1017.14V138.014Z" fill="#D9D9D9"/>
<path d="M1149.94 312.822C1149.94 301.777 1158.89 292.822 1169.94 292.822H1284.54C1295.59 292.822 1304.54 301.777 1304.54 312.822V410.836H1149.94V312.822Z" fill="#D9D9D9"/>
<path d="M1304.54 143.177C1304.54 132.132 1313.5 123.177 1324.54 123.177H1439.15C1450.19 123.177 1459.15 132.132 1459.15 143.177V410.837H1304.54V143.177Z" fill="#D9D9D9"/>
<rect x="25" y="96.2173" width="36" height="37" rx="5" fill="#FFBE74" fill-opacity="0.65"/>
<rect x="74" y="96.2173" width="36" height="37" rx="5" fill="#FFBE74" fill-opacity="0.65"/>
<rect x="123" y="96.2173" width="36" height="37" rx="5" fill="#FFBE74" fill-opacity="0.65"/>
<rect x="25" y="177.217" width="36" height="37" rx="5" fill="#FFBE74" fill-opacity="0.65"/>
<rect x="74" y="177.217" width="36" height="37" rx="5" fill="#FFBE74" fill-opacity="0.65"/>
<rect x="123" y="177.217" width="36" height="37" rx="5" fill="#FFBE74" fill-opacity="0.65"/>
<rect x="25" y="258.217" width="36" height="37" rx="5" fill="#FFBE74" fill-opacity="0.65"/>
<rect x="74" y="258.217" width="36" height="37" rx="5" fill="#FFBE74" fill-opacity="0.65"/>
<rect x="123" y="258.217" width="36" height="37" rx="5" fill="#FFBE74" fill-opacity="0.65"/>
<rect x="25" y="339.217" width="36" height="37" rx="5" fill="#FFBE74" fill-opacity="0.65"/>
<rect x="74" y="339.217" width="36" height="37" rx="5" fill="#FFBE74" fill-opacity="0.65"/>
<rect x="123" y="339.217" width="36" height="37" rx="5" fill="#FFBE74" fill-opacity="0.65"/>
<rect x="350" y="23.0522" width="29" height="30" rx="5" fill="#FFBE74" fill-opacity="0.65"/>
<rect x="396" y="23.0522" width="29" height="30" rx="5" fill="#FFBE74" fill-opacity="0.65"/>
<rect x="442" y="23.0522" width="29" height="30" rx="5" fill="#FFBE74" fill-opacity="0.65"/>
<rect x="350" y="88.0522" width="29" height="30" rx="5" fill="#FFBE74" fill-opacity="0.65"/>
<rect x="396" y="88.0522" width="29" height="30" rx="5" fill="#FFBE74" fill-opacity="0.65"/>
<rect x="442" y="88.0522" width="29" height="30" rx="5" fill="#FFBE74" fill-opacity="0.65"/>
<rect x="350" y="153.053" width="29" height="30" rx="5" fill="#FFBE74" fill-opacity="0.65"/>
<rect x="396" y="153.053" width="29" height="30" rx="5" fill="#FFBE74" fill-opacity="0.65"/>
<rect x="442" y="153.053" width="29" height="30" rx="5" fill="#FFBE74" fill-opacity="0.65"/>
<rect x="350" y="218.053" width="29" height="30" rx="5" fill="#FFBE74" fill-opacity="0.65"/>
<rect x="396" y="218.053" width="29" height="30" rx="5" fill="#FFBE74" fill-opacity="0.65"/>
<rect x="442" y="218.053" width="29" height="30" rx="5" fill="#FFBE74" fill-opacity="0.65"/>
<rect x="350" y="283.053" width="29" height="30" rx="5" fill="#FFBE74" fill-opacity="0.65"/>
<rect x="396" y="283.053" width="29" height="30" rx="5" fill="#FFBE74" fill-opacity="0.65"/>
<rect x="442" y="283.053" width="29" height="30" rx="5" fill="#FFBE74" fill-opacity="0.65"/>
<rect x="350" y="348.053" width="29" height="30" rx="5" fill="#FFBE74" fill-opacity="0.65"/>
<rect x="396" y="348.053" width="29" height="30" rx="5" fill="#FFBE74" fill-opacity="0.65"/>
<rect x="442" y="348.053" width="29" height="30" rx="5" fill="#FFBE74" fill-opacity="0.65"/>
<rect x="208.5" y="236.534" width="39" height="38" rx="5" fill="#FFBE74" fill-opacity="0.65"/>
<rect x="274.5" y="236.534" width="38" height="38" rx="5" fill="#FFBE74" fill-opacity="0.65"/>
<rect x="208.5" y="288.534" width="38" height="37" rx="5" fill="#FFBE74" fill-opacity="0.65"/>
<rect x="273.5" y="288.534" width="39" height="37" rx="5" fill="#FFBE74" fill-opacity="0.65"/>
<rect x="208.5" y="339.534" width="39" height="38" rx="5" fill="#FFBE74" fill-opacity="0.65"/>
<rect x="274.5" y="339.534" width="38" height="38" rx="5" fill="#FFBE74" fill-opacity="0.65"/>
<rect x="656" y="263.595" width="29" height="30" rx="5" fill="#FFBE74" fill-opacity="0.65"/>
<rect x="708" y="263.595" width="29" height="30" rx="5" fill="#FFBE74" fill-opacity="0.65"/>
<rect x="656" y="307.595" width="29" height="30" rx="5" fill="#FFBE74" fill-opacity="0.65"/>
<rect x="708" y="307.595" width="29" height="30" rx="5" fill="#FFBE74" fill-opacity="0.65"/>
<rect x="656" y="351.595" width="29" height="30" rx="5" fill="#FFBE74" fill-opacity="0.65"/>
<rect x="708" y="351.595" width="29" height="30" rx="5" fill="#FFBE74" fill-opacity="0.65"/>
<rect x="891.5" y="217.491" width="29" height="30" rx="5" fill="#FFBE74" fill-opacity="0.65"/>
<rect x="931.5" y="217.491" width="29" height="30" rx="5" fill="#FFBE74" fill-opacity="0.65"/>
<rect x="971.5" y="217.491" width="29" height="30" rx="5" fill="#FFBE74" fill-opacity="0.65"/>
<rect x="891.5" y="285.491" width="29" height="30" rx="5" fill="#FFBE74" fill-opacity="0.65"/>
<rect x="931.5" y="285.491" width="29" height="30" rx="5" fill="#FFBE74" fill-opacity="0.65"/>
<rect x="971.5" y="285.491" width="29" height="30" rx="5" fill="#FFBE74" fill-opacity="0.65"/>
<rect x="891.5" y="353.491" width="29" height="30" rx="5" fill="#FFBE74" fill-opacity="0.65"/>
<rect x="931.5" y="353.491" width="29" height="30" rx="5" fill="#FFBE74" fill-opacity="0.65"/>
<rect x="971.5" y="353.491" width="29" height="30" rx="5" fill="#FFBE74" fill-opacity="0.65"/>
<rect x="1168.5" y="313.708" width="29" height="30" rx="5" fill="#FFBE74" fill-opacity="0.65"/>
<rect x="1212.5" y="313.708" width="29" height="30" rx="5" fill="#FFBE74" fill-opacity="0.65"/>
<rect x="1256.5" y="313.708" width="29" height="30" rx="5" fill="#FFBE74" fill-opacity="0.65"/>
<rect x="1168.5" y="354.708" width="29" height="30" rx="5" fill="#FFBE74" fill-opacity="0.65"/>
<rect x="1212.5" y="354.708" width="29" height="30" rx="5" fill="#FFBE74" fill-opacity="0.65"/>
<rect x="1256.5" y="354.708" width="29" height="30" rx="5" fill="#FFBE74" fill-opacity="0.65"/>
<rect x="1328.5" y="143.323" width="29" height="30" rx="5" fill="#FFBE74" fill-opacity="0.65"/>
<rect x="1366.5" y="143.323" width="29" height="30" rx="5" fill="#FFBE74" fill-opacity="0.65"/>
<rect x="1404.5" y="143.323" width="29" height="30" rx="5" fill="#FFBE74" fill-opacity="0.65"/>
<rect x="1328.5" y="195.323" width="29" height="30" rx="5" fill="#FFBE74" fill-opacity="0.65"/>
<rect x="1366.5" y="195.323" width="29" height="30" rx="5" fill="#FFBE74" fill-opacity="0.65"/>
<rect x="1404.5" y="195.323" width="29" height="30" rx="5" fill="#FFBE74" fill-opacity="0.65"/>
<rect x="1328.5" y="247.323" width="29" height="30" rx="5" fill="#FFBE74" fill-opacity="0.65"/>
<rect x="1366.5" y="247.323" width="29" height="30" rx="5" fill="#FFBE74" fill-opacity="0.65"/>
<rect x="1404.5" y="247.323" width="29" height="30" rx="5" fill="#FFBE74" fill-opacity="0.65"/>
<rect x="1328.5" y="299.323" width="29" height="30" rx="5" fill="#FFBE74" fill-opacity="0.65"/>
<rect x="1366.5" y="299.323" width="29" height="30" rx="5" fill="#FFBE74" fill-opacity="0.65"/>
<rect x="1404.5" y="299.323" width="29" height="30" rx="5" fill="#FFBE74" fill-opacity="0.65"/>
<rect x="1328.5" y="351.323" width="29" height="30" rx="5" fill="#FFBE74" fill-opacity="0.65"/>
<rect x="1366.5" y="351.323" width="29" height="30" rx="5" fill="#FFBE74" fill-opacity="0.65"/>
<rect x="1404.5" y="351.323" width="29" height="30" rx="5" fill="#FFBE74" fill-opacity="0.65"/>
<rect x="1031.5" y="139.314" width="29" height="30" rx="5" fill="#FFBE74" fill-opacity="0.65"/>
<rect x="1069.5" y="139.314" width="29" height="30" rx="5" fill="#FFBE74" fill-opacity="0.65"/>
<rect x="1107.5" y="139.314" width="29" height="30" rx="5" fill="#FFBE74" fill-opacity="0.65"/>
<rect x="1031.5" y="210.314" width="29" height="30" rx="5" fill="#FFBE74" fill-opacity="0.65"/>
<rect x="1069.5" y="210.314" width="29" height="30" rx="5" fill="#FFBE74" fill-opacity="0.65"/>
<rect x="1107.5" y="210.314" width="29" height="30" rx="5" fill="#FFBE74" fill-opacity="0.65"/>
<rect x="1031.5" y="281.314" width="29" height="30" rx="5" fill="#FFBE74" fill-opacity="0.65"/>
<rect x="1069.5" y="281.314" width="29" height="30" rx="5" fill="#FFBE74" fill-opacity="0.65"/>
<rect x="1107.5" y="281.314" width="29" height="30" rx="5" fill="#FFBE74" fill-opacity="0.65"/>
<rect x="1031.5" y="352.314" width="29" height="30" rx="5" fill="#FFBE74" fill-opacity="0.65"/>
<rect x="1069.5" y="352.314" width="29" height="30" rx="5" fill="#FFBE74" fill-opacity="0.65"/>
<rect x="1107.5" y="352.314" width="29" height="30" rx="5" fill="#FFBE74" fill-opacity="0.65"/>
<rect x="507" y="170.385" width="29" height="30" rx="5" fill="#FFBE74" fill-opacity="0.65"/>
<rect x="548" y="170.385" width="29" height="30" rx="5" fill="#FFBE74" fill-opacity="0.65"/>
<rect x="589" y="170.385" width="29" height="30" rx="5" fill="#FFBE74" fill-opacity="0.65"/>
<rect x="507" y="230.385" width="29" height="30" rx="5" fill="#FFBE74" fill-opacity="0.65"/>
<rect x="548" y="230.385" width="29" height="30" rx="5" fill="#FFBE74" fill-opacity="0.65"/>
<rect x="589" y="230.385" width="29" height="30" rx="5" fill="#FFBE74" fill-opacity="0.65"/>
<rect x="507" y="290.385" width="29" height="30" rx="5" fill="#FFBE74" fill-opacity="0.65"/>
<rect x="548" y="290.385" width="29" height="30" rx="5" fill="#FFBE74" fill-opacity="0.65"/>
<rect x="589" y="290.385" width="29" height="30" rx="5" fill="#FFBE74" fill-opacity="0.65"/>
<rect x="507" y="350.385" width="29" height="30" rx="5" fill="#FFBE74" fill-opacity="0.65"/>
<rect x="548" y="350.385" width="29" height="30" rx="5" fill="#FFBE74" fill-opacity="0.65"/>
<rect x="589" y="350.385" width="29" height="30" rx="5" fill="#FFBE74" fill-opacity="0.65"/>
<rect x="773.5" y="139.589" width="29" height="30" rx="5" fill="#FFBE74" fill-opacity="0.65"/>
<rect x="825.5" y="139.589" width="29" height="30" rx="5" fill="#FFBE74" fill-opacity="0.65"/>
<rect x="773.5" y="210.589" width="29" height="30" rx="5" fill="#FFBE74" fill-opacity="0.65"/>
<rect x="825.5" y="210.589" width="29" height="30" rx="5" fill="#FFBE74" fill-opacity="0.65"/>
<rect x="773.5" y="281.589" width="29" height="30" rx="5" fill="#FFBE74" fill-opacity="0.65"/>
<rect x="825.5" y="281.589" width="29" height="30" rx="5" fill="#FFBE74" fill-opacity="0.65"/>
<rect x="773.5" y="352.589" width="29" height="30" rx="5" fill="#FFBE74" fill-opacity="0.65"/>
<rect x="825.5" y="352.589" width="29" height="30" rx="5" fill="#FFBE74" fill-opacity="0.65"/>
</g>
</svg>
