<svg width="597" height="705" viewBox="0 0 597 705" fill="none" xmlns="http://www.w3.org/2000/svg">
<path d="M580.062 559.57C551.24 525.069 529.396 531.903 520.062 538.57L531.562 569.07L557.562 600.07C576.396 599.237 585.075 565.57 580.062 559.57Z" fill="#FDA747"/>
<path d="M576.562 585.57C560.162 577.57 542.396 547.904 535.562 534.07H516.562L529.562 571.07L559.562 600.07L576.562 585.57Z" fill="#FB6D13"/>
<path d="M517.062 537.07C527.896 532.07 554.662 528.27 575.062 553.07C589.869 571.07 577.062 596.57 558.562 598.57" stroke="black" stroke-width="12"/>
<path d="M575.062 463.57C569.062 426.77 537.229 416.57 520.562 416.07L515.062 517.07C537.562 514.57 581.062 500.37 575.062 463.57Z" fill="#FDA747"/>
<path d="M571.062 463.57C558.263 479.97 538.729 490.737 530.562 494.07L535.062 418.57L520.562 414.07L516.062 516.57C569.662 507.77 575.062 477.57 571.062 463.57Z" fill="#FB6D13"/>
<path d="M519.562 414.57C535.729 415.404 574.062 428.57 574.062 467.07C574.062 503.57 535.562 517.57 513.062 515.57" stroke="black" stroke-width="12"/>
<path d="M573.562 329.071C568.362 286.671 533.396 282.071 516.562 285.071L521.562 387.57C541.062 385.737 578.763 371.471 573.562 329.071Z" fill="#FDA747"/>
<path d="M571.562 324.07C571.162 330.47 554.062 351.57 543.062 359.07C540.062 328.07 537.562 313.57 530.062 283.57H513.062L522.062 387.57C574.463 379.17 576.896 341.737 571.562 324.07Z" fill="#FB6D13"/>
<path d="M513.062 284.069C530.396 280.902 566.863 285.969 574.062 331.569C579.826 368.07 542.062 388.07 521.062 386.068" stroke="black" stroke-width="12"/>
<path d="M540.062 192.07C524.463 150.87 484.562 154.903 466.562 162.07L493.062 208.07L508.562 264.57C525.562 257.57 555.662 233.27 540.062 192.07Z" fill="#FDA747"/>
<path d="M536.562 188.57L524.062 220.57C512.562 195.07 503.562 181.07 490.062 157.07L466.062 162.07L492.062 208.57L510.562 265.07C557.363 239.07 547.396 203.237 536.562 188.57Z" fill="#FB6D13"/>
<path d="M464.562 162.57C480.896 154.237 522.963 147.747 541.562 196.57C553.562 228.07 534.062 255.57 510.062 264.57" stroke="black" stroke-width="12"/>
<path d="M430.562 53.0699C387.763 25.4699 352.396 52.2366 340.062 69.0699L398.562 97.0703L449.562 139.57C461.062 122.237 473.363 80.6699 430.562 53.0699Z" fill="#FDA747"/>
<path d="M431.062 53.5703L432.562 88.0703C404.562 71.5703 385.562 63.0703 357.062 52.0703L338.562 72.0703C359.896 80.9036 403.062 98.9703 405.062 100.57C407.062 102.17 435.562 126.57 449.562 138.57C476.062 94.0703 447.896 63.737 431.062 53.5703Z" fill="#FB6D13"/>
<path d="M338.562 72.5698C349.396 55.2364 382.162 26.6698 426.562 51.0698C470.963 75.4698 463.062 116.57 449.562 138.57" stroke="black" stroke-width="12" stroke-linejoin="round"/>
<path d="M182.562 70.5697C181.229 50.903 191.362 10.5697 242.562 6.56967C293.762 2.56967 310.229 43.2363 312.062 64.0697L242.562 62.0703L182.562 70.5697Z" fill="#FDA747"/>
<path d="M217.062 47.0703C199.462 49.0703 190.062 43.5703 187.562 40.5703L181.562 70.5703L242.062 62.5703C265.896 65.4036 313.462 70.6703 313.062 69.0703C312.663 67.4703 302.562 42.737 297.562 30.5703C292.562 36.0703 291.062 35.0703 275.062 40.5703C270.833 42.0241 262.062 44.5703 247.062 44.5703C232.062 44.5703 239.062 44.5703 217.062 47.0703Z" fill="#FB6D13"/>
<path d="M182.063 71.0698C180.896 50.2364 191.963 8.06976 245.563 6.06976C299.163 4.06976 311.062 45.5703 311.062 67.0698" stroke="black" stroke-width="12" stroke-linejoin="round"/>
<path d="M93.5625 458.57C101.396 432.57 117.062 380.07 117.062 378.07L90.0625 353.57L56.0625 336.07L26.0625 339.57L9.5625 356.57L7.0625 386.57L24.5625 415.57L58.0625 445.07L93.5625 458.57Z" fill="#6EBCB1"/>
<path d="M108.062 373.57C97.5625 381.57 90.7287 404.237 86.562 417.07C36.5625 403.07 12.0625 377.07 14.0621 353.57C11.0621 362.237 4.86205 379.97 4.06205 381.57C3.26205 383.17 10.3954 397.237 14.0621 404.07L51.562 440.07L94.562 459.07L118.562 381.57L108.062 373.57Z" fill="#2F8A7A"/>
<path d="M119.562 382.07C112.562 369.57 94.0615 355.07 80.0615 347.07C66.0616 339.07 53.0615 332.57 37.0615 335.57C27.7371 337.318 16.0615 342.569 10.5615 360.069C5.06152 377.569 4.06152 388.069 13.0615 402.069C22.0615 416.069 50.0615 447.069 92.0615 457.569" stroke="black" stroke-width="12"/>
<path d="M162.562 75.0703L115.562 98.0703L98.0625 117.07C90.7292 126.404 75.9625 145.37 75.5625 146.57L59.0625 196.07L53.0625 228.57L56.0625 269.07L80.5625 307.57L131.562 340.07V348.07L108.562 399.07L94.5625 450.07L86.0625 563.57L89.5625 627.57L108.562 657.57L134.062 674.07L183.562 681.57L204.062 674.07L217.062 634.07L232.062 621.07L246.562 637.57V669.07L264.062 688.57L309.062 695.07H381.562L394.562 681.57L406.562 641.57L444.562 674.07L488.562 681.57L527.562 674.07L565.062 657.57L589.562 621.07L558.062 602.07L533.562 574.07L515.562 536.07V491.57L521.562 357.57L511.062 266.57L485.562 196.57L444.062 135.07L381.062 86.5703L312.562 67.5703C292.562 65.9036 251.863 62.5703 249.062 62.5703C246.262 62.5703 190.229 70.9036 162.562 75.0703Z" fill="#6EBCB1" stroke="black"/>
<path d="M526.062 652.07C541.663 650.87 569.896 628.57 582.062 617.57L589.562 625.07L563.562 656.57L523.562 676.57L466.562 679.07L442.062 669.57L404.562 642.07L392.562 689.57L368.562 697.07L269.062 689.57L253.562 674.07L380.562 679.07C387.062 640.07 410.562 628.424 418.562 635.57C456.062 669.07 506.562 653.57 526.062 652.07Z" fill="#2F8A7A"/>
<path d="M195.062 665.57C200.262 628.37 216.896 622.737 224.562 624.57L213.062 651.07L195.062 679.57L161.062 682.57L111.562 665.57L90.0625 629.07V596.07C94.0625 616.07 114.062 649.07 125.562 659.57L195.062 665.57Z" fill="#2F8A7A"/>
<path d="M132.562 324.57C100.062 307.07 68.2292 270.57 54.0625 251.57L66.0625 287.57L87.5625 313.07L115.562 331.57L130.062 342.07V357.07C134.062 353.57 152.562 335.34 132.562 324.57Z" fill="#2F8A7A"/>
<path d="M130 88.5C86.084 114.07 45.0853 198.501 54.501 255.001C62.5002 303.001 112.499 328.501 130.999 342.001C133.499 345.501 133.362 353.172 118.562 381.572C100.062 417.072 97.5619 444.572 94.0619 457.572C89.4849 474.572 91.0619 501.572 88.0619 532.572C85.0445 563.751 86.5618 620.071 93.0618 635.071C96.6623 643.38 108.562 672.572 154.062 679.572C195.349 685.924 203.062 675.072 205.562 670.072C208.562 664.072 216.562 619.072 232.062 622.572C247.562 626.072 245.562 648.057 245.562 656.572C245.562 673.572 259.062 686.072 272.062 690.072C285.062 694.072 315.062 696.572 325.062 697.072C338.545 697.746 374.062 701.572 389.562 691.572C399.333 685.269 397.562 664.072 405.562 641.072C423.562 657.572 441.562 677.989 474.062 680.072C538.998 684.234 580.562 649.572 590.061 623.071C531.062 585.572 511.896 555.386 514.561 502.071C518.061 432.071 525.048 394.572 518.061 318.07C507.534 202.794 446.91 102.125 346.061 74.0724C270.562 53.0711 169.501 65.5011 130 88.5Z" stroke="black" stroke-width="13" stroke-linejoin="round"/>
<path d="M276.562 450.07C260.162 408.87 239.562 390.672 211.062 387.57C206.562 387.08 148.543 390.641 127.062 469.569C122.792 485.258 122.939 498.965 123.563 510.07C126.3 558.781 168.481 566.571 201.062 566.571C232.063 566.571 264.217 555.858 276.562 539.07C289.062 522.071 290.494 485.071 276.562 450.07Z" fill="#A1D4C7" stroke="black" stroke-width="12"/>
<path d="M173.562 503.57L199.062 533.07" stroke="#2F8A7A" stroke-width="16" stroke-linecap="round"/>
<path d="M209.062 505.57L179.062 531.07" stroke="#2F8A7A" stroke-width="16" stroke-linecap="round"/>
<path d="M205.562 501.57L174.062 529.07" stroke="black" stroke-width="7" stroke-linecap="round"/>
<path d="M174.562 503.57L202.062 534.07" stroke="black" stroke-width="7" stroke-linecap="round"/>
<path d="M371.562 433.57C366.979 435.371 365.896 445.57 365.062 451.07H392.562L421.062 437.07L442.062 403.07V364.07L431.062 343.57C430.562 407.57 385.562 428.07 371.562 433.57Z" fill="#2F8A7A"/>
<path d="M330.062 376.57C341.062 369.071 360.863 343.37 368.062 338.57C377.062 332.57 399.926 317.3 425.062 338.57C451.062 360.571 444.581 403.72 433.062 420.07C417.562 442.071 400.062 452.071 368.562 453.07" stroke="black" stroke-width="12" stroke-linecap="round"/>
<path d="M298.562 148.069C297.35 149.282 279.896 163.903 270.562 171.569C268.063 173.57 265.799 173.188 263.563 172.07C261.563 171.07 261.062 170.57 259.562 168.57C258.214 166.771 259.052 165.092 259.553 164.089L259.562 164.07C265.729 154.57 278.913 135.718 280.562 134.069C282.063 132.57 285.729 133.236 287.062 133.569C288.396 133.903 293.063 136.37 297.063 139.57C300.563 142.37 299.563 147.07 298.562 148.069Z" fill="black"/>
<path d="M168.063 137.569L180.562 165.57C181.562 167.57 181.765 171.27 179.062 173.07C176.36 174.871 171.562 173.569 170.062 172.069L147.063 149.569C145.063 147.069 145.79 140.257 152.563 135.569C159.063 131.07 166.062 133.569 168.063 137.569Z" fill="black"/>
<circle cx="299.562" cy="192.57" r="17.5" fill="black"/>
<circle cx="299.562" cy="192.57" r="17.5" fill="black"/>
<circle cx="136.062" cy="191.07" r="15" fill="black"/>
<circle cx="136.062" cy="191.07" r="15" fill="black"/>
<path d="M110.061 229.071C105.309 246.288 82.0604 253.966 63.8898 250.116C45.7192 246.265 23.592 229.961 28.5618 211.571C33.5615 193.07 56.5615 186.904 76.3943 191.107C98.4409 195.779 114.492 213.014 110.061 229.071Z" fill="#FDA747"/>
<path d="M412.617 217.779C416.214 235.364 398.076 253.926 372.104 259.239C346.132 264.551 321.062 255.07 318.565 237.017C314.967 219.432 331.062 200.071 359.078 195.557C385.05 190.245 409.02 200.193 412.617 217.779Z" fill="#FDA747"/>
<path d="M47.0625 207.57L57.0625 230.57" stroke="black" stroke-width="10" stroke-linecap="round" stroke-linejoin="round"/>
<path d="M79.0625 206.07L91.0625 233.07" stroke="black" stroke-width="10" stroke-linecap="round" stroke-linejoin="round"/>
<path d="M336.062 222.07L354.062 248.57" stroke="black" stroke-width="10" stroke-linecap="round" stroke-linejoin="round"/>
<path d="M367.062 209.07L385.562 235.07" stroke="black" stroke-width="10" stroke-linecap="round" stroke-linejoin="round"/>
<path d="M151.562 216.07L131.562 235.57L127.562 244.07V266.57L141.562 280.07L159.062 283.57L176.062 276.57L197.562 265.07H212.562L229.062 274.57L250.562 280.07L275.562 271.57L285.562 253.07L278.062 223.57L266.562 216.07L245.062 213.57L234.062 223.57L225.062 224.57L212.562 210.57L201.562 207.57L190.562 213.57L181.062 226.07L165.562 219.07L151.562 216.07Z" fill="#FB6D13"/>
<path d="M203.063 229.571C142.265 228.641 131.73 259.903 134.063 276.07L158.063 284.071L180.063 275.071L198.063 265.071L228.063 273.071L254.563 278.071L274.063 270.572C272.063 249.07 261.563 238.07 248.563 235.07C236.563 232.301 235.063 233.57 230.063 232.57C220.01 230.56 210.563 229.571 203.063 229.571Z" fill="#FDA847"/>
<path d="M179.063 224.571C173.563 224.571 164.563 216.571 156.562 216.571C147.562 216.571 141.562 222.071 137.062 226.57C132.562 231.07 127.063 242.07 127.062 253.57C127.062 264.07 129.562 275.27 144.063 281.07C156.563 286.07 167.563 282.648 172.562 279.571C179.062 275.571 191.563 264.07 206.563 264.57C216.563 264.904 224.563 271.57 232.063 275.07C238.563 278.104 254.063 279.57 259.063 278.57C272.467 275.889 283.938 264.07 284.563 254.07C285.563 238.07 279.563 224.57 272.563 219.57C266.963 215.57 256.563 213.57 250.563 214.07C244.456 214.58 241.84 215.206 236.563 221.07C232.063 226.07 227.563 225.472 224.563 223.072C217.063 217.07 213.563 206.57 202.563 207.07C197.046 207.32 194.563 209.57 190.063 214.57C186.005 219.079 185.582 224.571 179.063 224.571Z" stroke="black" stroke-width="10" stroke-linecap="round" stroke-linejoin="round"/>
</svg>
