<svg
viewBox="0 0 639 371"
          fill="rgb(253 167 71 / var(--tw-text-opacity))"
          xmlns="http://www.w3.org/2000/svg"
          class="max-w-full max-h-full p-4 rgb(253 167 71 / var(--tw-text-opacity)) fill-text-dino-neon-orange"
        >
          <text
            x="50"
            y="150"
            font-size="190"
            stroke="transparent"
            fill="transparent">Ragno</text
          >
          <text
            x="-10"
            y="380"
            font-size="240"
            stroke="transparent"
            fill="transparent">hacks</text
          >
          <path
            d="M99.2138 171.863L151.422 176.061L148.663 352.942L96.9663 350.288L97.8429 283.167L63.9911 281.798L62.3463 348.686L11.4467 351.235L10.0611 171.683L66.6179 172.104L65.0168 239.437L98.3906 240.809L99.2138 171.863Z"
            fill="#FDA747"></path>
          <path
            d="M266.43 174.551L271.463 303.818L230.373 304.267L228.454 258.711L197.06 260.331L194.574 303.081L156.435 303.533L160.432 169.381L167.984 160.849L254.098 158L266.43 174.551ZM227.822 230.944L226.27 194.529L200.207 196.375L198.735 228.892L227.822 230.944Z"
            fill="#FDA747"></path>
          <path
            d="M166.575 314.59L253.614 316.761L254.091 346.555L165.587 345.157L166.575 314.59Z"
            fill="#FDA747"></path>
          <path
            d="M351.59 308.265L386.379 310.867L387.655 341.621L380.897 355.442L296.508 355.812L283.896 348.872L281.567 214.504L287.022 201.801L376.826 203.174L388.164 213.411L385.988 254.932L350.652 254.838L347.223 233.099L321.004 231.878L323.698 327.25L348.629 329.204L351.59 308.265Z"
            fill="#FDA747"></path>
          <path
            d="M516.309 265.974L497.112 272.565L519.178 345.128L515.553 353.613L476.529 356.226L457.606 286.068L441.155 291.744L437.471 344.696L390.271 340.326L395.557 192.824L447.4 201.722L444.379 246.948L473.849 236.773L477.361 206.673L524.65 216.079L516.309 265.974Z"
            fill="#FDA747"></path>
          <path
            d="M623.552 282.23L632.53 300.154L632.018 350.581L620.927 360.052L539.281 360.234L532.323 346.786L535.225 313.834L565.887 314.175L568.584 329.32L595.857 328.979L596.437 307.553L541.249 301.274L533.141 292.563L533.217 235.637L540.053 227.703L605.452 224.865L628.533 231.288L630.586 263.432L624.066 268.823L599.119 269.872L594.468 256.091L570.786 257.766L569.097 277.347L623.552 282.23Z"
            fill="#FDA747"></path>
          <path
            d="M549.631 195.124L621.392 197.186L621.906 218.463L548.928 216.942L549.631 195.124Z"
            fill="#FDA747"></path>
          <path
            d="M174.438 120.952L163.853 122.095L178.525 150.711L175.151 157.474L143.771 165.312L120.532 124.697L110.512 125.034L109.162 161.136L67.7059 164.335L65.5918 4.91309L172.817 11.8314L180.892 19.6474L182.27 107.65L174.438 120.952ZM138.839 87.2809L138.464 42.5854L111.431 39.8672L111.062 89.1213L138.839 87.2809Z"
            fill="#FDA747"></path>
          <path
            d="M275.918 67.4635L274.489 157.885L243.535 149.35L243.933 117.483L220.203 111.828L216.623 140.835L187.879 132.979L196.26 41.127L202.308 36.8358L267.288 53.3889L275.918 67.4635ZM244.54 98.1308L244.82 72.6525L225.143 68.3113L222.726 90.478L244.54 98.1308Z"
            fill="#FDA747"></path>
          <path
            d="M327.498 127.703L369.211 129.972L368.315 179.062L362.23 189.006L291.978 186.548L281.707 180.427L284.104 78.8108L289.299 72.2881L362.854 74.4746L372.111 82.1358L368.933 114.393L339.805 113.006L338.102 97.6534L316.258 97.6174L315.154 163.005L336.303 165.304L337.352 151.668L326.801 150.148L327.498 127.703Z"
            fill="#FDA747"></path>
          <path
            d="M435.758 41.0475L471.105 44.751L467.546 147.203L439.319 144.118L409.738 88.9549L408.015 137.19L376.465 135.326L376.384 31.4463L410.477 36.2901L435.87 83.5223L435.758 41.0475Z"
            fill="#FDA747"></path>
          <path
            d="M587.652 31.7357L597.582 41.5917L598.186 171.883L590.697 185.506L497.146 185.381L483.285 177.737L480.089 41.1206L486.608 31.5472L587.652 31.7357ZM524.187 63.5829L526.842 152.624L555.018 154.574L554.015 66.1613L524.187 63.5829Z"
            fill="#FDA747"></path>
          <path
            d="M377.783 151.644L464.41 163.565L464.673 187.767L376.59 176.293L377.783 151.644Z"
            fill="#FDA747"></path>
        </svg>