<svg width="286" height="72" viewBox="0 0 286 72" fill="none" xmlns="http://www.w3.org/2000/svg">
<path d="M164.978 12.1077L175.774 13.0557L174.922 51.9771L164.229 51.3692L164.517 36.5995L157.515 36.2824L157.068 51.0005L146.532 51.5376L146.531 12.0265L158.233 12.1457L157.795 26.9614L164.698 27.2788L164.978 12.1077Z" fill="white"/>
<path d="M204.261 22.9503L205.191 54.6288L195.722 54.717L195.361 43.5531L188.124 43.9335L187.475 54.4076L178.686 54.4984L179.845 21.6275L181.6 19.541L201.449 18.8881L204.261 22.9503ZM195.264 36.7486L194.971 27.8245L188.962 28.2633L188.565 36.2304L195.264 36.7486Z" fill="white"/>
<path d="M181.017 57.1011L201.081 57.6754L201.135 65.0384L180.731 64.6546L181.017 57.1011Z" fill="white"/>
<path d="M222.258 46.5734L230.261 47.2091L230.532 53.9862L228.966 57.0189L209.547 56.9488L206.65 55.3974L206.216 25.7926L207.481 23.0039L228.144 23.4675L230.746 25.7431L230.214 34.886L222.082 34.8018L221.31 30.0067L215.277 29.6907L215.826 50.7057L221.561 51.1808L222.258 46.5734Z" fill="white"/>
<path d="M259.43 31.5914L255.181 34.0329L260.062 52.3759L259.259 54.7479L250.622 56.8646L246.437 39.0414L242.795 41.1411L241.978 55.2504L231.531 55.8232L232.707 16.7029L244.181 17.1551L243.511 29.2011L250.034 25.4381L250.812 17.3657L261.278 18.1185L259.43 31.5914Z" fill="white"/>
<path d="M281.831 35.6895L283.789 39.7818L283.605 51.2734L281.142 53.4227L263.107 53.3961L261.589 50.3255L262.277 42.8184L269.049 42.9216L269.623 46.3754L275.648 46.3203L275.806 41.4381L263.625 39.961L261.846 37.9692L261.943 24.9961L263.464 23.1937L277.913 22.6014L283.002 24.0845L283.411 31.4115L281.963 32.6347L276.451 32.853L275.443 29.7085L270.21 30.0703L269.809 34.5315L281.831 35.6895Z" fill="white"/>
<path d="M263.258 14.115L280.546 14.6158L280.594 20.9595L263.011 20.6217L263.258 14.115Z" fill="white"/>
<path d="M34.1466 44.2875L31.0928 44.6041L35.2789 52.9418L34.2956 54.902L25.2357 57.1335L18.5983 45.2959L15.7086 45.379L15.2633 55.8683L3.30545 56.7367L2.94336 10.4043L33.8486 12.5739L36.1647 14.8573L36.4256 40.4335L34.1466 44.2875ZM23.9347 34.4497L23.896 21.4603L16.1059 20.6302L15.923 34.9433L23.9347 34.4497Z" fill="white"/>
<path d="M60.6645 25.0126L61.4862 53.331L53.0254 53.4042L52.7075 43.4336L46.2329 43.7667L45.6549 53.1269L37.7993 53.2166L38.8328 23.8382L40.4063 21.966L58.1495 21.3867L60.6645 25.0126ZM52.6126 37.3462L52.348 29.3776L46.9842 29.7623L46.6282 36.8872L52.6126 37.3462Z" fill="white"/>
<path d="M76.5216 40.3703L89.9862 41.1797L89.5747 58.0361L87.5851 61.4462L64.9049 60.5513L61.6036 58.4417L62.6299 23.5496L64.3237 21.3135L88.0712 22.1177L91.0415 24.7552L89.935 35.8296L80.5323 35.3324L80.0204 30.0591L72.9665 30.0309L72.4476 52.4835L79.2716 53.2885L79.6442 48.6068L76.2405 48.0772L76.5216 40.3703Z" fill="white"/>
<path d="M109.283 13.7917L119.186 13.4553L118.167 47.7232L110.259 47.9494L101.983 30.8971L101.49 47.0328L92.6509 47.8129L92.6506 13.2314L102.201 13.3304L109.306 27.9281L109.283 13.7917Z" fill="white"/>
<path d="M142.064 26.6521L144.137 28.8611L144.053 58.0009L142.456 61.0442L122.781 60.9717L119.879 59.2558L119.428 28.7001L120.814 26.5621L142.064 26.6521ZM128.666 33.7446L129.08 53.6599L135.002 54.1093L134.935 34.3354L128.666 33.7446Z" fill="white"/>
<path d="M93.5704 50.2884L118.593 51.006L118.657 60.1855L93.2137 59.7017L93.5704 50.2884Z" fill="white"/>
</svg>
